<?xml version="1.0" encoding="UTF-8"?>
<svg id="Layer_2" data-name="Layer 2" xmlns="http://www.w3.org/2000/svg" width="659.8mm" height="538.68mm" viewBox="0 0 1870.3 1526.96">
  <defs>
    <style>
      .cls-1 {
        stroke-width: .72px;
      }

      .cls-1, .cls-2 {
        stroke: red;
      }

      .cls-1, .cls-2, .cls-3 {
        fill: none;
        stroke-miterlimit: 10;
      }

      .cls-3 {
        stroke: blue;
        stroke-width: .28px;
      }
    </style>
  </defs>
  <g>
    <polyline class="cls-1" points="1006.71 495.87 1006.71 475.04 1020.6 475.04 1020.6 495.87"/>
    <polyline class="cls-1" points="1037.97 475.04 1037.97 495.87 1024.08 495.87 1024.08 475.04"/>
    <rect class="cls-1" x="1055.32" y="478.51" width="20.83" height="13.89" transform="translate(1551.19 -580.28) rotate(90)"/>
    <line class="cls-1" x1="1041.43" y1="475.04" x2="1055.32" y2="475.04"/>
    <line class="cls-1" x1="1006.71" y1="485.46" x2="1020.6" y2="481.98"/>
    <polyline class="cls-1" points="1114.35 495.87 1114.35 475.04 1100.46 475.04 1100.46 495.87"/>
    <line class="cls-1" x1="1114.35" y1="485.46" x2="1100.46" y2="481.98"/>
    <line class="cls-1" x1="1048.39" y1="475.04" x2="1048.39" y2="495.87"/>
    <rect class="cls-1" x="1131.71" y="478.51" width="20.83" height="13.89" transform="translate(1627.59 -656.67) rotate(90)"/>
    <line class="cls-1" x1="1117.82" y1="475.04" x2="1131.71" y2="475.04"/>
    <line class="cls-1" x1="1124.77" y1="475.04" x2="1124.77" y2="495.87"/>
    <polyline class="cls-1" points="1076.15 495.87 1076.15 475.04 1086.57 475.04 1086.57 485.46"/>
    <polyline class="cls-1" points="1096.99 495.87 1096.99 475.04 1086.57 475.04"/>
    <polyline class="cls-1" points="1152.54 495.87 1152.54 475.04 1166.43 481.98"/>
    <line class="cls-1" x1="1166.43" y1="475.04" x2="1166.43" y2="495.87"/>
    <line class="cls-1" x1="1169.91" y1="492.39" x2="1169.91" y2="495.87"/>
    <polyline class="cls-1" points="1173.38 485.46 1187.26 481.98 1187.26 495.87 1173.38 495.87 1173.38 475.04 1183.8 475.04 1183.8 482.85"/>
    <polyline class="cls-1" points="1204.63 475.04 1190.74 475.04 1190.74 495.87 1204.63 495.87"/>
    <line class="cls-1" x1="1190.74" y1="485.46" x2="1201.15" y2="481.98"/>
    <path class="cls-2" d="M1215.04,485.46c0,7.67,6.22,13.89,13.89,13.89,7.67,0,13.89-6.22,13.89-13.89,0-7.67-6.22-13.89-13.89-13.89h0c-7.67,0-13.89,6.22-13.89,13.89ZM1219.06,481.83h7.5c.62,0,1.13.51,1.13,1.13s-.51,1.13-1.13,1.13h-7.5c-.62,0-1.13-.51-1.13-1.13s.51-1.13,1.13-1.13h0ZM1231.14,481.83h7.52c.62,0,1.13.51,1.13,1.13s-.51,1.13-1.13,1.13h-7.52c-.62,0-1.13-.51-1.13-1.13s.51-1.13,1.13-1.13Z"/>
  </g>
  <path class="cls-3" d="M974.63,1463.01v-24.3h11.34v24.3c0,2.24,1.81,4.05,4.05,4.05h785.6c2.24,0,4.05-1.81,4.05-4.05v-24.3h11.34v24.3c0,2.24,1.81,4.05,4.05,4.05h8.91c2.24,0,4.05-1.81,4.05-4.05v-38.8c0-7.64-6.2-13.84-13.84-13.84h-822.71c-7.64,0-13.84,6.2-13.84,13.84v38.8c0,2.24,1.81,4.05,4.05,4.05h8.91c2.24,0,4.05-1.81,4.05-4.05Z"/>
  <path class="cls-3" d="M974.63,1392.46v-24.3h11.34v24.3c0,2.24,1.81,4.05,4.05,4.05h785.6c2.24,0,4.05-1.81,4.05-4.05v-24.3h11.34v24.3c0,2.24,1.81,4.05,4.05,4.05h8.91c2.24,0,4.05-1.81,4.05-4.05v-38.8c0-7.64-6.2-13.84-13.84-13.84h-822.71c-7.64,0-13.84,6.2-13.84,13.84v38.8c0,2.24,1.81,4.05,4.05,4.05h8.91c2.24,0,4.05-1.81,4.05-4.05Z"/>
  <path class="cls-3" d="M1780.88,312.69c2.26,0,4.08-1.83,4.08-4.08v-76.87c0-2.26-1.83-4.08-4.08-4.08h-12.92v-3.89c0-4.52-3.66-8.18-8.18-8.18h-777.35c-4.52,0-8.18,3.66-8.18,8.18v3.89h-12.92c-2.26,0-4.08,1.83-4.08,4.08v76.87c0,2.26,1.83,4.08,4.08,4.08h12.92v190.5h-12.92c-2.26,0-4.08,1.83-4.08,4.08v76.87c0,2.26,1.83,4.08,4.08,4.08h12.92v94.2c0,4.52,3.66,8.18,8.18,8.18h777.35c4.52,0,8.18-3.66,8.18-8.18v-94.2h12.92c2.26,0,4.08-1.83,4.08-4.08v-76.87c0-2.26-1.83-4.08-4.08-4.08h-12.92v-190.5h12.92Z"/>
  <g>
    <circle class="cls-3" cx="136.68" cy="816.51" r="4.12"/>
    <path class="cls-3" d="M161.4,820.63h8.24c2.28,0,4.12-1.84,4.12-4.12s-1.84-4.12-4.12-4.12h-8.24c-2.28,0-4.12,1.84-4.12,4.12s1.84,4.12,4.12,4.12Z"/>
    <circle class="cls-3" cx="202.61" cy="816.51" r="4.12"/>
    <circle class="cls-3" cx="252.06" cy="816.51" r="4.12"/>
    <circle class="cls-3" cx="268.54" cy="816.51" r="4.12"/>
    <circle class="cls-3" cx="285.02" cy="816.51" r="4.12"/>
    <circle class="cls-3" cx="334.47" cy="816.51" r="4.12"/>
    <circle class="cls-3" cx="350.95" cy="816.51" r="4.12"/>
    <circle class="cls-3" cx="367.43" cy="816.51" r="4.12"/>
    <circle class="cls-3" cx="400.4" cy="816.51" r="4.12"/>
    <path class="cls-3" d="M425.12,820.63h24.72c2.28,0,4.12-1.84,4.12-4.12s-1.84-4.12-4.12-4.12h-24.72c-2.28,0-4.12,1.84-4.12,4.12s1.84,4.12,4.12,4.12Z"/>
    <circle class="cls-3" cx="466.33" cy="816.51" r="4.12"/>
    <circle class="cls-3" cx="482.81" cy="816.51" r="4.12"/>
    <circle class="cls-3" cx="532.25" cy="816.51" r="4.12"/>
    <circle class="cls-3" cx="548.74" cy="816.51" r="4.12"/>
    <path class="cls-3" d="M573.46,820.63h8.24c2.28,0,4.12-1.84,4.12-4.12s-1.84-4.12-4.12-4.12h-8.24c-2.28,0-4.12,1.84-4.12,4.12s1.84,4.12,4.12,4.12Z"/>
    <circle class="cls-3" cx="598.18" cy="816.51" r="4.12"/>
    <circle class="cls-3" cx="614.67" cy="816.51" r="4.12"/>
    <circle class="cls-3" cx="631.15" cy="816.51" r="4.12"/>
    <circle class="cls-3" cx="664.11" cy="816.51" r="4.12"/>
    <circle class="cls-3" cx="713.56" cy="816.51" r="4.12"/>
    <circle class="cls-3" cx="730.04" cy="816.51" r="4.12"/>
    <path class="cls-3" d="M754.77,820.63h16.48c2.28,0,4.12-1.84,4.12-4.12s-1.84-4.12-4.12-4.12h-16.48c-2.28,0-4.12,1.84-4.12,4.12s1.84,4.12,4.12,4.12Z"/>
    <circle class="cls-3" cx="795.97" cy="816.51" r="4.12"/>
    <circle class="cls-3" cx="828.94" cy="816.51" r="4.12"/>
    <circle class="cls-3" cx="128.44" cy="841.23" r="4.12"/>
    <circle class="cls-3" cx="186.13" cy="841.23" r="4.12"/>
    <circle class="cls-3" cx="202.61" cy="841.23" r="4.12"/>
    <path class="cls-3" d="M219.09,845.35h8.24c2.28,0,4.12-1.84,4.12-4.12s-1.84-4.12-4.12-4.12h-8.24c-2.28,0-4.12,1.84-4.12,4.12s1.84,4.12,4.12,4.12Z"/>
    <path class="cls-3" d="M260.3,845.35h8.24c2.28,0,4.12-1.84,4.12-4.12s-1.84-4.12-4.12-4.12h-8.24c-2.28,0-4.12,1.84-4.12,4.12s1.84,4.12,4.12,4.12Z"/>
    <circle class="cls-3" cx="293.26" cy="841.23" r="4.12"/>
    <circle class="cls-3" cx="326.23" cy="841.23" r="4.12"/>
    <circle class="cls-3" cx="383.91" cy="841.23" r="4.12"/>
    <circle class="cls-3" cx="416.88" cy="841.23" r="4.12" transform="translate(-129.37 77.64) rotate(-9.22)"/>
    <circle class="cls-3" cx="449.84" cy="841.23" r="4.12"/>
    <path class="cls-3" d="M474.57,845.35h24.72c2.28,0,4.12-1.84,4.12-4.12s-1.84-4.12-4.12-4.12h-24.72c-2.28,0-4.12,1.84-4.12,4.12s1.84,4.12,4.12,4.12Z"/>
    <circle class="cls-3" cx="515.77" cy="841.23" r="4.12"/>
    <path class="cls-3" d="M540.5,845.35h24.72c2.28,0,4.12-1.84,4.12-4.12s-1.84-4.12-4.12-4.12h-24.72c-2.28,0-4.12,1.84-4.12,4.12s1.84,4.12,4.12,4.12Z"/>
    <circle class="cls-3" cx="581.7" cy="841.23" r="4.12"/>
    <circle class="cls-3" cx="598.18" cy="841.23" r="4.12"/>
    <circle class="cls-3" cx="622.91" cy="841.23" r="4.12"/>
    <circle class="cls-3" cx="655.87" cy="841.23" r="4.12"/>
    <circle class="cls-3" cx="713.56" cy="841.23" r="4.12"/>
    <circle class="cls-3" cx="730.04" cy="841.23" r="4.12"/>
    <circle class="cls-3" cx="746.52" cy="841.23" r="4.12"/>
    <circle class="cls-3" cx="779.49" cy="841.23" r="4.12"/>
    <path class="cls-3" d="M804.21,845.35h24.72c2.28,0,4.12-1.84,4.12-4.12s-1.84-4.12-4.12-4.12h-24.72c-2.28,0-4.12,1.84-4.12,4.12s1.84,4.12,4.12,4.12Z"/>
    <circle class="cls-3" cx="845.42" cy="841.23" r="4.12"/>
    <path class="cls-3" d="M128.44,870.08h24.72c2.28,0,4.12-1.84,4.12-4.12s-1.84-4.12-4.12-4.12h-24.72c-2.28,0-4.12,1.84-4.12,4.12s1.84,4.12,4.12,4.12Z"/>
    <circle class="cls-3" cx="169.64" cy="865.96" r="4.12"/>
    <path class="cls-3" d="M194.37,870.08h16.48c2.28,0,4.12-1.84,4.12-4.12s-1.84-4.12-4.12-4.12h-16.48c-2.28,0-4.12,1.84-4.12,4.12s1.84,4.12,4.12,4.12Z"/>
    <circle class="cls-3" cx="243.81" cy="865.96" r="4.12"/>
    <circle class="cls-3" cx="301.5" cy="865.96" r="4.12"/>
    <circle class="cls-3" cx="317.98" cy="865.96" r="4.12"/>
    <path class="cls-3" d="M330.35,865.96c0,2.28,1.84,4.12,4.12,4.12h8.24c2.28,0,4.12-1.84,4.12-4.12s-1.84-4.12-4.12-4.12h-8.24c-2.28,0-4.12,1.84-4.12,4.12Z"/>
    <circle class="cls-3" cx="367.43" cy="865.96" r="4.12"/>
    <circle class="cls-3" cx="416.88" cy="865.96" r="4.12" transform="translate(-133.33 77.96) rotate(-9.22)"/>
    <circle class="cls-3" cx="433.36" cy="865.96" r="4.12"/>
    <path class="cls-3" d="M458.08,870.08h16.48c2.28,0,4.12-1.84,4.12-4.12s-1.84-4.12-4.12-4.12h-16.48c-2.28,0-4.12,1.84-4.12,4.12s1.84,4.12,4.12,4.12Z"/>
    <circle class="cls-3" cx="507.53" cy="865.96" r="4.12"/>
    <circle class="cls-3" cx="565.22" cy="865.96" r="4.12"/>
    <circle class="cls-3" cx="598.18" cy="865.96" r="4.12"/>
    <circle class="cls-3" cx="631.15" cy="865.96" r="4.12"/>
    <circle class="cls-3" cx="664.11" cy="865.96" r="4.12"/>
    <circle class="cls-3" cx="680.59" cy="865.96" r="4.12"/>
    <circle class="cls-3" cx="705.32" cy="865.96" r="4.12"/>
    <circle class="cls-3" cx="763.01" cy="865.96" r="4.12"/>
    <circle class="cls-3" cx="779.49" cy="865.96" r="4.12"/>
    <circle class="cls-3" cx="828.94" cy="865.96" r="4.12"/>
    <circle class="cls-3" cx="845.42" cy="865.96" r="4.12"/>
    <circle class="cls-3" cx="861.9" cy="865.96" r="4.12"/>
    <circle class="cls-3" cx="136.68" cy="890.68" r="4.12"/>
    <circle class="cls-3" cx="153.16" cy="890.68" r="4.12"/>
    <circle class="cls-3" cx="169.64" cy="890.68" r="4.12"/>
    <circle class="cls-3" cx="186.13" cy="890.68" r="4.12"/>
    <circle class="cls-3" cx="219.09" cy="890.68" r="4.12"/>
    <circle class="cls-3" cx="235.57" cy="890.68" r="4.12"/>
    <circle class="cls-3" cx="252.06" cy="890.68" r="4.12"/>
    <circle class="cls-3" cx="285.02" cy="890.68" r="4.12"/>
    <circle class="cls-3" cx="317.98" cy="890.68" r="4.12"/>
    <circle class="cls-3" cx="334.47" cy="890.68" r="4.12"/>
    <circle class="cls-3" cx="359.19" cy="890.68" r="4.12"/>
    <circle class="cls-3" cx="425.12" cy="890.68" r="4.12"/>
    <path class="cls-3" d="M437.48,890.68c0,2.28,1.84,4.12,4.12,4.12h8.24c2.28,0,4.12-1.84,4.12-4.12s-1.84-4.12-4.12-4.12h-8.24c-2.28,0-4.12,1.84-4.12,4.12Z"/>
    <circle class="cls-3" cx="466.33" cy="890.68" r="4.12"/>
    <circle class="cls-3" cx="491.05" cy="890.68" r="4.12"/>
    <circle class="cls-3" cx="548.74" cy="890.68" r="4.12"/>
    <circle class="cls-3" cx="598.18" cy="890.68" r="4.12"/>
    <circle class="cls-3" cx="614.67" cy="890.68" r="4.12"/>
    <circle class="cls-3" cx="631.15" cy="890.68" r="4.12"/>
    <circle class="cls-3" cx="647.63" cy="890.68" r="4.12"/>
    <circle class="cls-3" cx="664.11" cy="890.68" r="4.12"/>
    <circle class="cls-3" cx="680.59" cy="890.68" r="4.12"/>
    <circle class="cls-3" cx="697.08" cy="890.68" r="4.12"/>
    <circle class="cls-3" cx="713.56" cy="890.68" r="4.12"/>
    <circle class="cls-3" cx="746.52" cy="890.68" r="4.12"/>
    <path class="cls-3" d="M767.13,890.68c0,2.28,1.84,4.12,4.12,4.12h24.72c2.28,0,4.12-1.84,4.12-4.12s-1.84-4.12-4.12-4.12h-24.72c-2.28,0-4.12,1.84-4.12,4.12Z"/>
    <circle class="cls-3" cx="812.45" cy="890.68" r="4.12"/>
    <path class="cls-3" d="M837.18,894.8h8.24c2.28,0,4.12-1.84,4.12-4.12s-1.84-4.12-4.12-4.12h-8.24c-2.28,0-4.12,1.84-4.12,4.12s1.84,4.12,4.12,4.12Z"/>
    <circle class="cls-3" cx="861.9" cy="890.68" r="4.12"/>
    <circle class="cls-3" cx="136.68" cy="915.4" r="4.12"/>
    <circle class="cls-3" cx="186.13" cy="915.4" r="4.12"/>
    <circle class="cls-3" cx="202.61" cy="915.4" r="4.12"/>
    <circle class="cls-3" cx="219.09" cy="915.4" r="4.12"/>
    <circle class="cls-3" cx="235.57" cy="915.4" r="4.12"/>
    <circle class="cls-3" cx="268.54" cy="915.4" r="4.12"/>
    <path class="cls-3" d="M317.98,911.28h-24.72c-2.28,0-4.12,1.84-4.12,4.12s1.84,4.12,4.12,4.12h24.72c2.28,0,4.12-1.84,4.12-4.12s-1.84-4.12-4.12-4.12Z"/>
    <circle class="cls-3" cx="334.47" cy="915.4" r="4.12"/>
    <path class="cls-3" d="M355.07,915.4c0,2.28,1.84,4.12,4.12,4.12h16.48c2.28,0,4.12-1.84,4.12-4.12s-1.84-4.12-4.12-4.12h-16.48c-2.28,0-4.12,1.84-4.12,4.12Z"/>
    <circle class="cls-3" cx="408.64" cy="915.4" r="4.12"/>
    <path class="cls-3" d="M425.12,919.52h16.48c2.28,0,4.12-1.84,4.12-4.12s-1.84-4.12-4.12-4.12h-16.48c-2.28,0-4.12,1.84-4.12,4.12s1.84,4.12,4.12,4.12Z"/>
    <circle class="cls-3" cx="466.33" cy="915.4" r="4.12"/>
    <circle class="cls-3" cx="507.53" cy="915.4" r="4.12"/>
    <circle class="cls-3" cx="532.25" cy="915.4" r="4.12"/>
    <circle class="cls-3" cx="565.22" cy="915.4" r="4.12"/>
    <circle class="cls-3" cx="581.7" cy="915.4" r="4.12"/>
    <circle class="cls-3" cx="606.42" cy="915.4" r="4.12"/>
    <circle class="cls-3" cx="672.35" cy="915.4" r="4.12"/>
    <path class="cls-3" d="M688.84,919.52h8.24c2.28,0,4.12-1.84,4.12-4.12s-1.84-4.12-4.12-4.12h-8.24c-2.28,0-4.12,1.84-4.12,4.12s1.84,4.12,4.12,4.12Z"/>
    <circle class="cls-3" cx="713.56" cy="915.4" r="4.12"/>
    <circle class="cls-3" cx="738.28" cy="915.4" r="4.12"/>
    <circle class="cls-3" cx="795.97" cy="915.4" r="4.12"/>
    <circle class="cls-3" cx="812.45" cy="915.4" r="4.12"/>
    <circle class="cls-3" cx="861.9" cy="915.4" r="4.12"/>
    <circle class="cls-3" cx="136.68" cy="940.13" r="4.12"/>
    <circle class="cls-3" cx="161.4" cy="940.13" r="4.12"/>
    <circle class="cls-3" cx="186.13" cy="940.13" r="4.12"/>
    <path class="cls-3" d="M206.73,940.13c0,2.28,1.84,4.12,4.12,4.12h24.72c2.28,0,4.12-1.84,4.12-4.12s-1.84-4.12-4.12-4.12h-24.72c-2.28,0-4.12,1.84-4.12,4.12Z"/>
    <circle class="cls-3" cx="252.06" cy="940.13" r="4.12"/>
    <circle class="cls-3" cx="268.54" cy="940.13" r="4.12"/>
    <circle class="cls-3" cx="285.02" cy="940.13" r="4.12"/>
    <circle class="cls-3" cx="317.98" cy="940.13" r="4.12"/>
    <path class="cls-3" d="M367.43,936.01h-24.72c-2.28,0-4.12,1.84-4.12,4.12s1.84,4.12,4.12,4.12h24.72c2.28,0,4.12-1.84,4.12-4.12s-1.84-4.12-4.12-4.12Z"/>
    <circle class="cls-3" cx="383.91" cy="940.13" r="4.12"/>
    <circle class="cls-3" cx="400.4" cy="940.13" r="4.12"/>
    <circle class="cls-3" cx="416.88" cy="940.13" r="4.12" transform="translate(-145.21 78.92) rotate(-9.22)"/>
    <circle class="cls-3" cx="449.84" cy="940.13" r="4.12"/>
    <path class="cls-3" d="M466.33,944.25h8.24c2.28,0,4.12-1.84,4.12-4.12s-1.84-4.12-4.12-4.12h-8.24c-2.28,0-4.12,1.84-4.12,4.12s1.84,4.12,4.12,4.12Z"/>
    <circle class="cls-3" cx="499.29" cy="940.13" r="4.12"/>
    <circle class="cls-3" cx="515.77" cy="940.13" r="4.12"/>
    <circle class="cls-3" cx="532.25" cy="940.13" r="4.12"/>
    <circle class="cls-3" cx="581.7" cy="940.13" r="4.12"/>
    <circle class="cls-3" cx="614.67" cy="940.13" r="4.12"/>
    <circle class="cls-3" cx="631.15" cy="940.13" r="4.12"/>
    <circle class="cls-3" cx="647.63" cy="940.13" r="4.12"/>
    <circle class="cls-3" cx="680.59" cy="940.13" r="4.12"/>
    <circle class="cls-3" cx="721.8" cy="940.13" r="4.12"/>
    <circle class="cls-3" cx="779.49" cy="940.13" r="4.12"/>
    <circle class="cls-3" cx="804.21" cy="940.13" r="4.12"/>
    <circle class="cls-3" cx="828.94" cy="940.13" r="4.12"/>
    <circle class="cls-3" cx="845.42" cy="940.13" r="4.12"/>
    <path class="cls-3" d="M128.44,968.97h16.48c2.28,0,4.12-1.84,4.12-4.12s-1.84-4.12-4.12-4.12h-16.48c-2.28,0-4.12,1.84-4.12,4.12s1.84,4.12,4.12,4.12Z"/>
    <circle class="cls-3" cx="177.88" cy="964.85" r="4.12"/>
    <circle class="cls-3" cx="235.57" cy="964.85" r="4.12"/>
    <circle class="cls-3" cx="285.02" cy="964.85" r="4.12"/>
    <circle class="cls-3" cx="301.5" cy="964.85" r="4.12"/>
    <circle class="cls-3" cx="317.98" cy="964.85" r="4.12"/>
    <circle class="cls-3" cx="367.43" cy="964.85" r="4.12"/>
    <circle class="cls-3" cx="383.91" cy="964.85" r="4.12"/>
    <circle class="cls-3" cx="408.64" cy="964.85" r="4.12"/>
    <circle class="cls-3" cx="433.36" cy="964.85" r="4.12"/>
    <circle class="cls-3" cx="458.08" cy="964.85" r="4.12"/>
    <circle class="cls-3" cx="482.81" cy="964.85" r="4.12"/>
    <circle class="cls-3" cx="499.29" cy="964.85" r="4.12"/>
    <path class="cls-3" d="M524.01,968.97h8.24c2.28,0,4.12-1.84,4.12-4.12s-1.84-4.12-4.12-4.12h-8.24c-2.28,0-4.12,1.84-4.12,4.12s1.84,4.12,4.12,4.12Z"/>
    <circle class="cls-3" cx="573.46" cy="964.85" r="4.12"/>
    <path class="cls-3" d="M639.39,968.97h8.24c2.28,0,4.12-1.84,4.12-4.12s-1.84-4.12-4.12-4.12h-8.24c-2.28,0-4.12,1.84-4.12,4.12s1.84,4.12,4.12,4.12Z"/>
    <circle class="cls-3" cx="672.35" cy="964.85" r="4.12"/>
    <path class="cls-3" d="M701.2,964.85c0,2.28,1.84,4.12,4.12,4.12h8.24c2.28,0,4.12-1.84,4.12-4.12s-1.84-4.12-4.12-4.12h-8.24c-2.28,0-4.12,1.84-4.12,4.12Z"/>
    <path class="cls-3" d="M767.13,964.85c0,2.28,1.84,4.12,4.12,4.12h8.24c2.28,0,4.12-1.84,4.12-4.12s-1.84-4.12-4.12-4.12h-8.24c-2.28,0-4.12,1.84-4.12,4.12Z"/>
    <circle class="cls-3" cx="804.21" cy="964.85" r="4.12"/>
    <path class="cls-3" d="M833.06,964.85c0,2.28,1.84,4.12,4.12,4.12h8.24c2.28,0,4.12-1.84,4.12-4.12s-1.84-4.12-4.12-4.12h-8.24c-2.28,0-4.12,1.84-4.12,4.12Z"/>
    <circle class="cls-3" cx="861.9" cy="964.85" r="4.12"/>
    <circle class="cls-3" cx="136.68" cy="989.57" r="4.12"/>
    <circle class="cls-3" cx="161.4" cy="989.57" r="4.12"/>
    <circle class="cls-3" cx="219.09" cy="989.57" r="4.12"/>
    <circle class="cls-3" cx="243.81" cy="989.57" r="4.12"/>
    <circle class="cls-3" cx="268.54" cy="989.57" r="4.12"/>
    <circle class="cls-3" cx="285.02" cy="989.57" r="4.12"/>
    <path class="cls-3" d="M326.23,985.45h-16.48c-2.28,0-4.12,1.84-4.12,4.12s1.84,4.12,4.12,4.12h16.48c2.28,0,4.12-1.84,4.12-4.12s-1.84-4.12-4.12-4.12Z"/>
    <circle class="cls-3" cx="359.19" cy="989.57" r="4.12"/>
    <circle class="cls-3" cx="416.88" cy="989.57" r="4.12" transform="translate(-153.13 79.55) rotate(-9.22)"/>
    <path class="cls-3" d="M462.2,989.57c0-2.28-1.84-4.12-4.12-4.12h-8.24c-2.28,0-4.12,1.84-4.12,4.12s1.84,4.12,4.12,4.12h8.24c2.28,0,4.12-1.84,4.12-4.12Z"/>
    <circle class="cls-3" cx="482.81" cy="989.57" r="4.12"/>
    <circle class="cls-3" cx="532.25" cy="989.57" r="4.12"/>
    <circle class="cls-3" cx="548.74" cy="989.57" r="4.12"/>
    <circle class="cls-3" cx="589.94" cy="989.57" r="4.12"/>
    <circle class="cls-3" cx="614.67" cy="989.57" r="4.12"/>
    <path class="cls-3" d="M647.63,985.45h-8.24c-2.28,0-4.12,1.84-4.12,4.12s1.84,4.12,4.12,4.12h8.24c2.28,0,4.12-1.84,4.12-4.12s-1.84-4.12-4.12-4.12Z"/>
    <circle class="cls-3" cx="680.59" cy="989.57" r="4.12"/>
    <circle class="cls-3" cx="730.04" cy="989.57" r="4.12"/>
    <circle class="cls-3" cx="746.52" cy="989.57" r="4.12"/>
    <circle class="cls-3" cx="787.73" cy="989.57" r="4.12"/>
    <circle class="cls-3" cx="812.45" cy="989.57" r="4.12"/>
    <path class="cls-3" d="M837.18,993.69h8.24c2.28,0,4.12-1.84,4.12-4.12s-1.84-4.12-4.12-4.12h-8.24c-2.28,0-4.12,1.84-4.12,4.12s1.84,4.12,4.12,4.12Z"/>
    <circle class="cls-3" cx="136.68" cy="1014.3" r="4.12"/>
    <circle class="cls-3" cx="161.4" cy="1014.3" r="4.12"/>
    <circle class="cls-3" cx="186.13" cy="1014.3" r="4.12"/>
    <circle class="cls-3" cx="202.61" cy="1014.3" r="4.12"/>
    <circle class="cls-3" cx="235.57" cy="1014.3" r="4.12"/>
    <circle class="cls-3" cx="252.06" cy="1014.3" r="4.12"/>
    <circle class="cls-3" cx="268.54" cy="1014.3" r="4.12"/>
    <circle class="cls-3" cx="285.02" cy="1014.3" r="4.12"/>
    <circle class="cls-3" cx="309.74" cy="1014.3" r="4.12"/>
    <circle class="cls-3" cx="342.71" cy="1014.3" r="4.12"/>
    <path class="cls-3" d="M379.79,1014.3c0-2.28-1.84-4.12-4.12-4.12h-16.48c-2.28,0-4.12,1.84-4.12,4.12s1.84,4.12,4.12,4.12h16.48c2.28,0,4.12-1.84,4.12-4.12Z"/>
    <circle class="cls-3" cx="400.4" cy="1014.3" r="4.12"/>
    <circle class="cls-3" cx="441.6" cy="1014.3" r="4.12"/>
    <circle class="cls-3" cx="466.33" cy="1014.3" r="4.12"/>
    <circle class="cls-3" cx="499.29" cy="1014.3" r="4.12"/>
    <circle class="cls-3" cx="515.77" cy="1014.3" r="4.12"/>
    <circle class="cls-3" cx="540.5" cy="1014.3" r="4.12"/>
    <circle class="cls-3" cx="606.42" cy="1014.3" r="4.12"/>
    <path class="cls-3" d="M618.79,1014.3c0,2.28,1.84,4.12,4.12,4.12h8.24c2.28,0,4.12-1.84,4.12-4.12s-1.84-4.12-4.12-4.12h-8.24c-2.28,0-4.12,1.84-4.12,4.12Z"/>
    <circle class="cls-3" cx="647.63" cy="1014.3" r="4.12"/>
    <circle class="cls-3" cx="672.35" cy="1014.3" r="4.12"/>
    <circle class="cls-3" cx="730.04" cy="1014.3" r="4.12"/>
    <path class="cls-3" d="M750.64,1014.3c0,2.28,1.84,4.12,4.12,4.12h8.24c2.28,0,4.12-1.84,4.12-4.12s-1.84-4.12-4.12-4.12h-8.24c-2.28,0-4.12,1.84-4.12,4.12Z"/>
    <circle class="cls-3" cx="779.49" cy="1014.3" r="4.12"/>
    <circle class="cls-3" cx="795.97" cy="1014.3" r="4.12"/>
    <circle class="cls-3" cx="845.42" cy="1014.3" r="4.12"/>
    <circle class="cls-3" cx="861.9" cy="1014.3" r="4.12"/>
    <circle class="cls-3" cx="169.64" cy="1039.02" r="4.12"/>
    <circle class="cls-3" cx="186.13" cy="1039.02" r="4.12"/>
    <circle class="cls-3" cx="210.85" cy="1039.02" r="4.12"/>
    <path class="cls-3" d="M235.57,1034.9h-8.24c-2.28,0-4.12,1.84-4.12,4.12s1.84,4.12,4.12,4.12h8.24c2.28,0,4.12-1.84,4.12-4.12s-1.84-4.12-4.12-4.12Z"/>
    <circle class="cls-3" cx="260.3" cy="1039.02" r="4.12"/>
    <circle class="cls-3" cx="317.98" cy="1039.02" r="4.12"/>
    <circle class="cls-3" cx="350.95" cy="1039.02" r="4.12"/>
    <circle class="cls-3" cx="367.43" cy="1039.02" r="4.12"/>
    <circle class="cls-3" cx="383.91" cy="1039.02" r="4.12"/>
    <circle class="cls-3" cx="400.4" cy="1039.02" r="4.12"/>
    <circle class="cls-3" cx="425.12" cy="1039.02" r="4.12"/>
    <circle class="cls-3" cx="458.08" cy="1039.02" r="4.12"/>
    <circle class="cls-3" cx="515.77" cy="1039.02" r="4.12"/>
    <path class="cls-3" d="M532.25,1043.14h8.24c2.28,0,4.12-1.84,4.12-4.12s-1.84-4.12-4.12-4.12h-8.24c-2.28,0-4.12,1.84-4.12,4.12s1.84,4.12,4.12,4.12Z"/>
    <circle class="cls-3" cx="556.98" cy="1039.02" r="4.12"/>
    <circle class="cls-3" cx="581.7" cy="1039.02" r="4.12"/>
    <circle class="cls-3" cx="614.67" cy="1039.02" r="4.12"/>
    <circle class="cls-3" cx="631.15" cy="1039.02" r="4.12"/>
    <circle class="cls-3" cx="647.63" cy="1039.02" r="4.12"/>
    <path class="cls-3" d="M680.59,1034.9h-8.24c-2.28,0-4.12,1.84-4.12,4.12s1.84,4.12,4.12,4.12h8.24c2.28,0,4.12-1.84,4.12-4.12s-1.84-4.12-4.12-4.12Z"/>
    <circle class="cls-3" cx="713.56" cy="1039.02" r="4.12"/>
    <path class="cls-3" d="M746.52,1043.14h8.24c2.28,0,4.12-1.84,4.12-4.12s-1.84-4.12-4.12-4.12h-8.24c-2.28,0-4.12,1.84-4.12,4.12s1.84,4.12,4.12,4.12Z"/>
    <circle class="cls-3" cx="787.73" cy="1039.02" r="4.12"/>
    <circle class="cls-3" cx="845.42" cy="1039.02" r="4.12"/>
    <circle class="cls-3" cx="136.68" cy="1063.74" r="4.12"/>
    <circle class="cls-3" cx="153.16" cy="1063.74" r="4.12"/>
    <circle class="cls-3" cx="169.64" cy="1063.74" r="4.12"/>
    <circle class="cls-3" cx="202.61" cy="1063.74" r="4.12"/>
    <circle class="cls-3" cx="219.09" cy="1063.74" r="4.12"/>
    <circle class="cls-3" cx="235.57" cy="1063.74" r="4.12"/>
    <path class="cls-3" d="M256.18,1063.74c0,2.28,1.84,4.12,4.12,4.12h16.48c2.28,0,4.12-1.84,4.12-4.12s-1.84-4.12-4.12-4.12h-16.48c-2.28,0-4.12,1.84-4.12,4.12Z"/>
    <circle class="cls-3" cx="309.74" cy="1063.74" r="4.12"/>
    <circle class="cls-3" cx="367.43" cy="1063.74" r="4.12"/>
    <circle class="cls-3" cx="400.4" cy="1063.74" r="4.12"/>
    <circle class="cls-3" cx="416.88" cy="1063.74" r="4.12" transform="translate(-725.43 1041.81) rotate(-67.5)"/>
    <circle class="cls-3" cx="433.36" cy="1063.74" r="4.12"/>
    <path class="cls-3" d="M478.69,1063.74c0-2.28-1.84-4.12-4.12-4.12h-16.48c-2.28,0-4.12,1.84-4.12,4.12s1.84,4.12,4.12,4.12h16.48c2.28,0,4.12-1.84,4.12-4.12Z"/>
    <circle class="cls-3" cx="507.53" cy="1063.74" r="4.12"/>
    <circle class="cls-3" cx="565.22" cy="1063.74" r="4.12"/>
    <path class="cls-3" d="M598.18,1059.62h-8.24c-2.28,0-4.12,1.84-4.12,4.12s1.84,4.12,4.12,4.12h8.24c2.28,0,4.12-1.84,4.12-4.12s-1.84-4.12-4.12-4.12Z"/>
    <circle class="cls-3" cx="614.67" cy="1063.74" r="4.12"/>
    <circle class="cls-3" cx="631.15" cy="1063.74" r="4.12"/>
    <circle class="cls-3" cx="680.59" cy="1063.74" r="4.12"/>
    <circle class="cls-3" cx="697.08" cy="1063.74" r="4.12"/>
    <circle class="cls-3" cx="721.8" cy="1063.74" r="4.12"/>
    <circle class="cls-3" cx="746.52" cy="1063.74" r="4.12"/>
    <circle class="cls-3" cx="763.01" cy="1063.74" r="4.12"/>
    <path class="cls-3" d="M795.97,1059.62h-8.24c-2.28,0-4.12,1.84-4.12,4.12s1.84,4.12,4.12,4.12h8.24c2.28,0,4.12-1.84,4.12-4.12s-1.84-4.12-4.12-4.12Z"/>
    <circle class="cls-3" cx="837.18" cy="1063.74" r="4.12"/>
    <circle class="cls-3" cx="153.16" cy="1088.47" r="4.12"/>
    <path class="cls-3" d="M173.76,1088.47c0,2.28,1.84,4.12,4.12,4.12h16.48c2.28,0,4.12-1.84,4.12-4.12s-1.84-4.12-4.12-4.12h-16.48c-2.28,0-4.12,1.84-4.12,4.12Z"/>
    <circle class="cls-3" cx="219.09" cy="1088.47" r="4.12"/>
    <circle class="cls-3" cx="268.54" cy="1088.47" r="4.12"/>
    <circle class="cls-3" cx="285.02" cy="1088.47" r="4.12"/>
    <circle class="cls-3" cx="334.47" cy="1088.47" r="4.12"/>
    <circle class="cls-3" cx="350.95" cy="1088.47" r="4.12"/>
    <circle class="cls-3" cx="367.43" cy="1088.47" r="4.12"/>
    <circle class="cls-3" cx="392.15" cy="1088.47" r="4.12"/>
    <circle class="cls-3" cx="425.12" cy="1088.47" r="4.12"/>
    <circle class="cls-3" cx="482.81" cy="1088.47" r="4.12"/>
    <circle class="cls-3" cx="499.29" cy="1088.47" r="4.12"/>
    <circle class="cls-3" cx="515.77" cy="1088.47" r="4.12"/>
    <circle class="cls-3" cx="548.74" cy="1088.47" r="4.12"/>
    <path class="cls-3" d="M598.18,1084.35h-24.72c-2.28,0-4.12,1.84-4.12,4.12s1.84,4.12,4.12,4.12h24.72c2.28,0,4.12-1.84,4.12-4.12s-1.84-4.12-4.12-4.12Z"/>
    <circle class="cls-3" cx="614.67" cy="1088.47" r="4.12"/>
    <path class="cls-3" d="M635.27,1088.47c0,2.28,1.84,4.12,4.12,4.12h24.72c2.28,0,4.12-1.84,4.12-4.12s-1.84-4.12-4.12-4.12h-24.72c-2.28,0-4.12,1.84-4.12,4.12Z"/>
    <circle class="cls-3" cx="680.59" cy="1088.47" r="4.12"/>
    <path class="cls-3" d="M725.92,1088.47c0-2.28-1.84-4.12-4.12-4.12h-16.48c-2.28,0-4.12,1.84-4.12,4.12s1.84,4.12,4.12,4.12h16.48c2.28,0,4.12-1.84,4.12-4.12Z"/>
    <circle class="cls-3" cx="746.52" cy="1088.47" r="4.12"/>
    <circle class="cls-3" cx="812.45" cy="1088.47" r="4.12"/>
    <circle class="cls-3" cx="861.9" cy="1088.47" r="4.12"/>
    <circle class="cls-3" cx="136.68" cy="1113.19" r="4.12"/>
    <circle class="cls-3" cx="153.16" cy="1113.19" r="4.12"/>
    <circle class="cls-3" cx="169.64" cy="1113.19" r="4.12"/>
    <circle class="cls-3" cx="186.13" cy="1113.19" r="4.12"/>
    <circle class="cls-3" cx="202.61" cy="1113.19" r="4.12"/>
    <circle class="cls-3" cx="219.09" cy="1113.19" r="4.12"/>
    <circle class="cls-3" cx="235.57" cy="1113.19" r="4.12"/>
    <circle class="cls-3" cx="268.54" cy="1113.19" r="4.12"/>
    <path class="cls-3" d="M322.1,1113.19c0-2.28-1.84-4.12-4.12-4.12h-24.72c-2.28,0-4.12,1.84-4.12,4.12s1.84,4.12,4.12,4.12h24.72c2.28,0,4.12-1.84,4.12-4.12Z"/>
    <circle class="cls-3" cx="334.47" cy="1113.19" r="4.12"/>
    <path class="cls-3" d="M367.43,1109.07h-8.24c-2.28,0-4.12,1.84-4.12,4.12s1.84,4.12,4.12,4.12h8.24c2.28,0,4.12-1.84,4.12-4.12s-1.84-4.12-4.12-4.12Z"/>
    <circle class="cls-3" cx="383.91" cy="1113.19" r="4.12"/>
    <circle class="cls-3" cx="400.4" cy="1113.19" r="4.12"/>
    <circle class="cls-3" cx="449.84" cy="1113.19" r="4.12"/>
    <circle class="cls-3" cx="466.33" cy="1113.19" r="4.12"/>
    <circle class="cls-3" cx="482.81" cy="1113.19" r="4.12"/>
    <circle class="cls-3" cx="499.29" cy="1113.19" r="4.12"/>
    <circle class="cls-3" cx="532.25" cy="1113.19" r="4.12"/>
    <path class="cls-3" d="M585.82,1113.19c0-2.28-1.84-4.12-4.12-4.12h-24.72c-2.28,0-4.12,1.84-4.12,4.12s1.84,4.12,4.12,4.12h24.72c2.28,0,4.12-1.84,4.12-4.12Z"/>
    <circle class="cls-3" cx="598.18" cy="1113.19" r="4.12"/>
    <path class="cls-3" d="M643.51,1113.19c0-2.28-1.84-4.12-4.12-4.12h-16.48c-2.28,0-4.12,1.84-4.12,4.12s1.84,4.12,4.12,4.12h16.48c2.28,0,4.12-1.84,4.12-4.12Z"/>
    <circle class="cls-3" cx="672.35" cy="1113.19" r="4.12"/>
    <path class="cls-3" d="M705.32,1109.07h-16.48c-2.28,0-4.12,1.84-4.12,4.12s1.84,4.12,4.12,4.12h16.48c2.28,0,4.12-1.84,4.12-4.12s-1.84-4.12-4.12-4.12Z"/>
    <circle class="cls-3" cx="730.04" cy="1113.19" r="4.12"/>
    <circle class="cls-3" cx="771.25" cy="1113.19" r="4.12"/>
    <circle class="cls-3" cx="795.97" cy="1113.19" r="4.12"/>
    <circle class="cls-3" cx="828.94" cy="1113.19" r="4.12"/>
    <circle class="cls-3" cx="845.42" cy="1113.19" r="4.12"/>
    <circle class="cls-3" cx="861.9" cy="1113.19" r="4.12"/>
    <path class="cls-3" d="M144.92,1142.04h8.24c2.28,0,4.12-1.84,4.12-4.12s-1.84-4.12-4.12-4.12h-8.24c-2.28,0-4.12,1.84-4.12,4.12s1.84,4.12,4.12,4.12Z"/>
    <circle class="cls-3" cx="186.13" cy="1137.91" r="4.12"/>
    <circle class="cls-3" cx="235.57" cy="1137.91" r="4.12"/>
    <circle class="cls-3" cx="252.06" cy="1137.91" r="4.12"/>
    <circle class="cls-3" cx="268.54" cy="1137.91" r="4.12"/>
    <circle class="cls-3" cx="317.98" cy="1137.91" r="4.12"/>
    <circle class="cls-3" cx="334.47" cy="1137.91" r="4.12"/>
    <circle class="cls-3" cx="350.95" cy="1137.91" r="4.12"/>
    <circle class="cls-3" cx="383.91" cy="1137.91" r="4.12"/>
    <path class="cls-3" d="M408.64,1142.04h24.72c2.28,0,4.12-1.84,4.12-4.12s-1.84-4.12-4.12-4.12h-24.72c-2.28,0-4.12,1.84-4.12,4.12s1.84,4.12,4.12,4.12Z"/>
    <circle class="cls-3" cx="449.84" cy="1137.91" r="4.12"/>
    <circle class="cls-3" cx="466.33" cy="1137.91" r="4.12"/>
    <circle class="cls-3" cx="515.77" cy="1137.91" r="4.12"/>
    <circle class="cls-3" cx="532.25" cy="1137.91" r="4.12"/>
    <path class="cls-3" d="M565.22,1133.79h-8.24c-2.28,0-4.12,1.84-4.12,4.12s1.84,4.12,4.12,4.12h8.24c2.28,0,4.12-1.84,4.12-4.12s-1.84-4.12-4.12-4.12Z"/>
    <circle class="cls-3" cx="581.7" cy="1137.91" r="4.12"/>
    <circle class="cls-3" cx="598.18" cy="1137.91" r="4.12"/>
    <circle class="cls-3" cx="614.67" cy="1137.91" r="4.12"/>
    <circle class="cls-3" cx="647.63" cy="1137.91" r="4.12"/>
    <circle class="cls-3" cx="697.08" cy="1137.91" r="4.12"/>
    <circle class="cls-3" cx="713.56" cy="1137.91" r="4.12"/>
    <path class="cls-3" d="M734.16,1137.91c0,2.28,1.84,4.12,4.12,4.12h16.48c2.28,0,4.12-1.84,4.12-4.12s-1.84-4.12-4.12-4.12h-16.48c-2.28,0-4.12,1.84-4.12,4.12Z"/>
    <circle class="cls-3" cx="779.49" cy="1137.91" r="4.12"/>
    <circle class="cls-3" cx="812.45" cy="1137.91" r="4.12"/>
    <circle class="cls-3" cx="853.66" cy="1137.91" r="4.12"/>
    <circle class="cls-3" cx="169.64" cy="1162.64" r="4.12"/>
    <circle class="cls-3" cx="186.13" cy="1162.64" r="4.12"/>
    <path class="cls-3" d="M214.97,1162.64c0-2.28-1.84-4.12-4.12-4.12h-8.24c-2.28,0-4.12,1.84-4.12,4.12s1.84,4.12,4.12,4.12h8.24c2.28,0,4.12-1.84,4.12-4.12Z"/>
    <path class="cls-3" d="M252.06,1158.52h-8.24c-2.28,0-4.12,1.84-4.12,4.12s1.84,4.12,4.12,4.12h8.24c2.28,0,4.12-1.84,4.12-4.12s-1.84-4.12-4.12-4.12Z"/>
    <circle class="cls-3" cx="276.78" cy="1162.64" r="4.12"/>
    <circle class="cls-3" cx="309.74" cy="1162.64" r="4.12"/>
    <circle class="cls-3" cx="367.43" cy="1162.64" r="4.12"/>
    <circle class="cls-3" cx="400.4" cy="1162.64" r="4.12"/>
    <circle class="cls-3" cx="433.36" cy="1162.64" r="4.12"/>
    <path class="cls-3" d="M482.81,1158.52h-24.72c-2.28,0-4.12,1.84-4.12,4.12s1.84,4.12,4.12,4.12h24.72c2.28,0,4.12-1.84,4.12-4.12s-1.84-4.12-4.12-4.12Z"/>
    <circle class="cls-3" cx="499.29" cy="1162.64" r="4.12"/>
    <path class="cls-3" d="M552.86,1162.64c0-2.28-1.84-4.12-4.12-4.12h-24.72c-2.28,0-4.12,1.84-4.12,4.12s1.84,4.12,4.12,4.12h24.72c2.28,0,4.12-1.84,4.12-4.12Z"/>
    <circle class="cls-3" cx="565.22" cy="1162.64" r="4.12"/>
    <circle class="cls-3" cx="581.7" cy="1162.64" r="4.12"/>
    <circle class="cls-3" cx="606.42" cy="1162.64" r="4.12"/>
    <circle class="cls-3" cx="639.39" cy="1162.64" r="4.12"/>
    <circle class="cls-3" cx="697.08" cy="1162.64" r="4.12"/>
    <circle class="cls-3" cx="713.56" cy="1162.64" r="4.12"/>
    <circle class="cls-3" cx="730.04" cy="1162.64" r="4.12"/>
    <circle class="cls-3" cx="763.01" cy="1162.64" r="4.12"/>
    <path class="cls-3" d="M812.45,1158.52h-24.72c-2.28,0-4.12,1.84-4.12,4.12s1.84,4.12,4.12,4.12h24.72c2.28,0,4.12-1.84,4.12-4.12s-1.84-4.12-4.12-4.12Z"/>
    <circle class="cls-3" cx="828.94" cy="1162.64" r="4.12"/>
    <path class="cls-3" d="M861.9,1158.52h-8.24c-2.28,0-4.12,1.84-4.12,4.12s1.84,4.12,4.12,4.12h8.24c2.28,0,4.12-1.84,4.12-4.12s-1.84-4.12-4.12-4.12Z"/>
    <path class="cls-3" d="M128.44,1191.48h8.24c2.28,0,4.12-1.84,4.12-4.12s-1.84-4.12-4.12-4.12h-8.24c-2.28,0-4.12,1.84-4.12,4.12s1.84,4.12,4.12,4.12Z"/>
    <circle class="cls-3" cx="153.16" cy="1187.36" r="4.12"/>
    <path class="cls-3" d="M177.88,1191.48h16.48c2.28,0,4.12-1.84,4.12-4.12s-1.84-4.12-4.12-4.12h-16.48c-2.28,0-4.12,1.84-4.12,4.12s1.84,4.12,4.12,4.12Z"/>
    <circle class="cls-3" cx="227.33" cy="1187.36" r="4.12"/>
    <circle class="cls-3" cx="285.02" cy="1187.36" r="4.12"/>
    <circle class="cls-3" cx="301.5" cy="1187.36" r="4.12"/>
    <path class="cls-3" d="M330.35,1187.36c0-2.28-1.84-4.12-4.12-4.12h-8.24c-2.28,0-4.12,1.84-4.12,4.12s1.84,4.12,4.12,4.12h8.24c2.28,0,4.12-1.84,4.12-4.12Z"/>
    <circle class="cls-3" cx="350.95" cy="1187.36" r="4.12"/>
    <circle class="cls-3" cx="400.4" cy="1187.36" r="4.12"/>
    <circle class="cls-3" cx="416.88" cy="1187.36" r="4.12" transform="translate(-839.63 1118.12) rotate(-67.5)"/>
    <path class="cls-3" d="M458.08,1183.24h-16.48c-2.28,0-4.12,1.84-4.12,4.12s1.84,4.12,4.12,4.12h16.48c2.28,0,4.12-1.84,4.12-4.12s-1.84-4.12-4.12-4.12Z"/>
    <circle class="cls-3" cx="491.05" cy="1187.36" r="4.12"/>
    <circle class="cls-3" cx="548.74" cy="1187.36" r="4.12"/>
    <circle class="cls-3" cx="581.7" cy="1187.36" r="4.12"/>
    <circle class="cls-3" cx="614.67" cy="1187.36" r="4.12"/>
    <circle class="cls-3" cx="647.63" cy="1187.36" r="4.12"/>
    <circle class="cls-3" cx="664.11" cy="1187.36" r="4.12"/>
    <circle class="cls-3" cx="688.84" cy="1187.36" r="4.12"/>
    <circle class="cls-3" cx="746.52" cy="1187.36" r="4.12"/>
    <circle class="cls-3" cx="763.01" cy="1187.36" r="4.12"/>
    <circle class="cls-3" cx="812.45" cy="1187.36" r="4.12"/>
    <circle class="cls-3" cx="828.94" cy="1187.36" r="4.12"/>
    <circle class="cls-3" cx="845.42" cy="1187.36" r="4.12"/>
    <circle class="cls-3" cx="861.9" cy="1187.36" r="4.12"/>
    <circle class="cls-3" cx="136.68" cy="1212.09" r="4.12"/>
    <circle class="cls-3" cx="153.16" cy="1212.09" r="4.12"/>
    <circle class="cls-3" cx="169.64" cy="1212.09" r="4.12"/>
    <circle class="cls-3" cx="202.61" cy="1212.09" r="4.12"/>
    <circle class="cls-3" cx="219.09" cy="1212.09" r="4.12"/>
    <circle class="cls-3" cx="235.57" cy="1212.09" r="4.12"/>
    <circle class="cls-3" cx="268.54" cy="1212.09" r="4.12"/>
    <circle class="cls-3" cx="301.5" cy="1212.09" r="4.12"/>
    <circle class="cls-3" cx="317.98" cy="1212.09" r="4.12"/>
    <circle class="cls-3" cx="342.71" cy="1212.09" r="4.12"/>
    <circle class="cls-3" cx="408.64" cy="1212.09" r="4.12"/>
    <path class="cls-3" d="M433.36,1207.96h-8.24c-2.28,0-4.12,1.84-4.12,4.12s1.84,4.12,4.12,4.12h8.24c2.28,0,4.12-1.84,4.12-4.12s-1.84-4.12-4.12-4.12Z"/>
    <circle class="cls-3" cx="449.84" cy="1212.09" r="4.12"/>
    <circle class="cls-3" cx="474.57" cy="1212.09" r="4.12"/>
    <circle class="cls-3" cx="532.25" cy="1212.09" r="4.12"/>
    <circle class="cls-3" cx="581.7" cy="1212.09" r="4.12"/>
    <circle class="cls-3" cx="598.18" cy="1212.09" r="4.12"/>
    <circle class="cls-3" cx="614.67" cy="1212.09" r="4.12"/>
    <circle class="cls-3" cx="631.15" cy="1212.09" r="4.12"/>
    <circle class="cls-3" cx="647.63" cy="1212.09" r="4.12"/>
    <circle class="cls-3" cx="664.11" cy="1212.09" r="4.12"/>
    <circle class="cls-3" cx="680.59" cy="1212.09" r="4.12"/>
    <circle class="cls-3" cx="697.08" cy="1212.09" r="4.12"/>
    <circle class="cls-3" cx="730.04" cy="1212.09" r="4.12"/>
    <path class="cls-3" d="M783.61,1212.09c0-2.28-1.84-4.12-4.12-4.12h-24.72c-2.28,0-4.12,1.84-4.12,4.12s1.84,4.12,4.12,4.12h24.72c2.28,0,4.12-1.84,4.12-4.12Z"/>
    <circle class="cls-3" cx="795.97" cy="1212.09" r="4.12"/>
    <path class="cls-3" d="M828.94,1207.96h-8.24c-2.28,0-4.12,1.84-4.12,4.12s1.84,4.12,4.12,4.12h8.24c2.28,0,4.12-1.84,4.12-4.12s-1.84-4.12-4.12-4.12Z"/>
    <circle class="cls-3" cx="845.42" cy="1212.09" r="4.12"/>
    <circle class="cls-3" cx="861.9" cy="1212.09" r="4.12"/>
    <circle class="cls-3" cx="169.64" cy="1236.81" r="4.12"/>
    <circle class="cls-3" cx="186.13" cy="1236.81" r="4.12"/>
    <circle class="cls-3" cx="202.61" cy="1236.81" r="4.12"/>
    <circle class="cls-3" cx="219.09" cy="1236.81" r="4.12"/>
    <circle class="cls-3" cx="252.06" cy="1236.81" r="4.12"/>
    <path class="cls-3" d="M301.5,1232.69h-24.72c-2.28,0-4.12,1.84-4.12,4.12s1.84,4.12,4.12,4.12h24.72c2.28,0,4.12-1.84,4.12-4.12s-1.84-4.12-4.12-4.12Z"/>
    <circle class="cls-3" cx="317.98" cy="1236.81" r="4.12"/>
    <path class="cls-3" d="M363.31,1236.81c0-2.28-1.84-4.12-4.12-4.12h-16.48c-2.28,0-4.12,1.84-4.12,4.12s1.84,4.12,4.12,4.12h16.48c2.28,0,4.12-1.84,4.12-4.12Z"/>
    <circle class="cls-3" cx="392.15" cy="1236.81" r="4.12"/>
    <path class="cls-3" d="M429.24,1236.81c0-2.28-1.84-4.12-4.12-4.12h-16.48c-2.28,0-4.12,1.84-4.12,4.12s1.84,4.12,4.12,4.12h16.48c2.28,0,4.12-1.84,4.12-4.12Z"/>
    <circle class="cls-3" cx="449.84" cy="1236.81" r="4.12"/>
    <circle class="cls-3" cx="491.05" cy="1236.81" r="4.12"/>
    <circle class="cls-3" cx="515.77" cy="1236.81" r="4.12"/>
    <circle class="cls-3" cx="548.74" cy="1236.81" r="4.12"/>
    <circle class="cls-3" cx="565.22" cy="1236.81" r="4.12"/>
    <circle class="cls-3" cx="589.94" cy="1236.81" r="4.12"/>
    <circle class="cls-3" cx="655.87" cy="1236.81" r="4.12"/>
    <path class="cls-3" d="M680.59,1232.69h-8.24c-2.28,0-4.12,1.84-4.12,4.12s1.84,4.12,4.12,4.12h8.24c2.28,0,4.12-1.84,4.12-4.12s-1.84-4.12-4.12-4.12Z"/>
    <circle class="cls-3" cx="697.08" cy="1236.81" r="4.12"/>
    <circle class="cls-3" cx="721.8" cy="1236.81" r="4.12"/>
    <circle class="cls-3" cx="779.49" cy="1236.81" r="4.12"/>
    <circle class="cls-3" cx="795.97" cy="1236.81" r="4.12"/>
    <circle class="cls-3" cx="845.42" cy="1236.81" r="4.12"/>
    <circle class="cls-3" cx="861.9" cy="1236.81" r="4.12"/>
    <circle class="cls-3" cx="144.92" cy="1261.53" r="4.12"/>
    <circle class="cls-3" cx="169.64" cy="1261.53" r="4.12"/>
    <path class="cls-3" d="M219.09,1257.41h-24.72c-2.28,0-4.12,1.84-4.12,4.12s1.84,4.12,4.12,4.12h24.72c2.28,0,4.12-1.84,4.12-4.12s-1.84-4.12-4.12-4.12Z"/>
    <circle class="cls-3" cx="235.57" cy="1261.53" r="4.12"/>
    <circle class="cls-3" cx="252.06" cy="1261.53" r="4.12"/>
    <circle class="cls-3" cx="268.54" cy="1261.53" r="4.12"/>
    <circle class="cls-3" cx="301.5" cy="1261.53" r="4.12"/>
    <path class="cls-3" d="M350.95,1257.41h-24.72c-2.28,0-4.12,1.84-4.12,4.12s1.84,4.12,4.12,4.12h24.72c2.28,0,4.12-1.84,4.12-4.12s-1.84-4.12-4.12-4.12Z"/>
    <circle class="cls-3" cx="367.43" cy="1261.53" r="4.12"/>
    <circle class="cls-3" cx="383.91" cy="1261.53" r="4.12"/>
    <circle class="cls-3" cx="400.4" cy="1261.53" r="4.12"/>
    <circle class="cls-3" cx="433.36" cy="1261.53" r="4.12"/>
    <path class="cls-3" d="M462.2,1261.53c0-2.28-1.84-4.12-4.12-4.12h-8.24c-2.28,0-4.12,1.84-4.12,4.12s1.84,4.12,4.12,4.12h8.24c2.28,0,4.12-1.84,4.12-4.12Z"/>
    <circle class="cls-3" cx="482.81" cy="1261.53" r="4.12"/>
    <circle class="cls-3" cx="499.29" cy="1261.53" r="4.12"/>
    <circle class="cls-3" cx="515.77" cy="1261.53" r="4.12"/>
    <circle class="cls-3" cx="565.22" cy="1261.53" r="4.12"/>
    <circle class="cls-3" cx="598.18" cy="1261.53" r="4.12"/>
    <circle class="cls-3" cx="614.67" cy="1261.53" r="4.12"/>
    <circle class="cls-3" cx="631.15" cy="1261.53" r="4.12"/>
    <circle class="cls-3" cx="664.11" cy="1261.53" r="4.12"/>
    <circle class="cls-3" cx="705.32" cy="1261.53" r="4.12"/>
    <circle class="cls-3" cx="763.01" cy="1261.53" r="4.12"/>
    <circle class="cls-3" cx="787.73" cy="1261.53" r="4.12"/>
    <circle class="cls-3" cx="812.45" cy="1261.53" r="4.12"/>
    <circle class="cls-3" cx="828.94" cy="1261.53" r="4.12"/>
    <path class="cls-3" d="M861.9,1257.41h-8.24c-2.28,0-4.12,1.84-4.12,4.12s1.84,4.12,4.12,4.12h8.24c2.28,0,4.12-1.84,4.12-4.12s-1.84-4.12-4.12-4.12Z"/>
    <circle class="cls-3" cx="128.44" cy="1286.26" r="4.12"/>
    <circle class="cls-3" cx="161.4" cy="1286.26" r="4.12"/>
    <circle class="cls-3" cx="219.09" cy="1286.26" r="4.12"/>
    <circle class="cls-3" cx="268.54" cy="1286.26" r="4.12"/>
    <circle class="cls-3" cx="285.02" cy="1286.26" r="4.12"/>
    <circle class="cls-3" cx="301.5" cy="1286.26" r="4.12"/>
    <circle class="cls-3" cx="350.95" cy="1286.26" r="4.12"/>
    <circle class="cls-3" cx="367.43" cy="1286.26" r="4.12"/>
    <circle class="cls-3" cx="392.15" cy="1286.26" r="4.12"/>
    <circle class="cls-3" cx="416.88" cy="1286.26" r="4.12"/>
    <circle class="cls-3" cx="441.6" cy="1286.26" r="4.12"/>
    <circle class="cls-3" cx="466.33" cy="1286.26" r="4.12"/>
    <circle class="cls-3" cx="482.81" cy="1286.26" r="4.12"/>
    <path class="cls-3" d="M519.89,1286.26c0-2.28-1.84-4.12-4.12-4.12h-8.24c-2.28,0-4.12,1.84-4.12,4.12s1.84,4.12,4.12,4.12h8.24c2.28,0,4.12-1.84,4.12-4.12Z"/>
    <circle class="cls-3" cx="556.98" cy="1286.26" r="4.12"/>
    <path class="cls-3" d="M631.15,1282.13h-8.24c-2.28,0-4.12,1.84-4.12,4.12s1.84,4.12,4.12,4.12h8.24c2.28,0,4.12-1.84,4.12-4.12s-1.84-4.12-4.12-4.12Z"/>
    <circle class="cls-3" cx="655.87" cy="1286.26" r="4.12"/>
    <path class="cls-3" d="M688.84,1290.38h8.24c2.28,0,4.12-1.84,4.12-4.12s-1.84-4.12-4.12-4.12h-8.24c-2.28,0-4.12,1.84-4.12,4.12s1.84,4.12,4.12,4.12Z"/>
    <path class="cls-3" d="M750.64,1286.26c0,2.28,1.84,4.12,4.12,4.12h8.24c2.28,0,4.12-1.84,4.12-4.12s-1.84-4.12-4.12-4.12h-8.24c-2.28,0-4.12,1.84-4.12,4.12Z"/>
    <circle class="cls-3" cx="787.73" cy="1286.26" r="4.12"/>
    <path class="cls-3" d="M828.94,1282.13h-8.24c-2.28,0-4.12,1.84-4.12,4.12s1.84,4.12,4.12,4.12h8.24c2.28,0,4.12-1.84,4.12-4.12s-1.84-4.12-4.12-4.12Z"/>
    <circle class="cls-3" cx="845.42" cy="1286.26" r="4.12"/>
    <circle class="cls-3" cx="861.9" cy="1286.26" r="4.12"/>
    <circle class="cls-3" cx="144.92" cy="1310.98" r="4.12"/>
    <circle class="cls-3" cx="202.61" cy="1310.98" r="4.12"/>
    <circle class="cls-3" cx="227.33" cy="1310.98" r="4.12"/>
    <circle class="cls-3" cx="252.06" cy="1310.98" r="4.12"/>
    <circle class="cls-3" cx="268.54" cy="1310.98" r="4.12"/>
    <path class="cls-3" d="M309.74,1306.86h-16.48c-2.28,0-4.12,1.84-4.12,4.12s1.84,4.12,4.12,4.12h16.48c2.28,0,4.12-1.84,4.12-4.12s-1.84-4.12-4.12-4.12Z"/>
    <circle class="cls-3" cx="342.71" cy="1310.98" r="4.12"/>
    <circle class="cls-3" cx="400.4" cy="1310.98" r="4.12"/>
    <path class="cls-3" d="M441.6,1306.86h-8.24c-2.28,0-4.12,1.84-4.12,4.12s1.84,4.12,4.12,4.12h8.24c2.28,0,4.12-1.84,4.12-4.12s-1.84-4.12-4.12-4.12Z"/>
    <circle class="cls-3" cx="466.33" cy="1310.98" r="4.12"/>
    <circle class="cls-3" cx="515.77" cy="1310.98" r="4.12"/>
    <circle class="cls-3" cx="532.25" cy="1310.98" r="4.12"/>
    <circle class="cls-3" cx="573.46" cy="1310.98" r="4.12"/>
    <circle class="cls-3" cx="598.18" cy="1310.98" r="4.12"/>
    <path class="cls-3" d="M631.15,1306.86h-8.24c-2.28,0-4.12,1.84-4.12,4.12s1.84,4.12,4.12,4.12h8.24c2.28,0,4.12-1.84,4.12-4.12s-1.84-4.12-4.12-4.12Z"/>
    <circle class="cls-3" cx="664.11" cy="1310.98" r="4.12"/>
    <circle class="cls-3" cx="713.56" cy="1310.98" r="4.12"/>
    <circle class="cls-3" cx="730.04" cy="1310.98" r="4.12"/>
    <circle class="cls-3" cx="771.25" cy="1310.98" r="4.12"/>
    <circle class="cls-3" cx="795.97" cy="1310.98" r="4.12"/>
    <path class="cls-3" d="M828.94,1306.86h-8.24c-2.28,0-4.12,1.84-4.12,4.12s1.84,4.12,4.12,4.12h8.24c2.28,0,4.12-1.84,4.12-4.12s-1.84-4.12-4.12-4.12Z"/>
    <circle class="cls-3" cx="861.9" cy="1310.98" r="4.12"/>
    <circle class="cls-3" cx="144.92" cy="1335.7" r="4.12"/>
    <circle class="cls-3" cx="169.64" cy="1335.7" r="4.12"/>
    <circle class="cls-3" cx="186.13" cy="1335.7" r="4.12"/>
    <circle class="cls-3" cx="219.09" cy="1335.7" r="4.12"/>
    <circle class="cls-3" cx="235.57" cy="1335.7" r="4.12"/>
    <circle class="cls-3" cx="252.06" cy="1335.7" r="4.12"/>
    <circle class="cls-3" cx="268.54" cy="1335.7" r="4.12"/>
    <circle class="cls-3" cx="293.26" cy="1335.7" r="4.12"/>
    <circle class="cls-3" cx="326.23" cy="1335.7" r="4.12"/>
    <path class="cls-3" d="M359.19,1331.58h-16.48c-2.28,0-4.12,1.84-4.12,4.12s1.84,4.12,4.12,4.12h16.48c2.28,0,4.12-1.84,4.12-4.12s-1.84-4.12-4.12-4.12Z"/>
    <circle class="cls-3" cx="383.91" cy="1335.7" r="4.12"/>
    <circle class="cls-3" cx="425.12" cy="1335.7" r="4.12"/>
    <circle class="cls-3" cx="449.84" cy="1335.7" r="4.12"/>
    <circle class="cls-3" cx="482.81" cy="1335.7" r="4.12"/>
    <circle class="cls-3" cx="499.29" cy="1335.7" r="4.12"/>
    <circle class="cls-3" cx="524.01" cy="1335.7" r="4.12"/>
    <circle class="cls-3" cx="589.94" cy="1335.7" r="4.12"/>
    <path class="cls-3" d="M614.67,1331.58h-8.24c-2.28,0-4.12,1.84-4.12,4.12s1.84,4.12,4.12,4.12h8.24c2.28,0,4.12-1.84,4.12-4.12s-1.84-4.12-4.12-4.12Z"/>
    <circle class="cls-3" cx="631.15" cy="1335.7" r="4.12"/>
    <circle class="cls-3" cx="655.87" cy="1335.7" r="4.12"/>
    <circle class="cls-3" cx="713.56" cy="1335.7" r="4.12"/>
    <path class="cls-3" d="M738.28,1339.82h8.24c2.28,0,4.12-1.84,4.12-4.12s-1.84-4.12-4.12-4.12h-8.24c-2.28,0-4.12,1.84-4.12,4.12s1.84,4.12,4.12,4.12Z"/>
    <circle class="cls-3" cx="763.01" cy="1335.7" r="4.12"/>
    <circle class="cls-3" cx="779.49" cy="1335.7" r="4.12"/>
    <circle class="cls-3" cx="828.94" cy="1335.7" r="4.12"/>
    <circle class="cls-3" cx="845.42" cy="1335.7" r="4.12"/>
    <circle class="cls-3" cx="153.16" cy="1360.43" r="4.12"/>
    <circle class="cls-3" cx="169.64" cy="1360.43" r="4.12"/>
    <circle class="cls-3" cx="194.37" cy="1360.43" r="4.12"/>
    <path class="cls-3" d="M219.09,1356.31h-8.24c-2.28,0-4.12,1.84-4.12,4.12s1.84,4.12,4.12,4.12h8.24c2.28,0,4.12-1.84,4.12-4.12s-1.84-4.12-4.12-4.12Z"/>
    <circle class="cls-3" cx="243.81" cy="1360.43" r="4.12"/>
    <circle class="cls-3" cx="301.5" cy="1360.43" r="4.12"/>
    <circle class="cls-3" cx="334.47" cy="1360.43" r="4.12"/>
    <circle class="cls-3" cx="350.95" cy="1360.43" r="4.12"/>
    <circle class="cls-3" cx="367.43" cy="1360.43" r="4.12"/>
    <circle class="cls-3" cx="383.91" cy="1360.43" r="4.12"/>
    <circle class="cls-3" cx="408.64" cy="1360.43" r="4.12"/>
    <circle class="cls-3" cx="441.6" cy="1360.43" r="4.12"/>
    <circle class="cls-3" cx="499.29" cy="1360.43" r="4.12"/>
    <path class="cls-3" d="M524.01,1356.31h-8.24c-2.28,0-4.12,1.84-4.12,4.12s1.84,4.12,4.12,4.12h8.24c2.28,0,4.12-1.84,4.12-4.12s-1.84-4.12-4.12-4.12Z"/>
    <circle class="cls-3" cx="540.5" cy="1360.43" r="4.12"/>
    <circle class="cls-3" cx="565.22" cy="1360.43" r="4.12"/>
    <circle class="cls-3" cx="598.18" cy="1360.43" r="4.12"/>
    <circle class="cls-3" cx="614.67" cy="1360.43" r="4.12"/>
    <circle class="cls-3" cx="631.15" cy="1360.43" r="4.12"/>
    <path class="cls-3" d="M664.11,1356.31h-8.24c-2.28,0-4.12,1.84-4.12,4.12s1.84,4.12,4.12,4.12h8.24c2.28,0,4.12-1.84,4.12-4.12s-1.84-4.12-4.12-4.12Z"/>
    <circle class="cls-3" cx="697.08" cy="1360.43" r="4.12"/>
    <path class="cls-3" d="M738.28,1356.31h-8.24c-2.28,0-4.12,1.84-4.12,4.12s1.84,4.12,4.12,4.12h8.24c2.28,0,4.12-1.84,4.12-4.12s-1.84-4.12-4.12-4.12Z"/>
    <circle class="cls-3" cx="771.25" cy="1360.43" r="4.12"/>
    <circle class="cls-3" cx="828.94" cy="1360.43" r="4.12"/>
    <circle class="cls-3" cx="861.9" cy="1360.43" r="4.12"/>
    <circle class="cls-3" cx="136.68" cy="1385.15" r="4.12"/>
    <circle class="cls-3" cx="153.16" cy="1385.15" r="4.12"/>
    <circle class="cls-3" cx="186.13" cy="1385.15" r="4.12"/>
    <circle class="cls-3" cx="202.61" cy="1385.15" r="4.12"/>
    <circle class="cls-3" cx="219.09" cy="1385.15" r="4.12"/>
    <path class="cls-3" d="M260.3,1381.03h-16.48c-2.28,0-4.12,1.84-4.12,4.12s1.84,4.12,4.12,4.12h16.48c2.28,0,4.12-1.84,4.12-4.12s-1.84-4.12-4.12-4.12Z"/>
    <circle class="cls-3" cx="293.26" cy="1385.15" r="4.12"/>
    <circle class="cls-3" cx="350.95" cy="1385.15" r="4.12"/>
    <circle class="cls-3" cx="383.91" cy="1385.15" r="4.12"/>
    <circle class="cls-3" cx="400.4" cy="1385.15" r="4.12"/>
    <circle class="cls-3" cx="416.88" cy="1385.15" r="4.12" transform="translate(-1022.37 1240.22) rotate(-67.5)"/>
    <path class="cls-3" d="M458.08,1381.03h-16.48c-2.28,0-4.12,1.84-4.12,4.12s1.84,4.12,4.12,4.12h16.48c2.28,0,4.12-1.84,4.12-4.12s-1.84-4.12-4.12-4.12Z"/>
    <circle class="cls-3" cx="491.05" cy="1385.15" r="4.12"/>
    <circle class="cls-3" cx="548.74" cy="1385.15" r="4.12"/>
    <path class="cls-3" d="M581.7,1381.03h-8.24c-2.28,0-4.12,1.84-4.12,4.12s1.84,4.12,4.12,4.12h8.24c2.28,0,4.12-1.84,4.12-4.12s-1.84-4.12-4.12-4.12Z"/>
    <circle class="cls-3" cx="598.18" cy="1385.15" r="4.12"/>
    <circle class="cls-3" cx="614.67" cy="1385.15" r="4.12"/>
    <circle class="cls-3" cx="664.11" cy="1385.15" r="4.12"/>
    <circle class="cls-3" cx="680.59" cy="1385.15" r="4.12"/>
    <circle class="cls-3" cx="705.32" cy="1385.15" r="4.12"/>
    <circle class="cls-3" cx="730.04" cy="1385.15" r="4.12"/>
    <circle class="cls-3" cx="746.52" cy="1385.15" r="4.12"/>
    <path class="cls-3" d="M779.49,1381.03h-8.24c-2.28,0-4.12,1.84-4.12,4.12s1.84,4.12,4.12,4.12h8.24c2.28,0,4.12-1.84,4.12-4.12s-1.84-4.12-4.12-4.12Z"/>
    <circle class="cls-3" cx="820.69" cy="1385.15" r="4.12"/>
    <circle class="cls-3" cx="136.68" cy="1409.87" r="4.12"/>
    <path class="cls-3" d="M177.88,1405.75h-16.48c-2.28,0-4.12,1.84-4.12,4.12s1.84,4.12,4.12,4.12h16.48c2.28,0,4.12-1.84,4.12-4.12s-1.84-4.12-4.12-4.12Z"/>
    <circle class="cls-3" cx="202.61" cy="1409.87" r="4.12"/>
    <circle class="cls-3" cx="252.06" cy="1409.87" r="4.12"/>
    <circle class="cls-3" cx="268.54" cy="1409.87" r="4.12"/>
    <circle class="cls-3" cx="317.98" cy="1409.87" r="4.12"/>
    <circle class="cls-3" cx="334.47" cy="1409.87" r="4.12"/>
    <circle class="cls-3" cx="350.95" cy="1409.87" r="4.12"/>
    <circle class="cls-3" cx="375.67" cy="1409.87" r="4.12"/>
    <circle class="cls-3" cx="408.64" cy="1409.87" r="4.12"/>
    <circle class="cls-3" cx="466.33" cy="1409.87" r="4.12"/>
    <circle class="cls-3" cx="482.81" cy="1409.87" r="4.12"/>
    <circle class="cls-3" cx="499.29" cy="1409.87" r="4.12"/>
    <circle class="cls-3" cx="532.25" cy="1409.87" r="4.12"/>
    <path class="cls-3" d="M581.7,1405.75h-24.72c-2.28,0-4.12,1.84-4.12,4.12s1.84,4.12,4.12,4.12h24.72c2.28,0,4.12-1.84,4.12-4.12s-1.84-4.12-4.12-4.12Z"/>
    <circle class="cls-3" cx="598.18" cy="1409.87" r="4.12"/>
    <path class="cls-3" d="M647.63,1405.75h-24.72c-2.28,0-4.12,1.84-4.12,4.12s1.84,4.12,4.12,4.12h24.72c2.28,0,4.12-1.84,4.12-4.12s-1.84-4.12-4.12-4.12Z"/>
    <circle class="cls-3" cx="664.11" cy="1409.87" r="4.12"/>
    <path class="cls-3" d="M705.32,1405.75h-16.48c-2.28,0-4.12,1.84-4.12,4.12s1.84,4.12,4.12,4.12h16.48c2.28,0,4.12-1.84,4.12-4.12s-1.84-4.12-4.12-4.12Z"/>
    <circle class="cls-3" cx="730.04" cy="1409.87" r="4.12"/>
    <circle class="cls-3" cx="795.97" cy="1409.87" r="4.12"/>
    <circle class="cls-3" cx="845.42" cy="1409.87" r="4.12"/>
    <circle class="cls-3" cx="861.9" cy="1409.87" r="4.12"/>
    <circle class="cls-3" cx="136.68" cy="1434.6" r="4.12"/>
    <circle class="cls-3" cx="153.16" cy="1434.6" r="4.12"/>
    <circle class="cls-3" cx="169.64" cy="1434.6" r="4.12"/>
    <circle class="cls-3" cx="186.13" cy="1434.6" r="4.12"/>
    <circle class="cls-3" cx="202.61" cy="1434.6" r="4.12"/>
    <circle class="cls-3" cx="219.09" cy="1434.6" r="4.12"/>
    <circle class="cls-3" cx="252.06" cy="1434.6" r="4.12"/>
    <path class="cls-3" d="M301.5,1430.48h-24.72c-2.28,0-4.12,1.84-4.12,4.12s1.84,4.12,4.12,4.12h24.72c2.28,0,4.12-1.84,4.12-4.12s-1.84-4.12-4.12-4.12Z"/>
    <circle class="cls-3" cx="317.98" cy="1434.6" r="4.12"/>
    <path class="cls-3" d="M350.95,1430.48h-8.24c-2.28,0-4.12,1.84-4.12,4.12s1.84,4.12,4.12,4.12h8.24c2.28,0,4.12-1.84,4.12-4.12s-1.84-4.12-4.12-4.12Z"/>
    <circle class="cls-3" cx="367.43" cy="1434.6" r="4.12"/>
    <circle class="cls-3" cx="383.91" cy="1434.6" r="4.12"/>
    <circle class="cls-3" cx="433.36" cy="1434.6" r="4.12"/>
    <circle class="cls-3" cx="449.84" cy="1434.6" r="4.12"/>
    <circle class="cls-3" cx="466.33" cy="1434.6" r="4.12"/>
    <circle class="cls-3" cx="482.81" cy="1434.6" r="4.12"/>
    <circle class="cls-3" cx="515.77" cy="1434.6" r="4.12"/>
    <path class="cls-3" d="M565.22,1430.48h-24.72c-2.28,0-4.12,1.84-4.12,4.12s1.84,4.12,4.12,4.12h24.72c2.28,0,4.12-1.84,4.12-4.12s-1.84-4.12-4.12-4.12Z"/>
    <circle class="cls-3" cx="581.7" cy="1434.6" r="4.12"/>
    <path class="cls-3" d="M622.91,1430.48h-16.48c-2.28,0-4.12,1.84-4.12,4.12s1.84,4.12,4.12,4.12h16.48c2.28,0,4.12-1.84,4.12-4.12s-1.84-4.12-4.12-4.12Z"/>
    <circle class="cls-3" cx="655.87" cy="1434.6" r="4.12"/>
    <path class="cls-3" d="M688.84,1430.48h-16.48c-2.28,0-4.12,1.84-4.12,4.12s1.84,4.12,4.12,4.12h16.48c2.28,0,4.12-1.84,4.12-4.12s-1.84-4.12-4.12-4.12Z"/>
    <circle class="cls-3" cx="713.56" cy="1434.6" r="4.12"/>
    <circle class="cls-3" cx="754.77" cy="1434.6" r="4.12"/>
    <circle class="cls-3" cx="779.49" cy="1434.6" r="4.12"/>
    <circle class="cls-3" cx="812.45" cy="1434.6" r="4.12"/>
    <circle class="cls-3" cx="828.94" cy="1434.6" r="4.12"/>
  </g>
  <rect class="cls-3" x="800.09" y="709.54" width="28.35" height="28.35"/>
  <g>
    <path class="cls-3" d="M878.49,195.02c-13.76,0-26.33,7.83-32.4,20.18l-19.96,40.63c-5.22,10.63-17.35,15.95-28.71,12.58L208.79,93.94c-12.93-3.83-25.9,5.86-25.9,19.34v529.23c0,11.14,9.03,20.17,20.17,20.17h634.15c42.73,0,77.37-34.64,77.37-77.37V231.11c0-19.94-16.16-36.1-36.1-36.1ZM877.38,464.25h-257.95v28.35h-11.34v-39.68h-113.39v11.34H225.41v-247.99c0-13.48,12.4-23.55,25.59-20.78l609.5,127.76c9.84,2.06,16.88,10.73,16.88,20.78v120.24Z"/>
    <rect class="cls-3" x="199.9" y="152.44" width="11.34" height="85.04"/>
    <rect class="cls-3" x="199.9" y="427.98" width="11.34" height="85.04"/>
    <path class="cls-3" d="M336.13,541.36c0-16.25-13.68-29.31-30.16-28.29-14.19.88-25.71,12.49-26.49,26.69-.6,10.95,5.01,20.63,13.63,25.86,3,1.82,4.75,5.16,4.75,8.67v20.72c0,5.48,4.44,9.92,9.92,9.92h0c5.48,0,9.92-4.44,9.92-9.92v-20.93c0-3.51,1.88-6.7,4.87-8.53,8.13-4.98,13.55-13.95,13.55-24.18Z"/>
    <path class="cls-3" d="M421.97,541.36c0-16.25-13.68-29.31-30.16-28.29-14.19.88-25.71,12.49-26.49,26.69-.6,10.95,5.01,20.63,13.63,25.86,3,1.82,4.75,5.16,4.75,8.67v20.72c0,5.48,4.44,9.92,9.92,9.92h0c5.48,0,9.92-4.44,9.92-9.92v-20.93c0-3.51,1.88-6.7,4.87-8.53,8.13-4.98,13.55-13.95,13.55-24.18Z"/>
    <path class="cls-3" d="M507.82,541.36c0-16.25-13.68-29.31-30.16-28.29-14.19.88-25.71,12.49-26.49,26.69-.6,10.95,5.01,20.63,13.63,25.86,3,1.82,4.75,5.16,4.75,8.67v20.72c0,5.48,4.44,9.92,9.92,9.92h0c5.48,0,9.92-4.44,9.92-9.92v-20.93c0-3.51,1.88-6.7,4.87-8.53,8.13-4.98,13.55-13.95,13.55-24.18Z"/>
    <path class="cls-3" d="M593.67,541.36c0-16.25-13.68-29.31-30.16-28.29-14.19.88-25.71,12.49-26.49,26.69-.6,10.95,5.01,20.63,13.63,25.86,3,1.82,4.75,5.16,4.75,8.67v20.72c0,5.48,4.44,9.92,9.92,9.92h0c5.48,0,9.92-4.44,9.92-9.92v-20.93c0-3.51,1.88-6.7,4.87-8.53,8.13-4.98,13.55-13.95,13.55-24.18Z"/>
    <path class="cls-3" d="M774.97,541.36c0-16.25-13.68-29.31-30.16-28.29-14.19.88-25.71,12.49-26.49,26.69-.6,10.95,5.01,20.63,13.63,25.86,3,1.82,4.75,5.16,4.75,8.67v20.72c0,5.48,4.44,9.92,9.92,9.92h0c5.48,0,9.92-4.44,9.92-9.92v-20.93c0-3.51,1.88-6.7,4.87-8.53,8.13-4.98,13.55-13.95,13.55-24.18Z"/>
    <path class="cls-3" d="M861.5,541.36c0-16.25-13.68-29.31-30.16-28.29-14.19.88-25.71,12.49-26.49,26.69-.6,10.95,5.01,20.63,13.63,25.86,3,1.82,4.75,5.16,4.75,8.67v20.72c0,5.48,4.44,9.92,9.92,9.92h0c5.48,0,9.92-4.44,9.92-9.92v-20.93c0-3.51,1.88-6.7,4.87-8.53,8.13-4.98,13.55-13.95,13.55-24.18Z"/>
  </g>
  <path class="cls-3" d="M1652.82,856.38c-13.8.15-26.23,8.43-32.32,20.82l-19.65,39.99c-5.22,10.63-17.35,15.95-28.71,12.58l-567.67-168.26c-3.08-.91-6.18,1.4-6.18,4.61v22.92h-11.34v-29.13c0-2.13-1.4-4.01-3.44-4.61h0c-12.93-3.83-25.9,5.86-25.9,19.34v529.23c0,11.14,9.03,20.17,20.17,20.17h634.15c42.73,0,77.37-34.64,77.37-77.37v-354.2c0-20.07-16.38-36.31-36.49-36.09ZM985.97,1174.38h-11.34v-85.04h11.34v85.04ZM985.97,898.85h-11.34v-85.04h11.34v85.04ZM1097.3,1226.91c-2.99,1.83-4.87,5.03-4.87,8.53v20.93c0,5.48-4.44,9.92-9.92,9.92s-9.92-4.44-9.92-9.92v-20.72c0-3.51-1.75-6.85-4.75-8.67-8.62-5.22-14.23-14.91-13.63-25.86.78-14.2,12.3-25.81,26.49-26.69,16.48-1.02,30.16,12.04,30.16,28.29,0,10.23-5.42,19.2-13.55,24.18ZM1183.15,1226.91c-2.99,1.83-4.87,5.03-4.87,8.53v20.93c0,5.48-4.44,9.92-9.92,9.92s-9.92-4.44-9.92-9.92v-20.72c0-3.51-1.75-6.85-4.75-8.67-8.62-5.22-14.23-14.91-13.63-25.86.78-14.2,12.3-25.81,26.49-26.69,16.48-1.02,30.16,12.04,30.16,28.29,0,10.23-5.42,19.2-13.55,24.18ZM1268.99,1226.91c-2.99,1.83-4.87,5.03-4.87,8.53v20.93c0,5.48-4.44,9.92-9.92,9.92s-9.92-4.44-9.92-9.92v-20.72c0-3.51-1.75-6.85-4.75-8.67-8.62-5.22-14.23-14.91-13.63-25.86.78-14.2,12.3-25.81,26.49-26.69,16.48-1.02,30.16,12.04,30.16,28.29,0,10.23-5.42,19.2-13.55,24.18ZM1354.84,1226.91c-2.99,1.83-4.87,5.03-4.87,8.53v20.93c0,5.48-4.44,9.92-9.92,9.92s-9.92-4.44-9.92-9.92v-20.72c0-3.51-1.75-6.85-4.75-8.67-8.62-5.22-14.23-14.91-13.63-25.86.78-14.2,12.3-25.81,26.49-26.69,16.48-1.02,30.16,12.04,30.16,28.29,0,10.23-5.42,19.2-13.55,24.18ZM1536.14,1226.91c-2.99,1.83-4.87,5.03-4.87,8.53v20.93c0,5.48-4.44,9.92-9.92,9.92s-9.92-4.44-9.92-9.92v-20.72c0-3.51-1.75-6.85-4.75-8.67-8.62-5.22-14.23-14.91-13.63-25.86.78-14.2,12.3-25.81,26.49-26.69,16.48-1.02,30.16,12.04,30.16,28.29,0,10.23-5.42,19.2-13.55,24.18ZM1622.68,1226.91c-2.99,1.83-4.87,5.03-4.87,8.53v20.93c0,5.48-4.44,9.92-9.92,9.92h0c-5.48,0-9.92-4.44-9.92-9.92v-20.72c0-3.51-1.75-6.85-4.75-8.67-8.62-5.22-14.23-14.91-13.63-25.86.78-14.2,12.3-25.81,26.49-26.69,16.48-1.02,30.16,12.04,30.16,28.29,0,10.23-5.42,19.2-13.55,24.18ZM1652.11,1125.62h-257.95v28.35h-11.34v-39.68h-113.39v11.34h-269.29v-247.99c0-13.48,12.4-23.55,25.59-20.78l609.5,127.76c9.84,2.06,16.88,10.73,16.88,20.78v120.24Z"/>
  <g>
    <rect class="cls-3" x="35.96" y="1116.34" width="113.39" height="11.34" transform="translate(1214.66 1029.36) rotate(90)"/>
    <rect class="cls-3" x="841" y="1116.34" width="113.39" height="11.34" transform="translate(2019.7 224.32) rotate(90)"/>
    <path class="cls-3" d="M916.82,781.9h-9.91c-1.96,0-3.55,1.59-3.55,3.55v10.62h-11.34v-10.62c0-1.96-1.59-3.55-3.55-3.55h-336.61v-11.34h7.09c3.91,0,7.09-3.17,7.09-7.09h0c0-3.91-3.17-7.09-7.09-7.09h-127.56c-3.91,0-7.09,3.17-7.09,7.09h0c0,3.91,3.17,7.09,7.09,7.09h7.09v11.34H101.87c-1.96,0-3.55,1.59-3.55,3.55v10.62h-11.34v-10.62c0-1.96-1.59-3.55-3.55-3.55h-9.91c-1.96,0-3.55,1.59-3.55,3.55v673.22c0,1.96,1.59,3.55,3.55,3.55h9.91c1.96,0,3.55-1.59,3.55-3.55v-10.62h11.34v10.62c0,1.96,1.59,3.55,3.55,3.55h786.6c1.96,0,3.55-1.59,3.55-3.55v-10.62h11.34v10.62c0,1.96,1.59,3.55,3.55,3.55h9.91c1.96,0,3.55-1.59,3.55-3.55v-673.22c0-1.96-1.59-3.55-3.55-3.55Z"/>
  </g>
  <path class="cls-3" d="M1521.44,267.5h-300.67c-30.87,0-55.89,25.02-55.89,55.89h0c0,14.25,5.44,27.96,15.22,38.33l127.12,134.87c4.64,4.93,7.23,11.44,7.23,18.22v24.65h113.31v-24.65c0-6.77,2.59-13.29,7.23-18.22l127.12-134.87c9.77-10.37,15.22-24.08,15.22-38.33h0c0-30.87-25.02-55.89-55.89-55.89Z"/>
</svg>