<svg xmlns="http://www.w3.org/2000/svg" width="900mm" height="600mm" viewBox="0 0 2551.18 1700.79">
  <defs>
    <style>
      .cls-1, .cls-2, .cls-3, .cls-4, .cls-5 {
        fill: none;
      }

      .cls-1, .cls-2, .cls-3 {
        stroke: #231f20;
      }

      .cls-1, .cls-2, .cls-3, .cls-4 {
        stroke-miterlimit: 10;
      }

      .cls-2 {
        stroke-width: 1.22px;
      }

      .cls-3 {
        stroke-width: 0.83px;
      }

      .cls-4 {
        stroke: #ec1e24;
      }

      .cls-4, .cls-5 {
        stroke-width: 0.5px;
      }

      .cls-5 {
        stroke: red;
      }
    </style>
  </defs>
  <title>laptopstand</title>
  <g id="Layer_1" data-name="Layer 1">
    <path class="cls-1" d="M2186.28,262.79a8.51,8.51,0,0,0,8.51-8.51V152.19a17,17,0,0,0-17-17h-11.39V64.36h-793.7v70.87h-11.39a17,17,0,0,0-17,17V254.28a8.51,8.51,0,1,0,17,0V234.44h11.34V424.59h-11.39a17,17,0,0,0-17,17V543.64a8.51,8.51,0,1,0,17,0V523.8h11.34v28.35h793.7V523.8h11.34v19.84a8.51,8.51,0,1,0,17,0V441.55a17,17,0,0,0-17-17h-11.39V234.44h11.34v19.84A8.51,8.51,0,0,0,2186.28,262.79Zm-58.66,186.09A67.11,67.11,0,0,1,2060.51,516H1478.67a67.11,67.11,0,0,1-67.11-67.11V167.63a67.11,67.11,0,0,1,67.11-67.11h581.84a67.11,67.11,0,0,1,67.11,67.11Z"/>
    <path class="cls-1" d="M1601.23,238.42a28.35,28.35,0,0,0-10.09,54,4.39,4.39,0,0,0,6.25-4v-22.3h11.34v22.3a4.4,4.4,0,0,0,6.2,4,28.35,28.35,0,0,0-13.7-54Z"/>
    <path class="cls-1" d="M1601.23,320.58a28.35,28.35,0,0,0-10.09,54,4.4,4.4,0,0,0,6.25-4V348.29h11.34V370.6a4.39,4.39,0,0,0,6.2,4,28.35,28.35,0,0,0-13.7-54Z"/>
    <g>
      <path class="cls-1" d="M710.38,69.92l5,16.48a4.52,4.52,0,0,0,3.58,3.15l9.93,1.66L906.06,689.13l-10.62,5.55-9.42,3.9a89.19,89.19,0,0,1-34.2,6.81h0a6.9,6.9,0,0,0-6.89,6.9v.27a6.92,6.92,0,0,0,6.92,6.92H1285a12.21,12.21,0,0,0,12.21-12.21V76.3A12.21,12.21,0,0,0,1285,64.08H714.71A4.53,4.53,0,0,0,710.38,69.92Z"/>
      <rect class="cls-1" x="1101.39" y="673.91" width="11.34" height="19.84"/>
      <rect class="cls-1" x="1101.39" y="117.3" width="11.34" height="19.84"/>
      <rect class="cls-1" x="1101.39" y="83.76" width="141.73" height="11.34"/>
      <rect class="cls-1" x="812.03" y="83.76" width="141.73" height="11.34"/>
      <g>
        <path class="cls-1" d="M1259.91,319.8V159.38A37.42,37.42,0,0,0,1222.49,122h-48.57a37.41,37.41,0,0,0-37.42,37.41V319.8a20.9,20.9,0,0,0,20.9,20.9H1239A20.9,20.9,0,0,0,1259.91,319.8Z"/>
        <path class="cls-1" d="M1136.5,494V651.47a37.42,37.42,0,0,0,37.42,37.42h48.57a37.42,37.42,0,0,0,37.42-37.42V494a20.9,20.9,0,0,0-20.9-20.9H1157.4A20.9,20.9,0,0,0,1136.5,494Z"/>
      </g>
      <rect class="cls-1" x="1101.39" y="350.21" width="11.34" height="113.39"/>
      <path class="cls-1" d="M1053.61,437.33a10,10,0,0,0-10-10h-42.72A11.34,11.34,0,0,1,989.51,416h0a11.34,11.34,0,0,1,11.34-11.34h41.43a11.33,11.33,0,0,0,11.33-11.34h0a11.33,11.33,0,0,0-11.33-11.33h-41.43a11.34,11.34,0,0,1-11.34-11.34h0a11.34,11.34,0,0,1,11.34-11.34h42.72a10,10,0,0,0,10-10.05v-2.78a10,10,0,0,0-10-10.05h-42.72a11.34,11.34,0,0,1-11.34-11.33h0a11.34,11.34,0,0,1,11.34-11.34h41.43a11.34,11.34,0,0,0,11.33-11.34h0A11.34,11.34,0,0,0,1042.28,291h-41.43a11.34,11.34,0,0,1-11.34-11.34h0a11.34,11.34,0,0,1,11.34-11.34h42.72a10,10,0,0,0,10-10v-3.46a10,10,0,0,0-10-10h-42.72a11.34,11.34,0,0,1-11.34-11.34h0a11.34,11.34,0,0,1,11.34-11.34h41.43a11.34,11.34,0,0,0,11.33-11.34h0a11.34,11.34,0,0,0-11.33-11.34h-41.43a11.34,11.34,0,0,1-11.34-11.34h0a11.34,11.34,0,0,1,11.34-11.34h42.72a10,10,0,0,0,10-10h0A44.76,44.76,0,0,0,1008.84,122H837.77a44.77,44.77,0,0,0-43,57.19L932.67,656.54a44.77,44.77,0,0,0,43,32.35h33.16a44.77,44.77,0,0,0,44.77-44.77Z"/>
      <rect class="cls-2" x="1126.9" y="401.24" width="42.52" height="11.34"/>
    </g>
    <g>
      <path class="cls-1" d="M84.46,713.65l5-16.48A4.54,4.54,0,0,1,93,694l9.92-1.66L280.14,94.43l-10.62-5.54L260.1,85a89.35,89.35,0,0,0-34.19-6.8h0a6.9,6.9,0,0,1-6.9-6.9V71a6.92,6.92,0,0,1,6.92-6.93H659.08A12.22,12.22,0,0,1,671.3,76.3v631a12.22,12.22,0,0,1-12.22,12.21H88.79A4.52,4.52,0,0,1,84.46,713.65Z"/>
      <rect class="cls-1" x="475.47" y="89.81" width="11.34" height="19.84"/>
      <rect class="cls-1" x="475.47" y="646.42" width="11.34" height="19.84"/>
      <rect class="cls-1" x="475.47" y="688.47" width="141.73" height="11.34"/>
      <rect class="cls-1" x="186.11" y="688.47" width="141.73" height="11.34"/>
      <g>
        <path class="cls-1" d="M634,463.76V624.19a37.42,37.42,0,0,1-37.41,37.42H548a37.42,37.42,0,0,1-37.42-37.42V463.76a20.91,20.91,0,0,1,20.91-20.9h81.6A20.9,20.9,0,0,1,634,463.76Z"/>
        <path class="cls-1" d="M510.58,289.55V132.1A37.42,37.42,0,0,1,548,94.68h48.58A37.41,37.41,0,0,1,634,132.1V289.55a20.89,20.89,0,0,1-20.9,20.9h-81.6A20.9,20.9,0,0,1,510.58,289.55Z"/>
      </g>
      <rect class="cls-1" x="475.47" y="319.97" width="11.34" height="113.39"/>
      <path class="cls-1" d="M427.7,346.23a10,10,0,0,1-10.05,10H374.93a11.34,11.34,0,0,0-11.34,11.34h0A11.34,11.34,0,0,0,374.93,379h41.43a11.34,11.34,0,0,1,11.34,11.34h0a11.34,11.34,0,0,1-11.34,11.34H374.93A11.34,11.34,0,0,0,363.59,413h0a11.34,11.34,0,0,0,11.34,11.34h42.72a10,10,0,0,1,10.05,10v2.79a10,10,0,0,1-10.05,10H374.93a11.34,11.34,0,0,0-11.34,11.34h0a11.34,11.34,0,0,0,11.34,11.34h41.43A11.34,11.34,0,0,1,427.7,481.2h0a11.34,11.34,0,0,1-11.34,11.34H374.93a11.34,11.34,0,0,0-11.34,11.33h0a11.34,11.34,0,0,0,11.34,11.34h42.72a10.05,10.05,0,0,1,10.05,10v3.45a10.05,10.05,0,0,1-10.05,10H374.93a11.34,11.34,0,0,0-11.34,11.34h0a11.34,11.34,0,0,0,11.34,11.34h41.43a11.34,11.34,0,0,1,11.34,11.34h0a11.34,11.34,0,0,1-11.34,11.33H374.93a11.34,11.34,0,0,0-11.34,11.34h0a11.34,11.34,0,0,0,11.34,11.34h42.72a10.05,10.05,0,0,1,10.05,10.05h0a44.78,44.78,0,0,1-44.78,44.77H211.86a44.78,44.78,0,0,1-43-57.2L306.75,127a44.78,44.78,0,0,1,43-32.34h33.16a44.77,44.77,0,0,1,44.78,44.77Z"/>
      <rect class="cls-2" x="500.98" y="370.99" width="42.52" height="11.34"/>
    </g>
    <path class="cls-3" d="M2183.07,654.47V641.79h-20V617.06a13.51,13.51,0,0,0-13.51-13.51h-22.8a7.09,7.09,0,0,0-7.09,7.09V616a3.15,3.15,0,0,0,3.16,3.16h17.52v11.34h-17.52a3.15,3.15,0,0,0-3.16,3.15v8.19h-13.29v793.79l13.29,0v8.21a3.15,3.15,0,0,0,3.16,3.15h17.52v11.34h-17.52a3.15,3.15,0,0,0-3.16,3.15v5.32a7.09,7.09,0,0,0,7.09,7.09h22.8a13.51,13.51,0,0,0,13.51-13.51v-24.79h20v-12.69a10,10,0,0,0-10-10h0a10,10,0,0,1-10-10V674.46a10,10,0,0,1,10-10h0A10,10,0,0,0,2183.07,654.47Z"/>
  </g>
  <g id="Layer_3" data-name="Layer 3">
    <path class="cls-1" d="M1133.61,782.5h0a11.06,11.06,0,0,0-11.06,11.06V825h-11.34V804.55a22.06,22.06,0,0,0-22.06-22H339.57a22.06,22.06,0,0,0-22.06,22V825H306.17V793.56a11.06,11.06,0,0,0-11.06-11.06,17.28,17.28,0,0,0-17.29,17.28v674.1a17.29,17.29,0,0,0,17.29,17.28,11.07,11.07,0,0,0,11.06-11.07v-31.45h11.34v20.46a22.06,22.06,0,0,0,22.06,22.06h749.58a22.06,22.06,0,0,0,22.06-22.06v-20.46h11.34v31.45a11.07,11.07,0,0,0,11.06,11.07h0a17.29,17.29,0,0,0,17.29-17.28V799.78A17.28,17.28,0,0,0,1133.61,782.5Z"/>
    <line class="cls-1" x1="1389.41" y1="636.72" x2="1389.41" y2="681.84"/>
    <line class="cls-1" x1="1926.15" y1="636.72" x2="1926.15" y2="681.84"/>
    <line class="cls-1" x1="1389.41" y1="1397.2" x2="1389.41" y2="1443.32"/>
    <line class="cls-1" x1="1926.15" y1="1397.2" x2="1926.15" y2="1443.32"/>
    <g>
      <path class="cls-1" d="M1556.14,717.43c-7.93,0-11.87,5.09-15.35,9.58s-6,7.43-11,7.43-7.41-2.82-11-7.43-7.41-9.58-15.35-9.58-11.88,5.09-15.35,9.58-6,7.43-11,7.43-7.41-2.82-11-7.43-7.41-9.58-15.35-9.58-11.87,5.09-15.35,9.58-6,7.43-11,7.43-7.4-2.82-11-7.43-7.41-9.58-15.35-9.58a2.77,2.77,0,0,0,0,5.54c5,0,7.41,2.82,11,7.43s7.41,9.58,15.35,9.58,11.88-5.09,15.35-9.58,6-7.43,11-7.43,7.41,2.82,11,7.43,7.41,9.58,15.35,9.58,11.87-5.09,15.35-9.58,6-7.43,11-7.43,7.41,2.82,11,7.43,7.41,9.58,15.35,9.58,11.88-5.09,15.35-9.58,6-7.43,11-7.43a2.77,2.77,0,0,0,0-5.54Z"/>
      <path class="cls-1" d="M1556.14,758.75c-7.93,0-11.87,5.09-15.35,9.58s-6,7.43-11,7.43-7.41-2.83-11-7.43-7.41-9.58-15.35-9.58-11.88,5.09-15.35,9.58-6,7.43-11,7.43-7.41-2.83-11-7.43-7.41-9.58-15.35-9.58-11.87,5.09-15.35,9.58-6,7.43-11,7.43-7.4-2.83-11-7.43-7.41-9.58-15.35-9.58a2.77,2.77,0,0,0,0,5.53c5,0,7.41,2.83,11,7.43s7.41,9.58,15.35,9.58,11.88-5.09,15.35-9.58,6-7.43,11-7.43,7.41,2.83,11,7.43,7.41,9.58,15.35,9.58,11.87-5.09,15.35-9.58,6-7.43,11-7.43,7.41,2.83,11,7.43,7.41,9.58,15.35,9.58,11.88-5.09,15.35-9.58,6-7.43,11-7.43a2.77,2.77,0,1,0,0-5.53Z"/>
      <path class="cls-1" d="M1556.14,800.06c-7.93,0-11.87,5.09-15.35,9.58s-6,7.43-11,7.43-7.41-2.82-11-7.43-7.41-9.58-15.35-9.58-11.88,5.09-15.35,9.58-6,7.43-11,7.43-7.41-2.82-11-7.43-7.41-9.58-15.35-9.58-11.87,5.09-15.35,9.58-6,7.43-11,7.43-7.4-2.82-11-7.43-7.41-9.58-15.35-9.58a2.77,2.77,0,0,0,0,5.54c5,0,7.41,2.82,11,7.43s7.41,9.58,15.35,9.58,11.88-5.09,15.35-9.58,6-7.43,11-7.43,7.41,2.82,11,7.43,7.41,9.58,15.35,9.58,11.87-5.09,15.35-9.58,6-7.43,11-7.43,7.41,2.82,11,7.43,7.41,9.58,15.35,9.58,11.88-5.09,15.35-9.58,6-7.43,11-7.43a2.77,2.77,0,0,0,0-5.54Z"/>
      <path class="cls-1" d="M1556.14,841.38c-7.93,0-11.87,5.09-15.35,9.58s-6,7.43-11,7.43-7.41-2.83-11-7.43-7.41-9.58-15.35-9.58-11.88,5.09-15.35,9.58-6,7.43-11,7.43-7.41-2.83-11-7.43-7.41-9.58-15.35-9.58-11.87,5.09-15.35,9.58-6,7.43-11,7.43-7.4-2.83-11-7.43-7.41-9.58-15.35-9.58a2.77,2.77,0,0,0,0,5.54c5,0,7.41,2.82,11,7.43s7.41,9.58,15.35,9.58,11.88-5.09,15.35-9.58,6-7.43,11-7.43,7.41,2.82,11,7.43,7.41,9.58,15.35,9.58,11.87-5.09,15.35-9.58,6-7.43,11-7.43,7.41,2.82,11,7.43,7.41,9.58,15.35,9.58,11.88-5.09,15.35-9.58,6-7.43,11-7.43a2.77,2.77,0,0,0,0-5.54Z"/>
      <path class="cls-1" d="M1556.14,882.7c-7.93,0-11.87,5.08-15.35,9.57s-6,7.43-11,7.43-7.41-2.82-11-7.43-7.41-9.57-15.35-9.57-11.88,5.08-15.35,9.57-6,7.43-11,7.43-7.41-2.82-11-7.43-7.41-9.57-15.35-9.57-11.87,5.08-15.35,9.57-6,7.43-11,7.43-7.4-2.82-11-7.43-7.41-9.57-15.35-9.57a2.77,2.77,0,0,0,0,5.53c5,0,7.41,2.83,11,7.43s7.41,9.58,15.35,9.58,11.88-5.09,15.35-9.58,6-7.43,11-7.43,7.41,2.83,11,7.43,7.41,9.58,15.35,9.58,11.87-5.09,15.35-9.58,6-7.43,11-7.43,7.41,2.83,11,7.43,7.41,9.58,15.35,9.58,11.88-5.09,15.35-9.58,6-7.43,11-7.43a2.77,2.77,0,1,0,0-5.53Z"/>
      <path class="cls-1" d="M1556.14,924c-7.93,0-11.87,5.09-15.35,9.58s-6,7.43-11,7.43-7.41-2.82-11-7.43-7.41-9.58-15.35-9.58-11.88,5.09-15.35,9.58-6,7.43-11,7.43-7.41-2.82-11-7.43-7.41-9.58-15.35-9.58-11.87,5.09-15.35,9.58-6,7.43-11,7.43-7.4-2.82-11-7.43-7.41-9.58-15.35-9.58a2.77,2.77,0,0,0,0,5.54c5,0,7.41,2.82,11,7.43s7.41,9.58,15.35,9.58,11.88-5.09,15.35-9.58,6-7.43,11-7.43,7.41,2.82,11,7.43,7.41,9.58,15.35,9.58,11.87-5.09,15.35-9.58,6-7.43,11-7.43,7.41,2.82,11,7.43,7.41,9.58,15.35,9.58,11.88-5.09,15.35-9.58,6-7.43,11-7.43a2.77,2.77,0,0,0,0-5.54Z"/>
      <path class="cls-1" d="M1556.14,965.33c-7.93,0-11.87,5.09-15.35,9.58s-6,7.43-11,7.43-7.41-2.83-11-7.43-7.41-9.58-15.35-9.58-11.88,5.09-15.35,9.58-6,7.43-11,7.43-7.41-2.83-11-7.43-7.41-9.58-15.35-9.58-11.87,5.09-15.35,9.58-6,7.43-11,7.43-7.4-2.83-11-7.43-7.41-9.58-15.35-9.58a2.77,2.77,0,0,0,0,5.54c5,0,7.41,2.82,11,7.43s7.41,9.57,15.35,9.57,11.88-5.09,15.35-9.57,6-7.43,11-7.43,7.41,2.82,11,7.43,7.41,9.57,15.35,9.57,11.87-5.09,15.35-9.57,6-7.43,11-7.43,7.41,2.82,11,7.43,7.41,9.57,15.35,9.57,11.88-5.09,15.35-9.57,6-7.43,11-7.43a2.77,2.77,0,0,0,0-5.54Z"/>
      <path class="cls-1" d="M1556.14,1006.65c-7.93,0-11.87,5.08-15.35,9.57s-6,7.43-11,7.43-7.41-2.82-11-7.43-7.41-9.57-15.35-9.57-11.88,5.08-15.35,9.57-6,7.43-11,7.43-7.41-2.82-11-7.43-7.41-9.57-15.35-9.57-11.87,5.08-15.35,9.57-6,7.43-11,7.43-7.4-2.82-11-7.43-7.41-9.57-15.35-9.57a2.77,2.77,0,0,0,0,5.53c5,0,7.41,2.83,11,7.43s7.41,9.58,15.35,9.58,11.88-5.09,15.35-9.58,6-7.43,11-7.43,7.41,2.83,11,7.43,7.41,9.58,15.35,9.58,11.87-5.09,15.35-9.58,6-7.43,11-7.43,7.41,2.83,11,7.43,7.41,9.58,15.35,9.58,11.88-5.09,15.35-9.58,6-7.43,11-7.43a2.77,2.77,0,1,0,0-5.53Z"/>
      <path class="cls-1" d="M1556.14,1048c-7.93,0-11.87,5.09-15.35,9.58s-6,7.43-11,7.43-7.41-2.82-11-7.43-7.41-9.58-15.35-9.58-11.88,5.09-15.35,9.58-6,7.43-11,7.43-7.41-2.82-11-7.43-7.41-9.58-15.35-9.58-11.87,5.09-15.35,9.58-6,7.43-11,7.43-7.4-2.82-11-7.43-7.41-9.58-15.35-9.58a2.77,2.77,0,0,0,0,5.54c5,0,7.41,2.82,11,7.43s7.41,9.58,15.35,9.58,11.88-5.09,15.35-9.58,6-7.43,11-7.43,7.41,2.82,11,7.43,7.41,9.58,15.35,9.58,11.87-5.09,15.35-9.58,6-7.43,11-7.43,7.41,2.82,11,7.43,7.41,9.58,15.35,9.58,11.88-5.09,15.35-9.58,6-7.43,11-7.43a2.77,2.77,0,0,0,0-5.54Z"/>
      <path class="cls-1" d="M1556.14,1089.28c-7.93,0-11.87,5.09-15.35,9.58s-6,7.43-11,7.43-7.41-2.83-11-7.43-7.41-9.58-15.35-9.58-11.88,5.09-15.35,9.58-6,7.43-11,7.43-7.41-2.83-11-7.43-7.41-9.58-15.35-9.58-11.87,5.09-15.35,9.58-6,7.43-11,7.43-7.4-2.83-11-7.43-7.41-9.58-15.35-9.58a2.77,2.77,0,0,0,0,5.53c5,0,7.41,2.83,11,7.43s7.41,9.58,15.35,9.58,11.88-5.09,15.35-9.58,6-7.43,11-7.43,7.41,2.83,11,7.43,7.41,9.58,15.35,9.58,11.87-5.09,15.35-9.58,6-7.43,11-7.43,7.41,2.83,11,7.43,7.41,9.58,15.35,9.58,11.88-5.09,15.35-9.58,6-7.43,11-7.43a2.77,2.77,0,1,0,0-5.53Z"/>
      <path class="cls-1" d="M1556.14,1171.91c-7.93,0-11.87,5.09-15.35,9.58s-6,7.43-11,7.43-7.41-2.82-11-7.43-7.41-9.58-15.35-9.58-11.88,5.09-15.35,9.58-6,7.43-11,7.43-7.41-2.82-11-7.43-7.41-9.58-15.35-9.58-11.87,5.09-15.35,9.58-6,7.43-11,7.43-7.4-2.82-11-7.43-7.41-9.58-15.35-9.58a2.77,2.77,0,0,0,0,5.54c5,0,7.41,2.82,11,7.43s7.41,9.58,15.35,9.58,11.88-5.09,15.35-9.58,6-7.43,11-7.43,7.41,2.82,11,7.43,7.41,9.58,15.35,9.58,11.87-5.09,15.35-9.58,6-7.43,11-7.43,7.41,2.82,11,7.43,7.41,9.58,15.35,9.58,11.88-5.09,15.35-9.58,6-7.43,11-7.43a2.77,2.77,0,0,0,0-5.54Z"/>
      <path class="cls-1" d="M1556.14,1254.54c-7.93,0-11.87,5.09-15.35,9.58s-6,7.43-11,7.43-7.41-2.82-11-7.43-7.41-9.58-15.35-9.58-11.88,5.09-15.35,9.58-6,7.43-11,7.43-7.41-2.82-11-7.43-7.41-9.58-15.35-9.58-11.87,5.09-15.35,9.58-6,7.43-11,7.43-7.4-2.82-11-7.43-7.41-9.58-15.35-9.58a2.77,2.77,0,0,0,0,5.54c5,0,7.41,2.82,11,7.43s7.41,9.58,15.35,9.58,11.88-5.09,15.35-9.58,6-7.43,11-7.43,7.41,2.82,11,7.43,7.41,9.58,15.35,9.58,11.87-5.09,15.35-9.58,6-7.43,11-7.43,7.41,2.82,11,7.43,7.41,9.58,15.35,9.58,11.88-5.09,15.35-9.58,6-7.43,11-7.43a2.77,2.77,0,0,0,0-5.54Z"/>
      <path class="cls-1" d="M1556.14,1130.59c-7.93,0-11.87,5.09-15.35,9.58s-6,7.43-11,7.43-7.41-2.82-11-7.43-7.41-9.58-15.35-9.58-11.88,5.09-15.35,9.58-6,7.43-11,7.43-7.41-2.82-11-7.43-7.41-9.58-15.35-9.58-11.87,5.09-15.35,9.58-6,7.43-11,7.43-7.4-2.82-11-7.43-7.41-9.58-15.35-9.58a2.77,2.77,0,0,0,0,5.54c5,0,7.41,2.82,11,7.43s7.41,9.58,15.35,9.58,11.88-5.09,15.35-9.58,6-7.43,11-7.43,7.41,2.82,11,7.43,7.41,9.58,15.35,9.58,11.87-5.09,15.35-9.58,6-7.43,11-7.43,7.41,2.82,11,7.43,7.41,9.58,15.35,9.58,11.88-5.09,15.35-9.58,6-7.43,11-7.43a2.77,2.77,0,0,0,0-5.54Z"/>
      <path class="cls-1" d="M1556.14,1213.23c-7.93,0-11.87,5.09-15.35,9.58s-6,7.42-11,7.42-7.41-2.82-11-7.42-7.41-9.58-15.35-9.58-11.88,5.09-15.35,9.58-6,7.42-11,7.42-7.41-2.82-11-7.42-7.41-9.58-15.35-9.58-11.87,5.09-15.35,9.58-6,7.42-11,7.42-7.4-2.82-11-7.42-7.41-9.58-15.35-9.58a2.77,2.77,0,0,0,0,5.53c5,0,7.41,2.83,11,7.43s7.41,9.58,15.35,9.58,11.88-5.09,15.35-9.58,6-7.43,11-7.43,7.41,2.83,11,7.43,7.41,9.58,15.35,9.58,11.87-5.09,15.35-9.58,6-7.43,11-7.43,7.41,2.83,11,7.43,7.41,9.58,15.35,9.58,11.88-5.09,15.35-9.58,6-7.43,11-7.43a2.77,2.77,0,1,0,0-5.53Z"/>
      <path class="cls-1" d="M1556.14,1295.86c-7.93,0-11.87,5.09-15.35,9.58s-6,7.43-11,7.43-7.41-2.83-11-7.43-7.41-9.58-15.35-9.58-11.88,5.09-15.35,9.58-6,7.43-11,7.43-7.41-2.83-11-7.43-7.41-9.58-15.35-9.58-11.87,5.09-15.35,9.58-6,7.43-11,7.43-7.4-2.83-11-7.43-7.41-9.58-15.35-9.58a2.77,2.77,0,0,0,0,5.54c5,0,7.41,2.82,11,7.43s7.41,9.57,15.35,9.57,11.88-5.08,15.35-9.57,6-7.43,11-7.43,7.41,2.82,11,7.43,7.41,9.57,15.35,9.57,11.87-5.08,15.35-9.57,6-7.43,11-7.43,7.41,2.82,11,7.43,7.41,9.57,15.35,9.57,11.88-5.08,15.35-9.57,6-7.43,11-7.43a2.77,2.77,0,0,0,0-5.54Z"/>
      <path class="cls-1" d="M1556.14,1337.18c-7.93,0-11.87,5.08-15.35,9.57s-6,7.43-11,7.43-7.41-2.82-11-7.43-7.41-9.57-15.35-9.57-11.88,5.08-15.35,9.57-6,7.43-11,7.43-7.41-2.82-11-7.43-7.41-9.57-15.35-9.57-11.87,5.08-15.35,9.57-6,7.43-11,7.43-7.4-2.82-11-7.43-7.41-9.57-15.35-9.57a2.77,2.77,0,0,0,0,5.53c5,0,7.41,2.83,11,7.43s7.41,9.58,15.35,9.58,11.88-5.09,15.35-9.58,6-7.43,11-7.43,7.41,2.83,11,7.43,7.41,9.58,15.35,9.58,11.87-5.09,15.35-9.58,6-7.43,11-7.43,7.41,2.83,11,7.43,7.41,9.58,15.35,9.58,11.88-5.09,15.35-9.58,6-7.43,11-7.43a2.77,2.77,0,1,0,0-5.53Z"/>
      <path class="cls-1" d="M1762.44,723c5,0,7.4,2.82,11,7.43s7.41,9.58,15.34,9.58,11.88-5.09,15.35-9.58,6-7.43,11-7.43,7.41,2.82,11,7.43,7.41,9.58,15.35,9.58,11.88-5.09,15.35-9.58,6-7.43,11-7.43,7.41,2.82,11,7.43S1886.09,740,1894,740s11.88-5.09,15.35-9.58,6-7.43,11-7.43a2.77,2.77,0,0,0,0-5.54c-7.94,0-11.88,5.09-15.35,9.58s-6,7.43-11,7.43-7.4-2.82-11-7.43-7.41-9.58-15.35-9.58-11.88,5.09-15.35,9.58-6,7.43-11,7.43-7.4-2.82-11-7.43-7.41-9.58-15.35-9.58-11.87,5.09-15.35,9.58-6,7.43-11,7.43-7.4-2.82-11-7.43-7.41-9.58-15.34-9.58a2.77,2.77,0,1,0,0,5.54Z"/>
      <path class="cls-1" d="M1920.36,758.75c-7.94,0-11.88,5.09-15.35,9.58s-6,7.43-11,7.43-7.4-2.83-11-7.43-7.41-9.58-15.35-9.58-11.88,5.09-15.35,9.58-6,7.43-11,7.43-7.4-2.83-11-7.43-7.41-9.58-15.35-9.58-11.87,5.09-15.35,9.58-6,7.43-11,7.43-7.4-2.83-11-7.43-7.41-9.58-15.34-9.58a2.77,2.77,0,1,0,0,5.53c5,0,7.4,2.83,11,7.43s7.41,9.58,15.34,9.58,11.88-5.09,15.35-9.58,6-7.43,11-7.43,7.41,2.83,11,7.43,7.41,9.58,15.35,9.58,11.88-5.09,15.35-9.58,6-7.43,11-7.43,7.41,2.83,11,7.43,7.41,9.58,15.35,9.58,11.88-5.09,15.35-9.58,6-7.43,11-7.43a2.77,2.77,0,0,0,0-5.53Z"/>
      <path class="cls-1" d="M1920.36,800.06c-7.94,0-11.88,5.09-15.35,9.58s-6,7.43-11,7.43-7.4-2.82-11-7.43-7.41-9.58-15.35-9.58-11.88,5.09-15.35,9.58-6,7.43-11,7.43-7.4-2.82-11-7.43-7.41-9.58-15.35-9.58-11.87,5.09-15.35,9.58-6,7.43-11,7.43-7.4-2.82-11-7.43-7.41-9.58-15.34-9.58a2.77,2.77,0,1,0,0,5.54c5,0,7.4,2.82,11,7.43s7.41,9.58,15.34,9.58,11.88-5.09,15.35-9.58,6-7.43,11-7.43,7.41,2.82,11,7.43,7.41,9.58,15.35,9.58,11.88-5.09,15.35-9.58,6-7.43,11-7.43,7.41,2.82,11,7.43,7.41,9.58,15.35,9.58,11.88-5.09,15.35-9.58,6-7.43,11-7.43a2.77,2.77,0,0,0,0-5.54Z"/>
      <path class="cls-1" d="M1920.36,841.38c-7.94,0-11.88,5.09-15.35,9.58s-6,7.43-11,7.43-7.4-2.83-11-7.43-7.41-9.58-15.35-9.58-11.88,5.09-15.35,9.58-6,7.43-11,7.43-7.4-2.83-11-7.43-7.41-9.58-15.35-9.58-11.87,5.09-15.35,9.58-6,7.43-11,7.43-7.4-2.83-11-7.43-7.41-9.58-15.34-9.58a2.77,2.77,0,0,0,0,5.54c5,0,7.4,2.82,11,7.43s7.41,9.58,15.34,9.58,11.88-5.09,15.35-9.58,6-7.43,11-7.43,7.41,2.82,11,7.43,7.41,9.58,15.35,9.58,11.88-5.09,15.35-9.58,6-7.43,11-7.43,7.41,2.82,11,7.43,7.41,9.58,15.35,9.58,11.88-5.09,15.35-9.58,6-7.43,11-7.43a2.77,2.77,0,0,0,0-5.54Z"/>
      <path class="cls-1" d="M1920.36,882.7c-7.94,0-11.88,5.08-15.35,9.57s-6,7.43-11,7.43-7.4-2.82-11-7.43-7.41-9.57-15.35-9.57-11.88,5.08-15.35,9.57-6,7.43-11,7.43-7.4-2.82-11-7.43-7.41-9.57-15.35-9.57-11.87,5.08-15.35,9.57-6,7.43-11,7.43-7.4-2.82-11-7.43-7.41-9.57-15.34-9.57a2.77,2.77,0,1,0,0,5.53c5,0,7.4,2.83,11,7.43s7.41,9.58,15.34,9.58,11.88-5.09,15.35-9.58,6-7.43,11-7.43,7.41,2.83,11,7.43,7.41,9.58,15.35,9.58,11.88-5.09,15.35-9.58,6-7.43,11-7.43,7.41,2.83,11,7.43,7.41,9.58,15.35,9.58,11.88-5.09,15.35-9.58,6-7.43,11-7.43a2.77,2.77,0,0,0,0-5.53Z"/>
      <path class="cls-1" d="M1920.36,924c-7.94,0-11.88,5.09-15.35,9.58s-6,7.43-11,7.43-7.4-2.82-11-7.43-7.41-9.58-15.35-9.58-11.88,5.09-15.35,9.58-6,7.43-11,7.43-7.4-2.82-11-7.43S1823,924,1815.07,924s-11.87,5.09-15.35,9.58-6,7.43-11,7.43-7.4-2.82-11-7.43-7.41-9.58-15.34-9.58a2.77,2.77,0,0,0,0,5.54c5,0,7.4,2.82,11,7.43s7.41,9.58,15.34,9.58,11.88-5.09,15.35-9.58,6-7.43,11-7.43,7.41,2.82,11,7.43,7.41,9.58,15.35,9.58,11.88-5.09,15.35-9.58,6-7.43,11-7.43,7.41,2.82,11,7.43,7.41,9.58,15.35,9.58,11.88-5.09,15.35-9.58,6-7.43,11-7.43a2.77,2.77,0,0,0,0-5.54Z"/>
      <path class="cls-1" d="M1920.36,965.33c-7.94,0-11.88,5.09-15.35,9.58s-6,7.43-11,7.43-7.4-2.83-11-7.43-7.41-9.58-15.35-9.58-11.88,5.09-15.35,9.58-6,7.43-11,7.43-7.4-2.83-11-7.43-7.41-9.58-15.35-9.58-11.87,5.09-15.35,9.58-6,7.43-11,7.43-7.4-2.83-11-7.43-7.41-9.58-15.34-9.58a2.77,2.77,0,0,0,0,5.54c5,0,7.4,2.82,11,7.43s7.41,9.57,15.34,9.57,11.88-5.09,15.35-9.57,6-7.43,11-7.43,7.41,2.82,11,7.43,7.41,9.57,15.35,9.57,11.88-5.09,15.35-9.57,6-7.43,11-7.43,7.41,2.82,11,7.43,7.41,9.57,15.35,9.57,11.88-5.09,15.35-9.57,6-7.43,11-7.43a2.77,2.77,0,0,0,0-5.54Z"/>
      <path class="cls-1" d="M1920.36,1006.65c-7.94,0-11.88,5.08-15.35,9.57s-6,7.43-11,7.43-7.4-2.82-11-7.43-7.41-9.57-15.35-9.57-11.88,5.08-15.35,9.57-6,7.43-11,7.43-7.4-2.82-11-7.43-7.41-9.57-15.35-9.57-11.87,5.08-15.35,9.57-6,7.43-11,7.43-7.4-2.82-11-7.43-7.41-9.57-15.34-9.57a2.77,2.77,0,1,0,0,5.53c5,0,7.4,2.83,11,7.43s7.41,9.58,15.34,9.58,11.88-5.09,15.35-9.58,6-7.43,11-7.43,7.41,2.83,11,7.43,7.41,9.58,15.35,9.58,11.88-5.09,15.35-9.58,6-7.43,11-7.43,7.41,2.83,11,7.43,7.41,9.58,15.35,9.58,11.88-5.09,15.35-9.58,6-7.43,11-7.43a2.77,2.77,0,0,0,0-5.53Z"/>
      <path class="cls-1" d="M1920.36,1048c-7.94,0-11.88,5.09-15.35,9.58s-6,7.43-11,7.43-7.4-2.82-11-7.43-7.41-9.58-15.35-9.58-11.88,5.09-15.35,9.58-6,7.43-11,7.43-7.4-2.82-11-7.43-7.41-9.58-15.35-9.58-11.87,5.09-15.35,9.58-6,7.43-11,7.43-7.4-2.82-11-7.43-7.41-9.58-15.34-9.58a2.77,2.77,0,0,0,0,5.54c5,0,7.4,2.82,11,7.43s7.41,9.58,15.34,9.58,11.88-5.09,15.35-9.58,6-7.43,11-7.43,7.41,2.82,11,7.43,7.41,9.58,15.35,9.58,11.88-5.09,15.35-9.58,6-7.43,11-7.43,7.41,2.82,11,7.43,7.41,9.58,15.35,9.58,11.88-5.09,15.35-9.58,6-7.43,11-7.43a2.77,2.77,0,0,0,0-5.54Z"/>
      <path class="cls-1" d="M1920.36,1089.28c-7.94,0-11.88,5.09-15.35,9.58s-6,7.43-11,7.43-7.4-2.83-11-7.43-7.41-9.58-15.35-9.58-11.88,5.09-15.35,9.58-6,7.43-11,7.43-7.4-2.83-11-7.43-7.41-9.58-15.35-9.58-11.87,5.09-15.35,9.58-6,7.43-11,7.43-7.4-2.83-11-7.43-7.41-9.58-15.34-9.58a2.77,2.77,0,1,0,0,5.53c5,0,7.4,2.83,11,7.43s7.41,9.58,15.34,9.58,11.88-5.09,15.35-9.58,6-7.43,11-7.43,7.41,2.83,11,7.43,7.41,9.58,15.35,9.58,11.88-5.09,15.35-9.58,6-7.43,11-7.43,7.41,2.83,11,7.43,7.41,9.58,15.35,9.58,11.88-5.09,15.35-9.58,6-7.43,11-7.43a2.77,2.77,0,0,0,0-5.53Z"/>
      <path class="cls-1" d="M1920.36,1171.91c-7.94,0-11.88,5.09-15.35,9.58s-6,7.43-11,7.43-7.4-2.82-11-7.43-7.41-9.58-15.35-9.58-11.88,5.09-15.35,9.58-6,7.43-11,7.43-7.4-2.82-11-7.43-7.41-9.58-15.35-9.58-11.87,5.09-15.35,9.58-6,7.43-11,7.43-7.4-2.82-11-7.43-7.41-9.58-15.34-9.58a2.77,2.77,0,0,0,0,5.54c5,0,7.4,2.82,11,7.43s7.41,9.58,15.34,9.58,11.88-5.09,15.35-9.58,6-7.43,11-7.43,7.41,2.82,11,7.43,7.41,9.58,15.35,9.58,11.88-5.09,15.35-9.58,6-7.43,11-7.43,7.41,2.82,11,7.43,7.41,9.58,15.35,9.58,11.88-5.09,15.35-9.58,6-7.43,11-7.43a2.77,2.77,0,0,0,0-5.54Z"/>
      <path class="cls-1" d="M1920.36,1254.54c-7.94,0-11.88,5.09-15.35,9.58s-6,7.43-11,7.43-7.4-2.82-11-7.43-7.41-9.58-15.35-9.58-11.88,5.09-15.35,9.58-6,7.43-11,7.43-7.4-2.82-11-7.43-7.41-9.58-15.35-9.58-11.87,5.09-15.35,9.58-6,7.43-11,7.43-7.4-2.82-11-7.43-7.41-9.58-15.34-9.58a2.77,2.77,0,0,0,0,5.54c5,0,7.4,2.82,11,7.43s7.41,9.58,15.34,9.58,11.88-5.09,15.35-9.58,6-7.43,11-7.43,7.41,2.82,11,7.43,7.41,9.58,15.35,9.58,11.88-5.09,15.35-9.58,6-7.43,11-7.43,7.41,2.82,11,7.43,7.41,9.58,15.35,9.58,11.88-5.09,15.35-9.58,6-7.43,11-7.43a2.77,2.77,0,0,0,0-5.54Z"/>
      <path class="cls-1" d="M1920.36,1130.59c-7.94,0-11.88,5.09-15.35,9.58s-6,7.43-11,7.43-7.4-2.82-11-7.43-7.41-9.58-15.35-9.58-11.88,5.09-15.35,9.58-6,7.43-11,7.43-7.4-2.82-11-7.43-7.41-9.58-15.35-9.58-11.87,5.09-15.35,9.58-6,7.43-11,7.43-7.4-2.82-11-7.43-7.41-9.58-15.34-9.58a2.77,2.77,0,1,0,0,5.54c5,0,7.4,2.82,11,7.43s7.41,9.58,15.34,9.58,11.88-5.09,15.35-9.58,6-7.43,11-7.43,7.41,2.82,11,7.43,7.41,9.58,15.35,9.58,11.88-5.09,15.35-9.58,6-7.43,11-7.43,7.41,2.82,11,7.43,7.41,9.58,15.35,9.58,11.88-5.09,15.35-9.58,6-7.43,11-7.43a2.77,2.77,0,0,0,0-5.54Z"/>
      <path class="cls-1" d="M1920.36,1213.23c-7.94,0-11.88,5.09-15.35,9.58s-6,7.42-11,7.42-7.4-2.82-11-7.42-7.41-9.58-15.35-9.58-11.88,5.09-15.35,9.58-6,7.42-11,7.42-7.4-2.82-11-7.42-7.41-9.58-15.35-9.58-11.87,5.09-15.35,9.58-6,7.42-11,7.42-7.4-2.82-11-7.42-7.41-9.58-15.34-9.58a2.77,2.77,0,1,0,0,5.53c5,0,7.4,2.83,11,7.43s7.41,9.58,15.34,9.58,11.88-5.09,15.35-9.58,6-7.43,11-7.43,7.41,2.83,11,7.43,7.41,9.58,15.35,9.58,11.88-5.09,15.35-9.58,6-7.43,11-7.43,7.41,2.83,11,7.43,7.41,9.58,15.35,9.58,11.88-5.09,15.35-9.58,6-7.43,11-7.43a2.77,2.77,0,0,0,0-5.53Z"/>
      <path class="cls-1" d="M1920.36,1295.86c-7.94,0-11.88,5.09-15.35,9.58s-6,7.43-11,7.43-7.4-2.83-11-7.43-7.41-9.58-15.35-9.58-11.88,5.09-15.35,9.58-6,7.43-11,7.43-7.4-2.83-11-7.43-7.41-9.58-15.35-9.58-11.87,5.09-15.35,9.58-6,7.43-11,7.43-7.4-2.83-11-7.43-7.41-9.58-15.34-9.58a2.77,2.77,0,1,0,0,5.54c5,0,7.4,2.82,11,7.43s7.41,9.57,15.34,9.57,11.88-5.08,15.35-9.57,6-7.43,11-7.43,7.41,2.82,11,7.43,7.41,9.57,15.35,9.57,11.88-5.08,15.35-9.57,6-7.43,11-7.43,7.41,2.82,11,7.43,7.41,9.57,15.35,9.57,11.88-5.08,15.35-9.57,6-7.43,11-7.43a2.77,2.77,0,0,0,0-5.54Z"/>
      <path class="cls-1" d="M1920.36,1337.18c-7.94,0-11.88,5.08-15.35,9.57s-6,7.43-11,7.43-7.4-2.82-11-7.43-7.41-9.57-15.35-9.57-11.88,5.08-15.35,9.57-6,7.43-11,7.43-7.4-2.82-11-7.43-7.41-9.57-15.35-9.57-11.87,5.08-15.35,9.57-6,7.43-11,7.43-7.4-2.82-11-7.43-7.41-9.57-15.34-9.57a2.77,2.77,0,1,0,0,5.53c5,0,7.4,2.83,11,7.43s7.41,9.58,15.34,9.58,11.88-5.09,15.35-9.58,6-7.43,11-7.43,7.41,2.83,11,7.43,7.41,9.58,15.35,9.58,11.88-5.09,15.35-9.58,6-7.43,11-7.43,7.41,2.83,11,7.43,7.41,9.58,15.35,9.58,11.88-5.09,15.35-9.58,6-7.43,11-7.43a2.77,2.77,0,0,0,0-5.53Z"/>
      <path class="cls-1" d="M1735.4,700.77c-7.93,0-11.87,5.09-15.35,9.58s-6,7.43-11,7.43-7.41-2.82-11-7.43-7.41-9.58-15.35-9.58-11.88,5.09-15.35,9.58-6,7.43-11,7.43-7.41-2.82-11-7.43-7.41-9.58-15.35-9.58-11.87,5.09-15.35,9.58-6,7.43-11,7.43-7.4-2.82-11-7.43-7.41-9.58-15.35-9.58a2.77,2.77,0,0,0,0,5.54c5,0,7.41,2.82,11,7.43s7.42,9.58,15.35,9.58,11.88-5.09,15.35-9.58,6-7.43,11-7.43,7.41,2.82,11,7.43,7.41,9.58,15.35,9.58,11.87-5.09,15.35-9.58,6-7.43,11-7.43,7.41,2.82,11,7.43,7.41,9.58,15.35,9.58,11.88-5.09,15.35-9.58,6-7.43,11-7.43a2.77,2.77,0,0,0,0-5.54Z"/>
      <path class="cls-1" d="M1735.4,742.09c-7.93,0-11.87,5.09-15.35,9.58s-6,7.43-11,7.43-7.41-2.83-11-7.43-7.41-9.58-15.35-9.58-11.88,5.09-15.35,9.58-6,7.43-11,7.43-7.41-2.83-11-7.43-7.41-9.58-15.35-9.58-11.87,5.09-15.35,9.58-6,7.43-11,7.43-7.4-2.83-11-7.43-7.41-9.58-15.35-9.58a2.77,2.77,0,0,0,0,5.54c5,0,7.41,2.82,11,7.43s7.42,9.57,15.35,9.57,11.88-5.08,15.35-9.57,6-7.43,11-7.43,7.41,2.82,11,7.43,7.41,9.57,15.35,9.57,11.87-5.08,15.35-9.57,6-7.43,11-7.43,7.41,2.82,11,7.43,7.41,9.57,15.35,9.57,11.88-5.08,15.35-9.57,6-7.43,11-7.43a2.77,2.77,0,0,0,0-5.54Z"/>
      <path class="cls-1" d="M1735.4,783.41c-7.93,0-11.87,5.08-15.35,9.57s-6,7.43-11,7.43-7.41-2.82-11-7.43-7.41-9.57-15.35-9.57-11.88,5.08-15.35,9.57-6,7.43-11,7.43-7.41-2.82-11-7.43-7.41-9.57-15.35-9.57-11.87,5.08-15.35,9.57-6,7.43-11,7.43-7.4-2.82-11-7.43-7.41-9.57-15.35-9.57a2.77,2.77,0,0,0,0,5.53c5,0,7.41,2.83,11,7.43s7.42,9.58,15.35,9.58,11.88-5.09,15.35-9.58,6-7.43,11-7.43,7.41,2.83,11,7.43,7.41,9.58,15.35,9.58,11.87-5.09,15.35-9.58,6-7.43,11-7.43,7.41,2.83,11,7.43,7.41,9.58,15.35,9.58,11.88-5.09,15.35-9.58,6-7.43,11-7.43a2.77,2.77,0,1,0,0-5.53Z"/>
      <path class="cls-1" d="M1735.4,824.72c-7.93,0-11.87,5.09-15.35,9.58s-6,7.43-11,7.43-7.41-2.82-11-7.43-7.41-9.58-15.35-9.58-11.88,5.09-15.35,9.58-6,7.43-11,7.43-7.41-2.82-11-7.43-7.41-9.58-15.35-9.58-11.87,5.09-15.35,9.58-6,7.43-11,7.43-7.4-2.82-11-7.43-7.41-9.58-15.35-9.58a2.77,2.77,0,0,0,0,5.54c5,0,7.41,2.82,11,7.43s7.42,9.58,15.35,9.58,11.88-5.09,15.35-9.58,6-7.43,11-7.43,7.41,2.82,11,7.43,7.41,9.58,15.35,9.58,11.87-5.09,15.35-9.58,6-7.43,11-7.43,7.41,2.82,11,7.43,7.41,9.58,15.35,9.58,11.88-5.09,15.35-9.58,6-7.43,11-7.43a2.77,2.77,0,0,0,0-5.54Z"/>
      <path class="cls-1" d="M1735.4,866c-7.93,0-11.87,5.09-15.35,9.58s-6,7.43-11,7.43-7.41-2.83-11-7.43-7.41-9.58-15.35-9.58-11.88,5.09-15.35,9.58-6,7.43-11,7.43-7.41-2.83-11-7.43-7.41-9.58-15.35-9.58-11.87,5.09-15.35,9.58-6,7.43-11,7.43-7.4-2.83-11-7.43-7.41-9.58-15.35-9.58a2.77,2.77,0,0,0,0,5.54c5,0,7.41,2.82,11,7.43s7.42,9.57,15.35,9.57,11.88-5.09,15.35-9.57,6-7.43,11-7.43,7.41,2.82,11,7.43,7.41,9.57,15.35,9.57,11.87-5.09,15.35-9.58,6-7.42,11-7.42,7.41,2.82,11,7.43,7.41,9.57,15.35,9.57,11.88-5.09,15.35-9.57,6-7.43,11-7.43a2.77,2.77,0,0,0,0-5.54Z"/>
      <path class="cls-1" d="M1735.4,907.35c-7.93,0-11.87,5.09-15.35,9.58s-6,7.43-11,7.43-7.41-2.82-11-7.43-7.41-9.58-15.35-9.58-11.88,5.09-15.35,9.58-6,7.43-11,7.43-7.41-2.82-11-7.43-7.41-9.58-15.35-9.58-11.87,5.09-15.35,9.58-6,7.43-11,7.43-7.4-2.82-11-7.43-7.41-9.58-15.35-9.58a2.77,2.77,0,0,0,0,5.54c5,0,7.41,2.82,11,7.43s7.42,9.58,15.35,9.58,11.88-5.09,15.35-9.58,6-7.43,11-7.43,7.41,2.82,11,7.43,7.41,9.58,15.35,9.58,11.87-5.09,15.35-9.58,6-7.43,11-7.43,7.41,2.82,11,7.43,7.41,9.58,15.35,9.58,11.88-5.09,15.35-9.58,6-7.43,11-7.43a2.77,2.77,0,0,0,0-5.54Z"/>
      <path class="cls-1" d="M1735.4,948.67c-7.93,0-11.87,5.09-15.35,9.58s-6,7.43-11,7.43-7.41-2.82-11-7.43-7.41-9.58-15.35-9.58-11.88,5.09-15.35,9.58-6,7.43-11,7.43-7.41-2.82-11-7.43-7.41-9.58-15.35-9.58-11.87,5.09-15.35,9.58-6,7.43-11,7.43-7.4-2.82-11-7.43-7.41-9.58-15.35-9.58a2.77,2.77,0,0,0,0,5.54c5,0,7.41,2.82,11,7.43s7.42,9.58,15.35,9.58,11.88-5.09,15.35-9.58,6-7.43,11-7.43,7.41,2.82,11,7.43,7.41,9.58,15.35,9.58,11.87-5.09,15.35-9.58,6-7.43,11-7.43,7.41,2.82,11,7.43,7.41,9.58,15.35,9.58,11.88-5.09,15.35-9.58,6-7.43,11-7.43a2.77,2.77,0,0,0,0-5.54Z"/>
      <path class="cls-1" d="M1735.4,990c-7.93,0-11.87,5.09-15.35,9.57s-6,7.43-11,7.43-7.41-2.82-11-7.43-7.41-9.57-15.35-9.57-11.88,5.09-15.35,9.57-6,7.43-11,7.43-7.41-2.82-11-7.42-7.41-9.58-15.35-9.58-11.87,5.09-15.35,9.57-6,7.43-11,7.43-7.4-2.82-11-7.43-7.41-9.57-15.35-9.57a2.77,2.77,0,0,0,0,5.53c5,0,7.41,2.83,11,7.43s7.42,9.58,15.35,9.58,11.88-5.09,15.35-9.58,6-7.43,11-7.43,7.41,2.83,11,7.43,7.41,9.58,15.35,9.58,11.87-5.09,15.35-9.58,6-7.43,11-7.43,7.41,2.83,11,7.43,7.41,9.58,15.35,9.58,11.88-5.09,15.35-9.58,6-7.43,11-7.43a2.77,2.77,0,1,0,0-5.53Z"/>
      <path class="cls-1" d="M1735.4,1031.3c-7.93,0-11.87,5.09-15.35,9.58s-6,7.43-11,7.43-7.41-2.82-11-7.43-7.41-9.58-15.35-9.58-11.88,5.09-15.35,9.58-6,7.43-11,7.43-7.41-2.82-11-7.43-7.41-9.58-15.35-9.58-11.87,5.09-15.35,9.58-6,7.43-11,7.43-7.4-2.82-11-7.43-7.41-9.58-15.35-9.58a2.77,2.77,0,0,0,0,5.54c5,0,7.41,2.82,11,7.43s7.42,9.58,15.35,9.58,11.88-5.09,15.35-9.58,6-7.43,11-7.43,7.41,2.82,11,7.43,7.41,9.58,15.35,9.58,11.87-5.09,15.35-9.58,6-7.43,11-7.43,7.41,2.82,11,7.43,7.41,9.58,15.35,9.58,11.88-5.09,15.35-9.58,6-7.43,11-7.43a2.77,2.77,0,0,0,0-5.54Z"/>
      <path class="cls-1" d="M1735.4,1072.62c-7.93,0-11.87,5.09-15.35,9.58s-6,7.43-11,7.43-7.41-2.83-11-7.43-7.41-9.58-15.35-9.58-11.88,5.09-15.35,9.58-6,7.43-11,7.43-7.41-2.83-11-7.43-7.41-9.58-15.35-9.58-11.87,5.09-15.35,9.58-6,7.43-11,7.43-7.4-2.83-11-7.43-7.41-9.58-15.35-9.58a2.77,2.77,0,0,0,0,5.54c5,0,7.41,2.82,11,7.43s7.42,9.57,15.35,9.57,11.88-5.08,15.35-9.57,6-7.43,11-7.43,7.41,2.82,11,7.43,7.41,9.57,15.35,9.57,11.87-5.08,15.35-9.57,6-7.43,11-7.43,7.41,2.82,11,7.43,7.41,9.57,15.35,9.57,11.88-5.08,15.35-9.57,6-7.43,11-7.43a2.77,2.77,0,0,0,0-5.54Z"/>
      <path class="cls-1" d="M1735.4,1155.25c-7.93,0-11.87,5.09-15.35,9.58s-6,7.43-11,7.43-7.41-2.82-11-7.43-7.41-9.58-15.35-9.58-11.88,5.09-15.35,9.58-6,7.43-11,7.43-7.41-2.82-11-7.43-7.41-9.58-15.35-9.58-11.87,5.09-15.35,9.58-6,7.43-11,7.43-7.4-2.82-11-7.43-7.41-9.58-15.35-9.58a2.77,2.77,0,0,0,0,5.54c5,0,7.41,2.82,11,7.43s7.42,9.58,15.35,9.58,11.88-5.09,15.35-9.58,6-7.43,11-7.43,7.41,2.82,11,7.43,7.41,9.58,15.35,9.58,11.87-5.09,15.35-9.58,6-7.43,11-7.43,7.41,2.82,11,7.43,7.41,9.58,15.35,9.58,11.88-5.09,15.35-9.58,6-7.43,11-7.43a2.77,2.77,0,0,0,0-5.54Z"/>
      <path class="cls-1" d="M1735.4,1237.89c-7.93,0-11.87,5.08-15.35,9.57s-6,7.43-11,7.43-7.41-2.82-11-7.43-7.41-9.57-15.35-9.57-11.88,5.08-15.35,9.57-6,7.43-11,7.43-7.41-2.82-11-7.43-7.41-9.57-15.35-9.57-11.87,5.08-15.35,9.57-6,7.43-11,7.43-7.4-2.82-11-7.43-7.41-9.57-15.35-9.57a2.77,2.77,0,0,0,0,5.53c5,0,7.41,2.83,11,7.43s7.42,9.58,15.35,9.58,11.88-5.09,15.35-9.58,6-7.43,11-7.43,7.41,2.83,11,7.43,7.41,9.58,15.35,9.58,11.87-5.09,15.35-9.58,6-7.43,11-7.43,7.41,2.83,11,7.43,7.41,9.58,15.35,9.58,11.88-5.09,15.35-9.58,6-7.43,11-7.43a2.77,2.77,0,1,0,0-5.53Z"/>
      <path class="cls-1" d="M1735.4,1113.94c-7.93,0-11.87,5.08-15.35,9.57s-6,7.43-11,7.43-7.41-2.82-11-7.43-7.41-9.57-15.35-9.57-11.88,5.08-15.35,9.57-6,7.43-11,7.43-7.41-2.82-11-7.42-7.41-9.58-15.35-9.58-11.87,5.08-15.35,9.57-6,7.43-11,7.43-7.4-2.82-11-7.43-7.41-9.57-15.35-9.57a2.77,2.77,0,0,0,0,5.53c5,0,7.41,2.83,11,7.43s7.42,9.58,15.35,9.58,11.88-5.09,15.35-9.58,6-7.43,11-7.43,7.41,2.83,11,7.43,7.41,9.58,15.35,9.58,11.87-5.09,15.35-9.58,6-7.43,11-7.43,7.41,2.83,11,7.43,7.41,9.58,15.35,9.58,11.88-5.09,15.35-9.58,6-7.43,11-7.43a2.77,2.77,0,1,0,0-5.53Z"/>
      <path class="cls-1" d="M1735.4,1196.57c-7.93,0-11.87,5.09-15.35,9.58s-6,7.43-11,7.43-7.41-2.83-11-7.43-7.41-9.58-15.35-9.58-11.88,5.09-15.35,9.58-6,7.43-11,7.43-7.41-2.83-11-7.43-7.41-9.58-15.35-9.58-11.87,5.09-15.35,9.58-6,7.43-11,7.43-7.4-2.83-11-7.43-7.41-9.58-15.35-9.58a2.77,2.77,0,0,0,0,5.54c5,0,7.41,2.82,11,7.43s7.42,9.57,15.35,9.57,11.88-5.09,15.35-9.57,6-7.43,11-7.43,7.41,2.82,11,7.43,7.41,9.57,15.35,9.57,11.87-5.09,15.35-9.58,6-7.42,11-7.42,7.41,2.82,11,7.43,7.41,9.57,15.35,9.57,11.88-5.09,15.35-9.57,6-7.43,11-7.43a2.77,2.77,0,0,0,0-5.54Z"/>
      <path class="cls-1" d="M1735.4,1279.2c-7.93,0-11.87,5.09-15.35,9.58s-6,7.43-11,7.43-7.41-2.82-11-7.43-7.41-9.58-15.35-9.58-11.88,5.09-15.35,9.58-6,7.43-11,7.43-7.41-2.82-11-7.43-7.41-9.58-15.35-9.58-11.87,5.09-15.35,9.58-6,7.43-11,7.43-7.4-2.82-11-7.43-7.41-9.58-15.35-9.58a2.77,2.77,0,0,0,0,5.54c5,0,7.41,2.82,11,7.43s7.42,9.58,15.35,9.58,11.88-5.09,15.35-9.58,6-7.43,11-7.43,7.41,2.82,11,7.43,7.41,9.58,15.35,9.58,11.87-5.09,15.35-9.58,6-7.43,11-7.43,7.41,2.82,11,7.43,7.41,9.58,15.35,9.58,11.88-5.09,15.35-9.58,6-7.43,11-7.43a2.77,2.77,0,0,0,0-5.54Z"/>
      <path class="cls-1" d="M1735.4,1320.52c-7.93,0-11.87,5.09-15.35,9.58s-6,7.43-11,7.43-7.41-2.83-11-7.43-7.41-9.58-15.35-9.58-11.88,5.09-15.35,9.58-6,7.43-11,7.43-7.41-2.83-11-7.43-7.41-9.58-15.35-9.58-11.87,5.09-15.35,9.58-6,7.43-11,7.43-7.4-2.83-11-7.43-7.41-9.58-15.35-9.58a2.77,2.77,0,0,0,0,5.54c5,0,7.41,2.82,11,7.42s7.42,9.58,15.35,9.58,11.88-5.09,15.35-9.58,6-7.42,11-7.42,7.41,2.82,11,7.42,7.41,9.58,15.35,9.58,11.87-5.09,15.35-9.58,6-7.42,11-7.42,7.41,2.82,11,7.42,7.41,9.58,15.35,9.58,11.88-5.09,15.35-9.58,6-7.42,11-7.42a2.77,2.77,0,0,0,0-5.54Z"/>
      <path class="cls-1" d="M1735.4,1361.83c-7.93,0-11.87,5.09-15.35,9.58s-6,7.43-11,7.43-7.41-2.82-11-7.43-7.41-9.58-15.35-9.58-11.88,5.09-15.35,9.58-6,7.43-11,7.43-7.41-2.82-11-7.43-7.41-9.58-15.35-9.58-11.87,5.09-15.35,9.58-6,7.43-11,7.43-7.4-2.82-11-7.43-7.41-9.58-15.35-9.58a2.77,2.77,0,0,0,0,5.54c5,0,7.41,2.82,11,7.43s7.42,9.58,15.35,9.58,11.88-5.09,15.35-9.58,6-7.43,11-7.43,7.41,2.82,11,7.43,7.41,9.58,15.35,9.58,11.87-5.09,15.35-9.58,6-7.43,11-7.43,7.41,2.82,11,7.43,7.41,9.58,15.35,9.58,11.88-5.09,15.35-9.58,6-7.43,11-7.43a2.77,2.77,0,0,0,0-5.54Z"/>
    </g>
    <g>
      <g>
        <path class="cls-1" d="M521,858c-7.93,0-11.87,5.09-15.35,9.58s-6,7.43-11,7.43-7.41-2.83-11-7.43S476.32,858,468.38,858s-11.88,5.09-15.35,9.58-6,7.43-11,7.43-7.41-2.83-11-7.43S423.68,858,415.74,858s-11.87,5.09-15.35,9.58-6,7.43-11,7.43-7.4-2.83-11-7.43S371,858,363.1,858a2.77,2.77,0,0,0,0,5.54c5,0,7.41,2.82,11,7.42s7.41,9.58,15.35,9.58,11.88-5.09,15.35-9.58,6-7.42,11-7.42,7.41,2.82,11,7.42,7.41,9.58,15.35,9.58,11.87-5.09,15.35-9.58,6-7.42,11-7.42,7.41,2.82,11,7.42,7.41,9.58,15.35,9.58,11.88-5.09,15.35-9.58,6-7.42,11-7.42a2.77,2.77,0,1,0,0-5.54Z"/>
        <path class="cls-1" d="M521,899.35c-7.93,0-11.87,5.09-15.35,9.58s-6,7.43-11,7.43-7.41-2.82-11-7.43-7.41-9.58-15.35-9.58-11.88,5.09-15.35,9.58-6,7.43-11,7.43-7.41-2.82-11-7.43-7.41-9.58-15.35-9.58-11.87,5.09-15.35,9.58-6,7.43-11,7.43-7.4-2.82-11-7.43-7.41-9.58-15.35-9.58a2.77,2.77,0,0,0,0,5.54c5,0,7.41,2.82,11,7.43s7.41,9.58,15.35,9.58,11.88-5.09,15.35-9.58,6-7.43,11-7.43,7.41,2.82,11,7.43,7.41,9.58,15.35,9.58,11.87-5.09,15.35-9.58,6-7.43,11-7.43,7.41,2.82,11,7.43,7.41,9.58,15.35,9.58,11.88-5.09,15.35-9.58,6-7.43,11-7.43a2.77,2.77,0,0,0,0-5.54Z"/>
        <path class="cls-1" d="M521,940.67c-7.93,0-11.87,5.09-15.35,9.58s-6,7.43-11,7.43-7.41-2.82-11-7.43-7.41-9.58-15.35-9.58-11.88,5.09-15.35,9.58-6,7.43-11,7.43-7.41-2.82-11-7.43-7.41-9.58-15.35-9.58-11.87,5.09-15.35,9.58-6,7.43-11,7.43-7.4-2.82-11-7.43-7.41-9.58-15.35-9.58a2.77,2.77,0,0,0,0,5.54c5,0,7.41,2.82,11,7.43s7.41,9.58,15.35,9.58,11.88-5.09,15.35-9.58,6-7.43,11-7.43,7.41,2.82,11,7.43,7.41,9.58,15.35,9.58,11.87-5.09,15.35-9.58,6-7.43,11-7.43,7.41,2.82,11,7.43,7.41,9.58,15.35,9.58,11.88-5.09,15.35-9.58,6-7.43,11-7.43a2.77,2.77,0,0,0,0-5.54Z"/>
        <path class="cls-1" d="M521,982c-7.93,0-11.87,5.09-15.35,9.58s-6,7.43-11,7.43-7.41-2.83-11-7.43S476.32,982,468.38,982s-11.88,5.09-15.35,9.58-6,7.43-11,7.43-7.41-2.83-11-7.43S423.68,982,415.74,982s-11.87,5.09-15.35,9.58-6,7.43-11,7.43-7.4-2.83-11-7.43S371,982,363.1,982a2.77,2.77,0,0,0,0,5.53c5,0,7.41,2.83,11,7.43s7.41,9.58,15.35,9.58,11.88-5.09,15.35-9.58,6-7.43,11-7.43,7.41,2.83,11,7.43,7.41,9.58,15.35,9.58,11.87-5.09,15.35-9.58,6-7.43,11-7.43,7.41,2.83,11,7.43,7.41,9.58,15.35,9.58,11.88-5.09,15.35-9.58,6-7.43,11-7.43a2.77,2.77,0,1,0,0-5.53Z"/>
        <path class="cls-1" d="M521,1023.3c-7.93,0-11.87,5.09-15.35,9.58s-6,7.43-11,7.43-7.41-2.82-11-7.43-7.41-9.58-15.35-9.58-11.88,5.09-15.35,9.58-6,7.43-11,7.43-7.41-2.82-11-7.43-7.41-9.58-15.35-9.58-11.87,5.09-15.35,9.58-6,7.43-11,7.43-7.4-2.82-11-7.43-7.41-9.58-15.35-9.58a2.77,2.77,0,0,0,0,5.54c5,0,7.41,2.82,11,7.43s7.41,9.58,15.35,9.58,11.88-5.09,15.35-9.58,6-7.43,11-7.43,7.41,2.82,11,7.43,7.41,9.58,15.35,9.58,11.87-5.09,15.35-9.58,6-7.43,11-7.43,7.41,2.82,11,7.43,7.41,9.58,15.35,9.58,11.88-5.09,15.35-9.58,6-7.43,11-7.43a2.77,2.77,0,0,0,0-5.54Z"/>
        <path class="cls-1" d="M521,1064.62c-7.93,0-11.87,5.09-15.35,9.58s-6,7.43-11,7.43-7.41-2.83-11-7.43-7.41-9.58-15.35-9.58-11.88,5.09-15.35,9.58-6,7.43-11,7.43-7.41-2.83-11-7.43-7.41-9.58-15.35-9.58-11.87,5.09-15.35,9.58-6,7.43-11,7.43-7.4-2.83-11-7.43-7.41-9.58-15.35-9.58a2.77,2.77,0,0,0,0,5.54c5,0,7.41,2.82,11,7.43s7.41,9.57,15.35,9.57,11.88-5.08,15.35-9.57,6-7.43,11-7.43,7.41,2.82,11,7.43,7.41,9.57,15.35,9.57,11.87-5.08,15.35-9.57,6-7.43,11-7.43,7.41,2.82,11,7.43,7.41,9.57,15.35,9.57,11.88-5.08,15.35-9.57,6-7.43,11-7.43a2.77,2.77,0,0,0,0-5.54Z"/>
        <path class="cls-1" d="M521,1105.94c-7.93,0-11.87,5.08-15.35,9.57s-6,7.43-11,7.43-7.41-2.82-11-7.43-7.41-9.57-15.35-9.57S456.5,1111,453,1115.51s-6,7.43-11,7.43-7.41-2.82-11-7.43-7.41-9.57-15.35-9.57-11.87,5.08-15.35,9.57-6,7.43-11,7.43-7.4-2.82-11-7.43-7.41-9.57-15.35-9.57a2.77,2.77,0,0,0,0,5.53c5,0,7.41,2.83,11,7.43s7.41,9.58,15.35,9.58,11.88-5.09,15.35-9.58,6-7.43,11-7.43,7.41,2.83,11,7.43,7.41,9.58,15.35,9.58,11.87-5.09,15.35-9.58,6-7.43,11-7.43,7.41,2.83,11,7.43,7.41,9.58,15.35,9.58,11.88-5.09,15.35-9.58,6-7.43,11-7.43a2.77,2.77,0,1,0,0-5.53Z"/>
        <path class="cls-1" d="M521,1147.25c-7.93,0-11.87,5.09-15.35,9.58s-6,7.43-11,7.43-7.41-2.82-11-7.43-7.41-9.58-15.35-9.58-11.88,5.09-15.35,9.58-6,7.43-11,7.43-7.41-2.82-11-7.43-7.41-9.58-15.35-9.58-11.87,5.09-15.35,9.58-6,7.43-11,7.43-7.4-2.82-11-7.43-7.41-9.58-15.35-9.58a2.77,2.77,0,0,0,0,5.54c5,0,7.41,2.82,11,7.43s7.41,9.58,15.35,9.58,11.88-5.09,15.35-9.58,6-7.43,11-7.43,7.41,2.82,11,7.43,7.41,9.58,15.35,9.58,11.87-5.09,15.35-9.58,6-7.43,11-7.43,7.41,2.82,11,7.43,7.41,9.58,15.35,9.58,11.88-5.09,15.35-9.58,6-7.43,11-7.43a2.77,2.77,0,0,0,0-5.54Z"/>
        <path class="cls-1" d="M521,1188.57c-7.93,0-11.87,5.09-15.35,9.58s-6,7.43-11,7.43-7.41-2.83-11-7.43-7.41-9.58-15.35-9.58-11.88,5.09-15.35,9.58-6,7.43-11,7.43-7.41-2.83-11-7.43-7.41-9.58-15.35-9.58-11.87,5.09-15.35,9.58-6,7.43-11,7.43-7.4-2.83-11-7.43-7.41-9.58-15.35-9.58a2.77,2.77,0,0,0,0,5.54c5,0,7.41,2.82,11,7.43s7.41,9.57,15.35,9.57,11.88-5.09,15.35-9.57,6-7.43,11-7.43,7.41,2.82,11,7.43,7.41,9.57,15.35,9.57,11.87-5.09,15.35-9.57,6-7.43,11-7.43,7.41,2.82,11,7.43,7.41,9.57,15.35,9.57,11.88-5.09,15.35-9.57,6-7.43,11-7.43a2.77,2.77,0,0,0,0-5.54Z"/>
        <path class="cls-1" d="M521,1229.88c-7.93,0-11.87,5.09-15.35,9.58s-6,7.43-11,7.43-7.41-2.82-11-7.43-7.41-9.58-15.35-9.58S456.5,1235,453,1239.46s-6,7.43-11,7.43-7.41-2.82-11-7.43-7.41-9.58-15.35-9.58-11.87,5.09-15.35,9.58-6,7.43-11,7.43-7.4-2.82-11-7.43-7.41-9.58-15.35-9.58a2.77,2.77,0,0,0,0,5.54c5,0,7.41,2.83,11,7.43s7.41,9.58,15.35,9.58,11.88-5.09,15.35-9.58,6-7.43,11-7.43,7.41,2.83,11,7.43,7.41,9.58,15.35,9.58,11.87-5.09,15.35-9.58,6-7.43,11-7.43,7.41,2.83,11,7.43,7.41,9.58,15.35,9.58,11.88-5.09,15.35-9.58,6-7.43,11-7.43a2.77,2.77,0,0,0,0-5.54Z"/>
        <path class="cls-1" d="M521,1312.52c-7.93,0-11.87,5.09-15.35,9.58s-6,7.43-11,7.43-7.41-2.83-11-7.43-7.41-9.58-15.35-9.58-11.88,5.09-15.35,9.58-6,7.43-11,7.43-7.41-2.83-11-7.43-7.41-9.58-15.35-9.58-11.87,5.09-15.35,9.58-6,7.43-11,7.43-7.4-2.83-11-7.43-7.41-9.58-15.35-9.58a2.77,2.77,0,0,0,0,5.53c5,0,7.41,2.83,11,7.43s7.41,9.58,15.35,9.58,11.88-5.09,15.35-9.58,6-7.43,11-7.43,7.41,2.83,11,7.43,7.41,9.58,15.35,9.58,11.87-5.09,15.35-9.58,6-7.43,11-7.43,7.41,2.83,11,7.43,7.41,9.58,15.35,9.58,11.88-5.09,15.35-9.58,6-7.43,11-7.43a2.77,2.77,0,1,0,0-5.53Z"/>
        <path class="cls-1" d="M521,1395.15c-7.93,0-11.87,5.09-15.35,9.58s-6,7.43-11,7.43-7.41-2.82-11-7.43-7.41-9.58-15.35-9.58-11.88,5.09-15.35,9.58-6,7.43-11,7.43-7.41-2.82-11-7.43-7.41-9.58-15.35-9.58-11.87,5.09-15.35,9.58-6,7.43-11,7.43-7.4-2.82-11-7.43-7.41-9.58-15.35-9.58a2.77,2.77,0,0,0,0,5.54c5,0,7.41,2.82,11,7.43s7.41,9.58,15.35,9.58,11.88-5.09,15.35-9.58,6-7.43,11-7.43,7.41,2.82,11,7.43,7.41,9.58,15.35,9.58,11.87-5.09,15.35-9.58,6-7.43,11-7.43,7.41,2.82,11,7.43,7.41,9.58,15.35,9.58,11.88-5.09,15.35-9.58,6-7.43,11-7.43a2.77,2.77,0,0,0,0-5.54Z"/>
        <path class="cls-1" d="M521,1271.2c-7.93,0-11.87,5.09-15.35,9.58s-6,7.43-11,7.43-7.41-2.82-11-7.43-7.41-9.58-15.35-9.58-11.88,5.09-15.35,9.58-6,7.43-11,7.43-7.41-2.82-11-7.43-7.41-9.58-15.35-9.58-11.87,5.09-15.35,9.58-6,7.43-11,7.43-7.4-2.82-11-7.43-7.41-9.58-15.35-9.58a2.77,2.77,0,0,0,0,5.54c5,0,7.41,2.82,11,7.43s7.41,9.58,15.35,9.58,11.88-5.09,15.35-9.58,6-7.43,11-7.43,7.41,2.82,11,7.43,7.41,9.58,15.35,9.58,11.87-5.09,15.35-9.58,6-7.43,11-7.43,7.41,2.82,11,7.43,7.41,9.58,15.35,9.58,11.88-5.09,15.35-9.58,6-7.43,11-7.43a2.77,2.77,0,0,0,0-5.54Z"/>
        <path class="cls-1" d="M521,1353.83c-7.93,0-11.87,5.09-15.35,9.58s-6,7.43-11,7.43-7.41-2.82-11-7.43-7.41-9.58-15.35-9.58-11.88,5.09-15.35,9.58-6,7.43-11,7.43-7.41-2.82-11-7.43-7.41-9.58-15.35-9.58-11.87,5.09-15.35,9.58-6,7.43-11,7.43-7.4-2.82-11-7.43-7.41-9.58-15.35-9.58a2.77,2.77,0,0,0,0,5.54c5,0,7.41,2.82,11,7.43s7.41,9.58,15.35,9.58,11.88-5.09,15.35-9.58,6-7.43,11-7.43,7.41,2.82,11,7.43,7.41,9.58,15.35,9.58,11.87-5.09,15.35-9.58,6-7.43,11-7.43,7.41,2.82,11,7.43,7.41,9.58,15.35,9.58,11.88-5.09,15.35-9.58,6-7.43,11-7.43a2.77,2.77,0,0,0,0-5.54Z"/>
      </g>
      <g>
        <path class="cls-1" d="M726.17,863.58c5,0,7.4,2.82,11,7.42s7.41,9.58,15.34,9.58,11.88-5.09,15.35-9.58,6-7.42,11-7.42,7.41,2.82,11,7.42,7.41,9.58,15.35,9.58S817,875.49,820.47,871s6-7.42,11-7.42,7.41,2.82,11,7.42,7.41,9.58,15.35,9.58,11.88-5.09,15.35-9.58,6-7.42,11-7.42a2.77,2.77,0,0,0,0-5.54c-7.94,0-11.88,5.09-15.36,9.58s-6,7.43-11,7.43-7.41-2.83-11-7.43S839.38,858,831.44,858s-11.88,5.09-15.35,9.58-6,7.43-11,7.43-7.4-2.83-11-7.43S786.74,858,778.8,858s-11.87,5.09-15.35,9.58-6,7.43-11,7.43-7.4-2.83-11-7.43S734.1,858,726.17,858a2.77,2.77,0,1,0,0,5.54Z"/>
        <path class="cls-1" d="M884.09,899.35c-7.94,0-11.88,5.09-15.36,9.58s-6,7.43-11,7.43-7.41-2.82-11-7.43-7.41-9.58-15.35-9.58-11.88,5.09-15.35,9.58-6,7.43-11,7.43-7.4-2.82-11-7.43-7.41-9.58-15.35-9.58-11.87,5.09-15.35,9.58-6,7.43-11,7.43-7.4-2.82-11-7.43-7.41-9.58-15.34-9.58a2.77,2.77,0,0,0,0,5.54c5,0,7.4,2.82,11,7.43s7.41,9.58,15.34,9.58,11.88-5.09,15.35-9.58,6-7.43,11-7.43,7.41,2.82,11,7.43,7.41,9.58,15.35,9.58,11.88-5.09,15.35-9.58,6-7.43,11-7.43,7.41,2.82,11,7.43,7.41,9.58,15.35,9.58,11.88-5.09,15.35-9.58,6-7.43,11-7.43a2.77,2.77,0,0,0,0-5.54Z"/>
        <path class="cls-1" d="M884.09,940.67c-7.94,0-11.88,5.09-15.36,9.58s-6,7.43-11,7.43-7.41-2.82-11-7.43-7.41-9.58-15.35-9.58-11.88,5.09-15.35,9.58-6,7.43-11,7.43-7.4-2.82-11-7.43-7.41-9.58-15.35-9.58-11.87,5.09-15.35,9.58-6,7.43-11,7.43-7.4-2.82-11-7.43-7.41-9.58-15.34-9.58a2.77,2.77,0,1,0,0,5.54c5,0,7.4,2.82,11,7.43s7.41,9.58,15.34,9.58,11.88-5.09,15.35-9.58,6-7.43,11-7.43,7.41,2.82,11,7.43,7.41,9.58,15.35,9.58,11.88-5.09,15.35-9.58,6-7.43,11-7.43,7.41,2.82,11,7.43,7.41,9.58,15.35,9.58,11.88-5.09,15.35-9.58,6-7.43,11-7.43a2.77,2.77,0,0,0,0-5.54Z"/>
        <path class="cls-1" d="M884.09,982c-7.94,0-11.88,5.09-15.36,9.58s-6,7.43-11,7.43-7.41-2.83-11-7.43S839.38,982,831.44,982s-11.88,5.09-15.35,9.58-6,7.43-11,7.43-7.4-2.83-11-7.43S786.74,982,778.8,982s-11.87,5.09-15.35,9.58-6,7.43-11,7.43-7.4-2.83-11-7.43S734.1,982,726.17,982a2.77,2.77,0,1,0,0,5.53c5,0,7.4,2.83,11,7.43s7.41,9.58,15.34,9.58,11.88-5.09,15.35-9.58,6-7.43,11-7.43,7.41,2.83,11,7.43,7.41,9.58,15.35,9.58S817,999.44,820.47,995s6-7.43,11-7.43,7.41,2.83,11,7.43,7.41,9.58,15.35,9.58,11.88-5.09,15.35-9.58,6-7.43,11-7.43a2.77,2.77,0,0,0,0-5.53Z"/>
        <path class="cls-1" d="M884.09,1023.3c-7.94,0-11.88,5.09-15.36,9.58s-6,7.43-11,7.43-7.41-2.82-11-7.43-7.41-9.58-15.35-9.58-11.88,5.09-15.35,9.58-6,7.43-11,7.43-7.4-2.82-11-7.43-7.41-9.58-15.35-9.58-11.87,5.09-15.35,9.58-6,7.43-11,7.43-7.4-2.82-11-7.43-7.41-9.58-15.34-9.58a2.77,2.77,0,1,0,0,5.54c5,0,7.4,2.82,11,7.43s7.41,9.58,15.34,9.58,11.88-5.09,15.35-9.58,6-7.43,11-7.43,7.41,2.82,11,7.43,7.41,9.58,15.35,9.58,11.88-5.09,15.35-9.58,6-7.43,11-7.43,7.41,2.82,11,7.43,7.41,9.58,15.35,9.58,11.88-5.09,15.35-9.58,6-7.43,11-7.43a2.77,2.77,0,0,0,0-5.54Z"/>
        <path class="cls-1" d="M884.09,1064.62c-7.94,0-11.88,5.09-15.36,9.58s-6,7.43-11,7.43-7.41-2.83-11-7.43-7.41-9.58-15.35-9.58-11.88,5.09-15.35,9.58-6,7.43-11,7.43-7.4-2.83-11-7.43-7.41-9.58-15.35-9.58-11.87,5.09-15.35,9.58-6,7.43-11,7.43-7.4-2.83-11-7.43-7.41-9.58-15.34-9.58a2.77,2.77,0,1,0,0,5.54c5,0,7.4,2.82,11,7.43s7.41,9.57,15.34,9.57,11.88-5.08,15.35-9.57,6-7.43,11-7.43,7.41,2.82,11,7.43,7.41,9.57,15.35,9.57,11.88-5.08,15.35-9.57,6-7.43,11-7.43,7.41,2.82,11,7.43,7.41,9.57,15.35,9.57,11.88-5.08,15.35-9.57,6-7.43,11-7.43a2.77,2.77,0,0,0,0-5.54Z"/>
        <path class="cls-1" d="M884.09,1105.94c-7.94,0-11.88,5.08-15.36,9.57s-6,7.43-11,7.43-7.41-2.82-11-7.43-7.41-9.57-15.35-9.57-11.88,5.08-15.35,9.57-6,7.43-11,7.43-7.4-2.82-11-7.43-7.41-9.57-15.35-9.57-11.87,5.08-15.35,9.57-6,7.43-11,7.43-7.4-2.82-11-7.43-7.41-9.57-15.34-9.57a2.77,2.77,0,1,0,0,5.53c5,0,7.4,2.83,11,7.43s7.41,9.58,15.34,9.58,11.88-5.09,15.35-9.58,6-7.43,11-7.43,7.41,2.83,11,7.43,7.41,9.58,15.35,9.58,11.88-5.09,15.35-9.58,6-7.43,11-7.43,7.41,2.83,11,7.43,7.41,9.58,15.35,9.58,11.88-5.09,15.35-9.58,6-7.43,11-7.43a2.77,2.77,0,0,0,0-5.53Z"/>
        <path class="cls-1" d="M884.09,1147.25c-7.94,0-11.88,5.09-15.36,9.58s-6,7.43-11,7.43-7.41-2.82-11-7.43-7.41-9.58-15.35-9.58-11.88,5.09-15.35,9.58-6,7.43-11,7.43-7.4-2.82-11-7.43-7.41-9.58-15.35-9.58-11.87,5.09-15.35,9.58-6,7.43-11,7.43-7.4-2.82-11-7.43-7.41-9.58-15.34-9.58a2.77,2.77,0,0,0,0,5.54c5,0,7.4,2.82,11,7.43s7.41,9.58,15.34,9.58,11.88-5.09,15.35-9.58,6-7.43,11-7.43,7.41,2.82,11,7.43,7.41,9.58,15.35,9.58,11.88-5.09,15.35-9.58,6-7.43,11-7.43,7.41,2.82,11,7.43,7.41,9.58,15.35,9.58,11.88-5.09,15.35-9.58,6-7.43,11-7.43a2.77,2.77,0,0,0,0-5.54Z"/>
        <path class="cls-1" d="M884.09,1188.57c-7.94,0-11.88,5.09-15.36,9.58s-6,7.43-11,7.43-7.41-2.83-11-7.43-7.41-9.58-15.35-9.58-11.88,5.09-15.35,9.58-6,7.43-11,7.43-7.4-2.83-11-7.43-7.41-9.58-15.35-9.58-11.87,5.09-15.35,9.58-6,7.43-11,7.43-7.4-2.83-11-7.43-7.41-9.58-15.34-9.58a2.77,2.77,0,1,0,0,5.54c5,0,7.4,2.82,11,7.43s7.41,9.57,15.34,9.57,11.88-5.09,15.35-9.57,6-7.43,11-7.43,7.41,2.82,11,7.43,7.41,9.57,15.35,9.57,11.88-5.09,15.35-9.57,6-7.43,11-7.43,7.41,2.82,11,7.43,7.41,9.57,15.35,9.57,11.88-5.09,15.35-9.57,6-7.43,11-7.43a2.77,2.77,0,0,0,0-5.54Z"/>
        <path class="cls-1" d="M884.09,1229.88c-7.94,0-11.88,5.09-15.36,9.58s-6,7.43-11,7.43-7.41-2.82-11-7.43-7.41-9.58-15.35-9.58-11.88,5.09-15.35,9.58-6,7.43-11,7.43-7.4-2.82-11-7.43-7.41-9.58-15.35-9.58-11.87,5.09-15.35,9.58-6,7.43-11,7.43-7.4-2.82-11-7.43-7.41-9.58-15.34-9.58a2.77,2.77,0,0,0,0,5.54c5,0,7.4,2.83,11,7.43s7.41,9.58,15.34,9.58,11.88-5.09,15.35-9.58,6-7.43,11-7.43,7.41,2.83,11,7.43,7.41,9.58,15.35,9.58,11.88-5.09,15.35-9.58,6-7.43,11-7.43,7.41,2.83,11,7.43,7.41,9.58,15.35,9.58,11.88-5.09,15.35-9.58,6-7.43,11-7.43a2.77,2.77,0,0,0,0-5.54Z"/>
        <path class="cls-1" d="M884.09,1312.52c-7.94,0-11.88,5.09-15.36,9.58s-6,7.43-11,7.43-7.41-2.83-11-7.43-7.41-9.58-15.35-9.58-11.88,5.09-15.35,9.58-6,7.43-11,7.43-7.4-2.83-11-7.43-7.41-9.58-15.35-9.58-11.87,5.09-15.35,9.58-6,7.43-11,7.43-7.4-2.83-11-7.43-7.41-9.58-15.34-9.58a2.77,2.77,0,1,0,0,5.53c5,0,7.4,2.83,11,7.43s7.41,9.58,15.34,9.58,11.88-5.09,15.35-9.58,6-7.43,11-7.43,7.41,2.83,11,7.43,7.41,9.58,15.35,9.58,11.88-5.09,15.35-9.58,6-7.43,11-7.43,7.41,2.83,11,7.43,7.41,9.58,15.35,9.58,11.88-5.09,15.35-9.58,6-7.43,11-7.43a2.77,2.77,0,0,0,0-5.53Z"/>
        <path class="cls-1" d="M884.09,1395.15c-7.94,0-11.88,5.09-15.36,9.58s-6,7.43-11,7.43-7.41-2.82-11-7.43-7.41-9.58-15.35-9.58-11.88,5.09-15.35,9.58-6,7.43-11,7.43-7.4-2.82-11-7.43-7.41-9.58-15.35-9.58-11.87,5.09-15.35,9.58-6,7.43-11,7.43-7.4-2.82-11-7.43-7.41-9.58-15.34-9.58a2.77,2.77,0,0,0,0,5.54c5,0,7.4,2.82,11,7.43s7.41,9.58,15.34,9.58,11.88-5.09,15.35-9.58,6-7.43,11-7.43,7.41,2.82,11,7.43,7.41,9.58,15.35,9.58,11.88-5.09,15.35-9.58,6-7.43,11-7.43,7.41,2.82,11,7.43,7.41,9.58,15.35,9.58,11.88-5.09,15.35-9.58,6-7.43,11-7.43a2.77,2.77,0,0,0,0-5.54Z"/>
        <path class="cls-1" d="M884.09,1271.2c-7.94,0-11.88,5.09-15.36,9.58s-6,7.43-11,7.43-7.41-2.82-11-7.43-7.41-9.58-15.35-9.58-11.88,5.09-15.35,9.58-6,7.43-11,7.43-7.4-2.82-11-7.43-7.41-9.58-15.35-9.58-11.87,5.09-15.35,9.58-6,7.43-11,7.43-7.4-2.82-11-7.43-7.41-9.58-15.34-9.58a2.77,2.77,0,1,0,0,5.54c5,0,7.4,2.82,11,7.43s7.41,9.58,15.34,9.58,11.88-5.09,15.35-9.58,6-7.43,11-7.43,7.41,2.82,11,7.43,7.41,9.58,15.35,9.58,11.88-5.09,15.35-9.58,6-7.43,11-7.43,7.41,2.82,11,7.43,7.41,9.58,15.35,9.58,11.88-5.09,15.35-9.58,6-7.43,11-7.43a2.77,2.77,0,0,0,0-5.54Z"/>
        <path class="cls-1" d="M884.09,1353.83c-7.94,0-11.88,5.09-15.36,9.58s-6,7.43-11,7.43-7.41-2.82-11-7.43-7.41-9.58-15.35-9.58-11.88,5.09-15.35,9.58-6,7.43-11,7.43-7.4-2.82-11-7.43-7.41-9.58-15.35-9.58-11.87,5.09-15.35,9.58-6,7.43-11,7.43-7.4-2.82-11-7.43-7.41-9.58-15.34-9.58a2.77,2.77,0,0,0,0,5.54c5,0,7.4,2.82,11,7.43s7.41,9.58,15.34,9.58,11.88-5.09,15.35-9.58,6-7.43,11-7.43,7.41,2.82,11,7.43,7.41,9.58,15.35,9.58,11.88-5.09,15.35-9.58,6-7.43,11-7.43,7.41,2.82,11,7.43,7.41,9.58,15.35,9.58,11.88-5.09,15.35-9.58,6-7.43,11-7.43a2.77,2.77,0,0,0,0-5.54Z"/>
      </g>
      <g>
        <path class="cls-1" d="M702.55,841.38c-7.93,0-11.87,5.09-15.35,9.58s-6,7.43-11,7.43-7.41-2.83-11-7.43-7.41-9.58-15.35-9.58S638,846.47,634.56,851s-6,7.43-11,7.43-7.41-2.83-11-7.43-7.41-9.58-15.35-9.58-11.87,5.09-15.35,9.58-6,7.43-11,7.43-7.4-2.83-11-7.43-7.41-9.58-15.35-9.58a2.77,2.77,0,0,0,0,5.54c5,0,7.41,2.82,11,7.43s7.42,9.57,15.35,9.57,11.88-5.08,15.35-9.57,6-7.43,11-7.43,7.41,2.82,11,7.43,7.41,9.57,15.35,9.57,11.87-5.08,15.35-9.57,6-7.43,11-7.43,7.41,2.82,11,7.43,7.41,9.57,15.35,9.57,11.88-5.08,15.35-9.57,6-7.43,11-7.43a2.77,2.77,0,1,0,0-5.54Z"/>
        <path class="cls-1" d="M702.55,882.7c-7.93,0-11.87,5.09-15.35,9.57s-6,7.43-11,7.43-7.41-2.82-11-7.43-7.41-9.57-15.35-9.57-11.88,5.09-15.35,9.57-6,7.43-11,7.43-7.41-2.82-11-7.42-7.41-9.58-15.35-9.58-11.87,5.09-15.35,9.57-6,7.43-11,7.43-7.4-2.82-11-7.43-7.41-9.57-15.35-9.57a2.77,2.77,0,0,0,0,5.53c5,0,7.41,2.83,11,7.43s7.42,9.58,15.35,9.58,11.88-5.09,15.35-9.58,6-7.43,11-7.43,7.41,2.83,11,7.43,7.41,9.58,15.35,9.58,11.87-5.09,15.35-9.58,6-7.43,11-7.43,7.41,2.83,11,7.43,7.41,9.58,15.35,9.58,11.88-5.09,15.35-9.58,6-7.43,11-7.43a2.77,2.77,0,1,0,0-5.53Z"/>
        <path class="cls-1" d="M702.55,924c-7.93,0-11.87,5.09-15.35,9.58s-6,7.43-11,7.43-7.41-2.82-11-7.43S657.85,924,649.91,924s-11.88,5.09-15.35,9.58-6,7.43-11,7.43-7.41-2.82-11-7.43S605.21,924,597.27,924s-11.87,5.09-15.35,9.58-6,7.43-11,7.43-7.4-2.82-11-7.43S552.57,924,544.63,924a2.77,2.77,0,0,0,0,5.54c5,0,7.41,2.82,11,7.43s7.42,9.58,15.35,9.58,11.88-5.09,15.35-9.58,6-7.43,11-7.43,7.41,2.82,11,7.43,7.41,9.58,15.35,9.58,11.87-5.09,15.35-9.58,6-7.43,11-7.43,7.41,2.82,11,7.43,7.41,9.58,15.35,9.58,11.88-5.09,15.35-9.58,6-7.43,11-7.43a2.77,2.77,0,1,0,0-5.54Z"/>
        <path class="cls-1" d="M702.55,965.33c-7.93,0-11.87,5.09-15.35,9.58s-6,7.43-11,7.43-7.41-2.83-11-7.43-7.41-9.58-15.35-9.58-11.88,5.09-15.35,9.58-6,7.43-11,7.43-7.41-2.83-11-7.43-7.41-9.58-15.35-9.58-11.87,5.09-15.35,9.58-6,7.43-11,7.43-7.4-2.83-11-7.43-7.41-9.58-15.35-9.58a2.77,2.77,0,0,0,0,5.54c5,0,7.41,2.82,11,7.43s7.42,9.57,15.35,9.57,11.88-5.08,15.35-9.57,6-7.43,11-7.43,7.41,2.82,11,7.43,7.41,9.57,15.35,9.57,11.87-5.08,15.35-9.58,6-7.42,11-7.42,7.41,2.82,11,7.43,7.41,9.57,15.35,9.57,11.88-5.08,15.35-9.57,6-7.43,11-7.43a2.77,2.77,0,1,0,0-5.54Z"/>
        <path class="cls-1" d="M702.55,1006.65c-7.93,0-11.87,5.08-15.35,9.57s-6,7.43-11,7.43-7.41-2.82-11-7.43-7.41-9.57-15.35-9.57-11.88,5.08-15.35,9.57-6,7.43-11,7.43-7.41-2.82-11-7.43-7.41-9.57-15.35-9.57-11.87,5.08-15.35,9.57-6,7.43-11,7.43-7.4-2.82-11-7.43-7.41-9.57-15.35-9.57a2.77,2.77,0,0,0,0,5.53c5,0,7.41,2.83,11,7.43s7.42,9.58,15.35,9.58,11.88-5.09,15.35-9.58,6-7.43,11-7.43,7.41,2.83,11,7.43,7.41,9.58,15.35,9.58,11.87-5.09,15.35-9.58,6-7.43,11-7.43,7.41,2.83,11,7.43,7.41,9.58,15.35,9.58,11.88-5.09,15.35-9.58,6-7.43,11-7.43a2.77,2.77,0,1,0,0-5.53Z"/>
        <path class="cls-1" d="M702.55,1048c-7.93,0-11.87,5.09-15.35,9.58s-6,7.43-11,7.43-7.41-2.82-11-7.43-7.41-9.58-15.35-9.58-11.88,5.09-15.35,9.58-6,7.43-11,7.43-7.41-2.82-11-7.43-7.41-9.58-15.35-9.58-11.87,5.09-15.35,9.58-6,7.43-11,7.43-7.4-2.82-11-7.43-7.41-9.58-15.35-9.58a2.77,2.77,0,0,0,0,5.54c5,0,7.41,2.82,11,7.43s7.42,9.58,15.35,9.58,11.88-5.09,15.35-9.58,6-7.43,11-7.43,7.41,2.82,11,7.43,7.41,9.58,15.35,9.58,11.87-5.09,15.35-9.58,6-7.43,11-7.43,7.41,2.82,11,7.43,7.41,9.58,15.35,9.58,11.88-5.09,15.35-9.58,6-7.43,11-7.43a2.77,2.77,0,1,0,0-5.54Z"/>
        <path class="cls-1" d="M702.55,1089.28c-7.93,0-11.87,5.09-15.35,9.58s-6,7.43-11,7.43-7.41-2.83-11-7.43-7.41-9.58-15.35-9.58-11.88,5.09-15.35,9.58-6,7.43-11,7.43-7.41-2.83-11-7.43-7.41-9.58-15.35-9.58-11.87,5.09-15.35,9.58-6,7.43-11,7.43-7.4-2.83-11-7.43-7.41-9.58-15.35-9.58a2.77,2.77,0,0,0,0,5.53c5,0,7.41,2.83,11,7.43s7.42,9.58,15.35,9.58,11.88-5.09,15.35-9.58,6-7.43,11-7.43,7.41,2.83,11,7.43,7.41,9.58,15.35,9.58,11.87-5.09,15.35-9.58,6-7.43,11-7.43,7.41,2.83,11,7.43,7.41,9.58,15.35,9.58,11.88-5.09,15.35-9.58,6-7.43,11-7.43a2.77,2.77,0,1,0,0-5.53Z"/>
        <path class="cls-1" d="M702.55,1130.59c-7.93,0-11.87,5.09-15.35,9.58s-6,7.43-11,7.43-7.41-2.82-11-7.43-7.41-9.58-15.35-9.58-11.88,5.09-15.35,9.58-6,7.43-11,7.43-7.41-2.82-11-7.43-7.41-9.58-15.35-9.58-11.87,5.09-15.35,9.58-6,7.43-11,7.43-7.4-2.82-11-7.43-7.41-9.58-15.35-9.58a2.77,2.77,0,0,0,0,5.54c5,0,7.41,2.82,11,7.43s7.42,9.58,15.35,9.58,11.88-5.09,15.35-9.58,6-7.43,11-7.43,7.41,2.82,11,7.43,7.41,9.58,15.35,9.58,11.87-5.09,15.35-9.58,6-7.43,11-7.43,7.41,2.82,11,7.43,7.41,9.58,15.35,9.58,11.88-5.09,15.35-9.58,6-7.43,11-7.43a2.77,2.77,0,1,0,0-5.54Z"/>
        <path class="cls-1" d="M702.55,1171.91c-7.93,0-11.87,5.09-15.35,9.58s-6,7.43-11,7.43-7.41-2.83-11-7.43-7.41-9.58-15.35-9.58-11.88,5.09-15.35,9.58-6,7.43-11,7.43-7.41-2.83-11-7.43-7.41-9.58-15.35-9.58-11.87,5.09-15.35,9.58-6,7.43-11,7.43-7.4-2.83-11-7.43-7.41-9.58-15.35-9.58a2.77,2.77,0,0,0,0,5.54c5,0,7.41,2.82,11,7.43s7.42,9.58,15.35,9.58,11.88-5.09,15.35-9.58,6-7.43,11-7.43,7.41,2.82,11,7.43,7.41,9.58,15.35,9.58,11.87-5.09,15.35-9.58,6-7.43,11-7.43,7.41,2.82,11,7.43,7.41,9.58,15.35,9.58,11.88-5.09,15.35-9.58,6-7.43,11-7.43a2.77,2.77,0,1,0,0-5.54Z"/>
        <path class="cls-1" d="M702.55,1213.23c-7.93,0-11.87,5.09-15.35,9.57s-6,7.43-11,7.43-7.41-2.82-11-7.43-7.41-9.57-15.35-9.57-11.88,5.09-15.35,9.57-6,7.43-11,7.43-7.41-2.82-11-7.42-7.41-9.58-15.35-9.58-11.87,5.09-15.35,9.57-6,7.43-11,7.43-7.4-2.82-11-7.43-7.41-9.57-15.35-9.57a2.77,2.77,0,0,0,0,5.53c5,0,7.41,2.83,11,7.43s7.42,9.58,15.35,9.58,11.88-5.09,15.35-9.58,6-7.43,11-7.43,7.41,2.83,11,7.43,7.41,9.58,15.35,9.58,11.87-5.09,15.35-9.58,6-7.43,11-7.43,7.41,2.83,11,7.43,7.41,9.58,15.35,9.58,11.88-5.09,15.35-9.58,6-7.43,11-7.43a2.77,2.77,0,1,0,0-5.53Z"/>
        <path class="cls-1" d="M702.55,1295.86c-7.93,0-11.87,5.09-15.35,9.58s-6,7.43-11,7.43-7.41-2.83-11-7.43-7.41-9.58-15.35-9.58-11.88,5.09-15.35,9.58-6,7.43-11,7.43-7.41-2.83-11-7.43-7.41-9.58-15.35-9.58-11.87,5.09-15.35,9.58-6,7.43-11,7.43-7.4-2.83-11-7.43-7.41-9.58-15.35-9.58a2.77,2.77,0,0,0,0,5.54c5,0,7.41,2.82,11,7.43s7.42,9.57,15.35,9.57,11.88-5.08,15.35-9.57,6-7.43,11-7.43,7.41,2.82,11,7.43,7.41,9.57,15.35,9.57,11.87-5.08,15.35-9.57,6-7.43,11-7.43,7.41,2.82,11,7.43,7.41,9.57,15.35,9.57,11.88-5.08,15.35-9.57,6-7.43,11-7.43a2.77,2.77,0,0,0,0-5.54Z"/>
        <path class="cls-1" d="M702.55,1378.49c-7.93,0-11.87,5.09-15.35,9.58s-6,7.43-11,7.43-7.41-2.82-11-7.43-7.41-9.58-15.35-9.58-11.88,5.09-15.35,9.58-6,7.43-11,7.43-7.41-2.82-11-7.43-7.41-9.58-15.35-9.58-11.87,5.09-15.35,9.58-6,7.43-11,7.43-7.4-2.82-11-7.43-7.41-9.58-15.35-9.58a2.77,2.77,0,0,0,0,5.54c5,0,7.41,2.82,11,7.43S563,1401,571,1401s11.88-5.09,15.35-9.58,6-7.43,11-7.43,7.41,2.82,11,7.43,7.41,9.58,15.35,9.58,11.87-5.09,15.35-9.58,6-7.43,11-7.43,7.41,2.82,11,7.43,7.41,9.58,15.35,9.58,11.88-5.09,15.35-9.58,6-7.43,11-7.43a2.77,2.77,0,1,0,0-5.54Z"/>
        <path class="cls-1" d="M702.55,1254.54c-7.93,0-11.87,5.09-15.35,9.58s-6,7.43-11,7.43-7.41-2.82-11-7.43-7.41-9.58-15.35-9.58-11.88,5.09-15.35,9.58-6,7.43-11,7.43-7.41-2.82-11-7.43-7.41-9.58-15.35-9.58-11.87,5.09-15.35,9.58-6,7.43-11,7.43-7.4-2.82-11-7.43-7.41-9.58-15.35-9.58a2.77,2.77,0,0,0,0,5.54c5,0,7.41,2.82,11,7.43s7.42,9.58,15.35,9.58,11.88-5.09,15.35-9.58,6-7.43,11-7.43,7.41,2.82,11,7.43,7.41,9.58,15.35,9.58,11.87-5.09,15.35-9.58,6-7.43,11-7.43,7.41,2.82,11,7.43,7.41,9.58,15.35,9.58,11.88-5.09,15.35-9.58,6-7.43,11-7.43a2.77,2.77,0,1,0,0-5.54Z"/>
        <path class="cls-1" d="M702.55,1337.18c-7.93,0-11.87,5.08-15.35,9.57s-6,7.43-11,7.43-7.41-2.82-11-7.43-7.41-9.57-15.35-9.57-11.88,5.08-15.35,9.57-6,7.43-11,7.43-7.41-2.82-11-7.43-7.41-9.57-15.35-9.57-11.87,5.08-15.35,9.57-6,7.43-11,7.43-7.4-2.82-11-7.43-7.41-9.57-15.35-9.57a2.77,2.77,0,0,0,0,5.53c5,0,7.41,2.83,11,7.43s7.42,9.58,15.35,9.58,11.88-5.09,15.35-9.58,6-7.43,11-7.43,7.41,2.83,11,7.43,7.41,9.58,15.35,9.58,11.87-5.09,15.35-9.58,6-7.43,11-7.43,7.41,2.83,11,7.43,7.41,9.58,15.35,9.58,11.88-5.09,15.35-9.58,6-7.43,11-7.43a2.77,2.77,0,1,0,0-5.53Z"/>
        <path class="cls-1" d="M702.55,1419.81c-7.93,0-11.87,5.09-15.35,9.58s-6,7.43-11,7.43-7.41-2.83-11-7.43-7.41-9.58-15.35-9.58-11.88,5.09-15.35,9.58-6,7.43-11,7.43-7.41-2.83-11-7.43-7.41-9.58-15.35-9.58-11.87,5.09-15.35,9.58-6,7.43-11,7.43-7.4-2.83-11-7.43-7.41-9.58-15.35-9.58a2.77,2.77,0,0,0,0,5.54c5,0,7.41,2.82,11,7.43s7.42,9.57,15.35,9.57,11.88-5.09,15.35-9.57,6-7.43,11-7.43,7.41,2.82,11,7.43,7.41,9.57,15.35,9.57,11.87-5.09,15.35-9.58,6-7.42,11-7.42,7.41,2.82,11,7.43,7.41,9.57,15.35,9.57,11.88-5.09,15.35-9.57,6-7.43,11-7.43a2.77,2.77,0,1,0,0-5.54Z"/>
      </g>
      <g>
        <path class="cls-1" d="M1065.62,841.38c-7.94,0-11.88,5.09-15.35,9.58s-6,7.43-11,7.43-7.4-2.83-11-7.43-7.41-9.58-15.35-9.58-11.88,5.09-15.35,9.58-6,7.43-11,7.43-7.4-2.83-11-7.43-7.41-9.58-15.35-9.58S948.46,846.47,945,851s-6,7.43-11,7.43-7.4-2.83-11-7.43-7.42-9.58-15.35-9.58a2.77,2.77,0,0,0,0,5.54c5,0,7.4,2.82,11,7.43s7.41,9.57,15.34,9.57,11.88-5.08,15.35-9.57,6-7.43,11-7.43,7.41,2.82,11,7.43,7.41,9.57,15.35,9.57,11.88-5.08,15.35-9.57,6-7.43,11-7.43,7.41,2.82,11,7.43,7.41,9.57,15.35,9.57,11.88-5.08,15.35-9.57,6-7.43,11-7.43a2.77,2.77,0,0,0,0-5.54Z"/>
        <path class="cls-1" d="M1065.62,882.7c-7.94,0-11.88,5.09-15.35,9.57s-6,7.43-11,7.43-7.4-2.82-11-7.43-7.41-9.57-15.35-9.57-11.88,5.09-15.35,9.57-6,7.43-11,7.43-7.4-2.82-11-7.42-7.41-9.58-15.35-9.58-11.87,5.09-15.35,9.57-6,7.43-11,7.43-7.4-2.82-11-7.43-7.42-9.57-15.35-9.57a2.77,2.77,0,1,0,0,5.53c5,0,7.4,2.83,11,7.43s7.41,9.58,15.34,9.58,11.88-5.09,15.35-9.58,6-7.43,11-7.43,7.41,2.83,11,7.43,7.41,9.58,15.35,9.58,11.88-5.09,15.35-9.58,6-7.43,11-7.43,7.41,2.83,11,7.43,7.41,9.58,15.35,9.58,11.88-5.09,15.35-9.58,6-7.43,11-7.43a2.77,2.77,0,0,0,0-5.53Z"/>
        <path class="cls-1" d="M1065.62,924c-7.94,0-11.88,5.09-15.35,9.58s-6,7.43-11,7.43-7.4-2.82-11-7.43S1020.91,924,1013,924s-11.88,5.09-15.35,9.58-6,7.43-11,7.43-7.4-2.82-11-7.43S968.27,924,960.33,924s-11.87,5.09-15.35,9.58S939,941,934,941s-7.4-2.82-11-7.43S915.63,924,907.7,924a2.77,2.77,0,0,0,0,5.54c5,0,7.4,2.82,11,7.43s7.41,9.58,15.34,9.58,11.88-5.09,15.35-9.58,6-7.43,11-7.43,7.41,2.82,11,7.43,7.41,9.58,15.35,9.58,11.88-5.09,15.35-9.58,6-7.43,11-7.43,7.41,2.82,11,7.43,7.41,9.58,15.35,9.58,11.88-5.09,15.35-9.58,6-7.43,11-7.43a2.77,2.77,0,0,0,0-5.54Z"/>
        <path class="cls-1" d="M1065.62,965.33c-7.94,0-11.88,5.09-15.35,9.58s-6,7.43-11,7.43-7.4-2.83-11-7.43-7.41-9.58-15.35-9.58-11.88,5.09-15.35,9.58-6,7.43-11,7.43-7.4-2.83-11-7.43-7.41-9.58-15.35-9.58-11.87,5.09-15.35,9.58-6,7.43-11,7.43-7.4-2.83-11-7.43-7.42-9.58-15.35-9.58a2.77,2.77,0,0,0,0,5.54c5,0,7.4,2.82,11,7.43s7.41,9.57,15.34,9.57,11.88-5.08,15.35-9.57,6-7.43,11-7.43,7.41,2.82,11,7.43,7.41,9.57,15.35,9.57,11.88-5.08,15.35-9.58,6-7.42,11-7.42,7.41,2.82,11,7.43,7.41,9.57,15.35,9.57,11.88-5.08,15.35-9.57,6-7.43,11-7.43a2.77,2.77,0,0,0,0-5.54Z"/>
        <path class="cls-1" d="M1065.62,1006.65c-7.94,0-11.88,5.08-15.35,9.57s-6,7.43-11,7.43-7.4-2.82-11-7.43-7.41-9.57-15.35-9.57-11.88,5.08-15.35,9.57-6,7.43-11,7.43-7.4-2.82-11-7.43-7.41-9.57-15.35-9.57-11.87,5.08-15.35,9.57-6,7.43-11,7.43-7.4-2.82-11-7.43-7.42-9.57-15.35-9.57a2.77,2.77,0,1,0,0,5.53c5,0,7.4,2.83,11,7.43s7.41,9.58,15.34,9.58,11.88-5.09,15.35-9.58,6-7.43,11-7.43,7.41,2.83,11,7.43,7.41,9.58,15.35,9.58,11.88-5.09,15.35-9.58,6-7.43,11-7.43,7.41,2.83,11,7.43,7.41,9.58,15.35,9.58,11.88-5.09,15.35-9.58,6-7.43,11-7.43a2.77,2.77,0,0,0,0-5.53Z"/>
        <path class="cls-1" d="M1065.62,1048c-7.94,0-11.88,5.09-15.35,9.58s-6,7.43-11,7.43-7.4-2.82-11-7.43-7.41-9.58-15.35-9.58-11.88,5.09-15.35,9.58-6,7.43-11,7.43-7.4-2.82-11-7.43-7.41-9.58-15.35-9.58-11.87,5.09-15.35,9.58-6,7.43-11,7.43-7.4-2.82-11-7.43-7.42-9.58-15.35-9.58a2.77,2.77,0,0,0,0,5.54c5,0,7.4,2.82,11,7.43s7.41,9.58,15.34,9.58,11.88-5.09,15.35-9.58,6-7.43,11-7.43,7.41,2.82,11,7.43,7.41,9.58,15.35,9.58,11.88-5.09,15.35-9.58,6-7.43,11-7.43,7.41,2.82,11,7.43,7.41,9.58,15.35,9.58,11.88-5.09,15.35-9.58,6-7.43,11-7.43a2.77,2.77,0,0,0,0-5.54Z"/>
        <path class="cls-1" d="M1065.62,1089.28c-7.94,0-11.88,5.09-15.35,9.58s-6,7.43-11,7.43-7.4-2.83-11-7.43-7.41-9.58-15.35-9.58-11.88,5.09-15.35,9.58-6,7.43-11,7.43-7.4-2.83-11-7.43-7.41-9.58-15.35-9.58-11.87,5.09-15.35,9.58-6,7.43-11,7.43-7.4-2.83-11-7.43-7.42-9.58-15.35-9.58a2.77,2.77,0,1,0,0,5.53c5,0,7.4,2.83,11,7.43s7.41,9.58,15.34,9.58,11.88-5.09,15.35-9.58,6-7.43,11-7.43,7.41,2.83,11,7.43,7.41,9.58,15.35,9.58,11.88-5.09,15.35-9.58,6-7.43,11-7.43,7.41,2.83,11,7.43,7.41,9.58,15.35,9.58,11.88-5.09,15.35-9.58,6-7.43,11-7.43a2.77,2.77,0,0,0,0-5.53Z"/>
        <path class="cls-1" d="M1065.62,1130.59c-7.94,0-11.88,5.09-15.35,9.58s-6,7.43-11,7.43-7.4-2.82-11-7.43-7.41-9.58-15.35-9.58-11.88,5.09-15.35,9.58-6,7.43-11,7.43-7.4-2.82-11-7.43-7.41-9.58-15.35-9.58-11.87,5.09-15.35,9.58-6,7.43-11,7.43-7.4-2.82-11-7.43-7.42-9.58-15.35-9.58a2.77,2.77,0,1,0,0,5.54c5,0,7.4,2.82,11,7.43s7.41,9.58,15.34,9.58,11.88-5.09,15.35-9.58,6-7.43,11-7.43,7.41,2.82,11,7.43,7.41,9.58,15.35,9.58,11.88-5.09,15.35-9.58,6-7.43,11-7.43,7.41,2.82,11,7.43,7.41,9.58,15.35,9.58,11.88-5.09,15.35-9.58,6-7.43,11-7.43a2.77,2.77,0,0,0,0-5.54Z"/>
        <path class="cls-1" d="M1065.62,1171.91c-7.94,0-11.88,5.09-15.35,9.58s-6,7.43-11,7.43-7.4-2.83-11-7.43-7.41-9.58-15.35-9.58-11.88,5.09-15.35,9.58-6,7.43-11,7.43-7.4-2.83-11-7.43-7.41-9.58-15.35-9.58-11.87,5.09-15.35,9.58-6,7.43-11,7.43-7.4-2.83-11-7.43-7.42-9.58-15.35-9.58a2.77,2.77,0,0,0,0,5.54c5,0,7.4,2.82,11,7.43s7.41,9.58,15.34,9.58,11.88-5.09,15.35-9.58,6-7.43,11-7.43,7.41,2.82,11,7.43,7.41,9.58,15.35,9.58,11.88-5.09,15.35-9.58,6-7.43,11-7.43,7.41,2.82,11,7.43,7.41,9.58,15.35,9.58,11.88-5.09,15.35-9.58,6-7.43,11-7.43a2.77,2.77,0,0,0,0-5.54Z"/>
        <path class="cls-1" d="M1065.62,1213.23c-7.94,0-11.88,5.09-15.35,9.57s-6,7.43-11,7.43-7.4-2.82-11-7.43-7.41-9.57-15.35-9.57-11.88,5.09-15.35,9.57-6,7.43-11,7.43-7.4-2.82-11-7.42-7.41-9.58-15.35-9.58-11.87,5.09-15.35,9.57-6,7.43-11,7.43-7.4-2.82-11-7.43-7.42-9.57-15.35-9.57a2.77,2.77,0,1,0,0,5.53c5,0,7.4,2.83,11,7.43s7.41,9.58,15.34,9.58,11.88-5.09,15.35-9.58,6-7.43,11-7.43,7.41,2.83,11,7.43,7.41,9.58,15.35,9.58,11.88-5.09,15.35-9.58,6-7.43,11-7.43,7.41,2.83,11,7.43,7.41,9.58,15.35,9.58,11.88-5.09,15.35-9.58,6-7.43,11-7.43a2.77,2.77,0,0,0,0-5.53Z"/>
        <path class="cls-1" d="M1065.62,1295.86c-7.94,0-11.88,5.09-15.35,9.58s-6,7.43-11,7.43-7.4-2.83-11-7.43-7.41-9.58-15.35-9.58-11.88,5.09-15.35,9.58-6,7.43-11,7.43-7.4-2.83-11-7.43-7.41-9.58-15.35-9.58-11.87,5.09-15.35,9.58-6,7.43-11,7.43-7.4-2.83-11-7.43-7.42-9.58-15.35-9.58a2.77,2.77,0,0,0,0,5.54c5,0,7.4,2.82,11,7.43s7.41,9.57,15.34,9.57,11.88-5.08,15.35-9.57,6-7.43,11-7.43,7.41,2.82,11,7.43,7.41,9.57,15.35,9.57,11.88-5.08,15.35-9.57,6-7.43,11-7.43,7.41,2.82,11,7.43,7.41,9.57,15.35,9.57,11.88-5.08,15.35-9.57,6-7.43,11-7.43a2.77,2.77,0,0,0,0-5.54Z"/>
        <path class="cls-1" d="M1065.62,1378.49c-7.94,0-11.88,5.09-15.35,9.58s-6,7.43-11,7.43-7.4-2.82-11-7.43-7.41-9.58-15.35-9.58-11.88,5.09-15.35,9.58-6,7.43-11,7.43-7.4-2.82-11-7.43-7.41-9.58-15.35-9.58-11.87,5.09-15.35,9.58-6,7.43-11,7.43-7.4-2.82-11-7.43-7.42-9.58-15.35-9.58a2.77,2.77,0,0,0,0,5.54c5,0,7.4,2.82,11,7.43S926.08,1401,934,1401s11.88-5.09,15.35-9.58,6-7.43,11-7.43,7.41,2.82,11,7.43,7.41,9.58,15.35,9.58,11.88-5.09,15.35-9.58,6-7.43,11-7.43,7.41,2.82,11,7.43,7.41,9.58,15.35,9.58,11.88-5.09,15.35-9.58,6-7.43,11-7.43a2.77,2.77,0,0,0,0-5.54Z"/>
        <path class="cls-1" d="M1065.62,1254.54c-7.94,0-11.88,5.09-15.35,9.58s-6,7.43-11,7.43-7.4-2.82-11-7.43-7.41-9.58-15.35-9.58-11.88,5.09-15.35,9.58-6,7.43-11,7.43-7.4-2.82-11-7.43-7.41-9.58-15.35-9.58-11.87,5.09-15.35,9.58-6,7.43-11,7.43-7.4-2.82-11-7.43-7.42-9.58-15.35-9.58a2.77,2.77,0,0,0,0,5.54c5,0,7.4,2.82,11,7.43s7.41,9.58,15.34,9.58,11.88-5.09,15.35-9.58,6-7.43,11-7.43,7.41,2.82,11,7.43,7.41,9.58,15.35,9.58,11.88-5.09,15.35-9.58,6-7.43,11-7.43,7.41,2.82,11,7.43,7.41,9.58,15.35,9.58,11.88-5.09,15.35-9.58,6-7.43,11-7.43a2.77,2.77,0,0,0,0-5.54Z"/>
        <path class="cls-1" d="M1065.62,1337.18c-7.94,0-11.88,5.08-15.35,9.57s-6,7.43-11,7.43-7.4-2.82-11-7.43-7.41-9.57-15.35-9.57-11.88,5.08-15.35,9.57-6,7.43-11,7.43-7.4-2.82-11-7.43-7.41-9.57-15.35-9.57-11.87,5.08-15.35,9.57-6,7.43-11,7.43-7.4-2.82-11-7.43-7.42-9.57-15.35-9.57a2.77,2.77,0,1,0,0,5.53c5,0,7.4,2.83,11,7.43s7.41,9.58,15.34,9.58,11.88-5.09,15.35-9.58,6-7.43,11-7.43,7.41,2.83,11,7.43,7.41,9.58,15.35,9.58,11.88-5.09,15.35-9.58,6-7.43,11-7.43,7.41,2.83,11,7.43,7.41,9.58,15.35,9.58,11.88-5.09,15.35-9.58,6-7.43,11-7.43a2.77,2.77,0,0,0,0-5.53Z"/>
        <path class="cls-1" d="M1065.62,1419.81c-7.94,0-11.88,5.09-15.35,9.58s-6,7.43-11,7.43-7.4-2.83-11-7.43-7.41-9.58-15.35-9.58-11.88,5.09-15.35,9.58-6,7.43-11,7.43-7.4-2.83-11-7.43-7.41-9.58-15.35-9.58-11.87,5.09-15.35,9.58-6,7.43-11,7.43-7.4-2.83-11-7.43-7.42-9.58-15.35-9.58a2.77,2.77,0,0,0,0,5.54c5,0,7.4,2.82,11,7.43s7.41,9.57,15.34,9.57,11.88-5.09,15.35-9.57,6-7.43,11-7.43,7.41,2.82,11,7.43,7.41,9.57,15.35,9.57,11.88-5.09,15.35-9.58,6-7.42,11-7.42,7.41,2.82,11,7.43,7.41,9.57,15.35,9.57,11.88-5.09,15.35-9.57,6-7.43,11-7.43a2.77,2.77,0,0,0,0-5.54Z"/>
      </g>
    </g>
    <path class="cls-1" d="M1943.15,641.73v36.85a2.83,2.83,0,1,1-2.83,2.83v-52h0a8.41,8.41,0,0,0-5.75-8.07,8.53,8.53,0,0,0-11.26,8.07h2.83v12.34H1712.9V631.4a9.51,9.51,0,0,0-9.52-9.51h-10.86a5.67,5.67,0,0,0-5.67,5.67v14.17h-61.3V627.56a5.66,5.66,0,0,0-5.67-5.67H1609a9.51,9.51,0,0,0-9.52,9.51v10.33h-210.1V629.39h2.83a8.41,8.41,0,0,0-5.75-8.07,8.53,8.53,0,0,0-11.26,8.07h0v51.92a2.88,2.88,0,0,1-2.27,2.88,2.83,2.83,0,1,1-.56-5.61V641.73h-28v793.69h27.9v-36.85a2.83,2.83,0,1,1,2.83-2.83v51.73a8.71,8.71,0,0,0,7.94,8.78,8.51,8.51,0,0,0,9.07-8.49h-2.83v-12.34h210.21v10.33a9.52,9.52,0,0,0,9.52,9.52h10.85a5.67,5.67,0,0,0,5.67-5.67v-14.18h61.3v14.18a5.67,5.67,0,0,0,5.67,5.67h10.86a9.52,9.52,0,0,0,9.52-9.52v-10.33h213.25v12.34h-2.84a8.51,8.51,0,0,0,9.08,8.49,8.71,8.71,0,0,0,7.93-8.78v-51.63a2.9,2.9,0,0,1,2.28-2.88,2.83,2.83,0,1,1,.56,5.61v36.85H1968V641.73Z"/>
    <g>
      <polyline class="cls-4" points="1112.49 649.22 1098.11 649.22 1098.11 639.63 1112.49 639.63"/>
      <polyline class="cls-4" points="1098.11 627.64 1112.49 627.64 1112.49 637.23 1098.11 637.23"/>
      <rect class="cls-4" x="1098.11" y="603.68" width="14.38" height="9.59"/>
      <line class="cls-4" x1="1098.11" y1="625.25" x2="1098.11" y2="615.66"/>
      <line class="cls-4" x1="1105.3" y1="649.22" x2="1102.9" y2="639.63"/>
      <polyline class="cls-4" points="1112.49 574.91 1098.11 574.91 1098.11 584.5 1112.49 584.5"/>
      <line class="cls-4" x1="1105.3" y1="574.91" x2="1102.9" y2="584.5"/>
      <line class="cls-4" x1="1098.11" y1="620.45" x2="1112.49" y2="620.45"/>
      <rect class="cls-4" x="1098.11" y="550.94" width="14.38" height="9.59"/>
      <line class="cls-4" x1="1098.11" y1="572.52" x2="1098.11" y2="562.93"/>
      <line class="cls-4" x1="1098.11" y1="567.72" x2="1112.49" y2="567.72"/>
      <polyline class="cls-4" points="1112.49 601.28 1098.11 601.28 1098.11 594.09 1105.3 594.09"/>
      <polyline class="cls-4" points="1112.49 586.9 1098.11 586.9 1098.11 594.09"/>
      <polyline class="cls-4" points="1112.49 548.55 1098.11 548.55 1102.9 538.96"/>
      <line class="cls-4" x1="1098.11" y1="538.96" x2="1112.49" y2="538.96"/>
      <line class="cls-4" x1="1110.09" y1="536.56" x2="1112.49" y2="536.56"/>
      <polyline class="cls-4" points="1105.3 534.16 1102.9 524.58 1112.49 524.58 1112.49 534.16 1098.11 534.16 1098.11 526.97 1103.5 526.97"/>
      <polyline class="cls-4" points="1098.11 512.59 1098.11 522.18 1112.49 522.18 1112.49 512.59"/>
      <line class="cls-4" x1="1105.3" y1="522.18" x2="1102.9" y2="514.99"/>
      <path class="cls-4" d="M1105.3,505.4a9.59,9.59,0,1,0-9.59-9.59A9.59,9.59,0,0,0,1105.3,505.4Zm-2.5-2.77v-5.18a.78.78,0,1,1,1.56,0v5.18a.78.78,0,0,1-1.56,0Zm0-8.34V489.1a.78.78,0,1,1,1.56,0v5.19a.78.78,0,1,1-1.56,0Z"/>
    </g>
    <g>
      <path class="cls-5" d="M586.27,347.15l-1.38,7.41a.62.62,0,0,1-.38.44l-5.3,2.27a.61.61,0,0,1-.57,0l-6.3-4.32a.41.41,0,0,0-.51,0l-5.4,5.4a.41.41,0,0,0,0,.51l4.39,6.41a.58.58,0,0,1,0,.57l-2.1,5.14a.61.61,0,0,1-.43.38l-7.67,1.43a.42.42,0,0,0-.33.4v7.63a.42.42,0,0,0,.33.39l7.67,1.43a.63.63,0,0,1,.43.38l2.1,5.14a.6.6,0,0,1,0,.58l-4.39,6.4a.42.42,0,0,0,0,.52l5.4,5.39a.42.42,0,0,0,.51.05l6.3-4.32a.64.64,0,0,1,.57,0l5.3,2.28a.6.6,0,0,1,.38.44l1.38,7.41a.43.43,0,0,0,.4.33h7.63a.42.42,0,0,0,.39-.33l1.35-7.23a.61.61,0,0,1,.38-.43l5.64-2.26a.66.66,0,0,1,.58,0l6,4.11a.44.44,0,0,0,.52-.05l5.39-5.39a.44.44,0,0,0,.05-.52l-4-5.88a.59.59,0,0,1,0-.56l1.39-2.59a.31.31,0,0,0-.16-.43l-12.92-5.35a.4.4,0,0,0-.48.16l-.4.65a3.4,3.4,0,0,1-.31.41,8.45,8.45,0,1,1,0-9.09,3.4,3.4,0,0,1,.31.41l.4.65a.4.4,0,0,0,.48.15l12.92-5.34a.31.31,0,0,0,.16-.43l-1.38-2.59a.58.58,0,0,1,0-.57l4-5.88a.42.42,0,0,0-.05-.51l-5.39-5.4a.42.42,0,0,0-.52,0l-6,4.1a.63.63,0,0,1-.58.05l-5.64-2.26a.63.63,0,0,1-.38-.43l-1.34-7.23a.44.44,0,0,0-.4-.33h-7.63a.43.43,0,0,0-.4.33"/>
      <g>
        <path id="path3422" class="cls-5" d="M622.28,407.05l.34.67.67.67,1,.34H625l1-.34.67-.67.33-.67v-1l-.33-.67-.67-.67-1-.33h-.67l-1,.33-.67.67-.34.67v1"/>
        <path id="path3424" class="cls-5" d="M622.28,402h7.05m-6,0-.67-.67-.34-.68v-1l.34-.67.67-.68,1-.33H625l1,.33.67.68.33.67v1l-.33.68L626,402"/>
        <path id="path3426" class="cls-5" d="M624.3,396v-4h-.67l-.67.33-.34.34-.34.67v1l.34.67.67.67,1,.34H625l1-.34.67-.67.33-.67v-1l-.33-.67L626,392"/>
        <path id="path3430" class="cls-5" d="M622.28,389.6H627m-3.35,0-1-1-.34-.67v-1l.34-.67,1-.33H627m-3-4"/>
        <path id="path3432" class="cls-5" d="M623.29,374.5l-.67.33-.34,1v1l.34,1,.67.34.67-.34.34-.67.33-1.68.34-.67.67-.33H626l.67.33.33,1v1l-.33,1-.67.34"/>
        <path id="path3434" class="cls-5" d="M622.28,370.8l.34.68.67.67,1,.33H625l1-.33.67-.67.33-.68v-1l-.33-.67-.67-.68-1-.33h-.67l-1,.33-.67.68-.34.67v1"/>
        <path id="path3436" class="cls-5" d="M622.28,365.77h3.36l1-.34.33-.67v-1l-.33-.67-1-1m-3.36,0H627"/>
        <path id="path3438" class="cls-5" d="M622.28,359.39H627m-2.68,0-1-.33-.67-.67-.34-.67v-1"/>
        <path id="path3440" class="cls-5" d="M623.29,351.34l-.67.67-.34.67v1l.34.67.67.67,1,.34H625l1-.34.67-.67.33-.67v-1l-.33-.67-.67-.67"/>
        <path id="path3442" class="cls-5" d="M624.3,349.32v-4h-.67l-.67.33-.34.34-.34.67v1l.34.67.67.67,1,.33H625l1-.33.67-.67.33-.67v-1l-.33-.67-.67-.67"/>
      </g>
      <g>
        <path id="path3446" class="cls-5" d="M629.33,399.67h7m-3.36,0-1-1-.34-.67v-1l.34-.67,1-.33h3.36"/>
        <path id="path3448" class="cls-5" d="M631.68,389.6h4.7m-3.69,0-.67.67-.34.67v1l.34.67.67.67,1,.34h.67l1-.34.68-.67.33-.67v-1l-.33-.67-.68-.67"/>
        <path id="path3450" class="cls-5" d="M631.68,386.91h4.7m-2.68,0-1-.33-.67-.67-.34-.67v-1"/>
        <path id="path3452" class="cls-5" d="M629.33,378.86h7m-3.69,0-.67.67-.34.67v1l.34.67.67.67,1,.34h.67l1-.34.68-.67.33-.67v-1l-.33-.67-.68-.67"/>
        <path id="path3454" class="cls-5" d="M631.68,376.51l4.7-1.34m-4.7-1.35,4.7,1.35m-4.7-1.35,4.7-1.34m-4.7-1.34,4.7,1.34"/>
        <path id="path3456" class="cls-5" d="M631.68,365.1h4.7m-3.69,0-.67.67-.34.67v1l.34.67.67.67,1,.34h.67l1-.34.68-.67.33-.67v-1l-.33-.67-.68-.67"/>
        <path id="path3458" class="cls-5" d="M631.68,362.41h4.7m-2.68,0-1-.33-.67-.67-.34-.67v-1"/>
        <path id="path3460" class="cls-5" d="M633.7,358.39v-4H633l-.67.33L632,355l-.34.67v1l.34.67.67.67,1,.34h.67l1-.34.68-.67.33-.67v-1l-.33-.67-.68-.67"/>
      </g>
    </g>
  </g>
</svg>
